<svg width="367" height="123" viewBox="0 0 367 123" fill="none" xmlns="http://www.w3.org/2000/svg">
<path d="M90.752 36.136C81.216 50.984 72.64 64.584 65.024 76.936C62.528 81.032 60.672 85.064 59.456 89.032C57.664 95.048 56.768 98.792 56.768 100.264C56.768 102.696 57.504 104.584 58.976 105.928C59.552 106.44 60.256 106.696 61.088 106.696C65.376 106.696 70.72 104.008 77.12 98.632C77.248 98.568 77.376 98.504 77.504 98.44C77.696 98.504 77.856 98.568 77.984 98.632C78.56 98.888 78.592 99.272 78.08 99.784C70.208 107.4 63.776 111.208 58.784 111.208C55.712 111.208 53.632 109.832 52.544 107.08C52.16 105.736 51.968 104.296 51.968 102.76C51.968 101.544 52.704 97.448 54.176 90.472C58.72 80.552 63.072 72.424 67.232 66.088C65.184 68.52 62.72 71.112 59.84 73.864C56.256 77.256 53.248 80.296 50.816 82.984C46.336 87.912 39.872 93.576 31.424 99.976C23.616 105.928 19.648 108.936 19.52 109C15.04 111.816 10.464 113.096 5.792 112.84C4.064 112.776 2.624 111.912 1.472 110.248C0.384 108.584 -0.032 106.76 0.224 104.776C2.336 89.672 13.696 73.608 34.304 56.584C41.28 50.824 51.52 44.584 65.024 37.864C70.976 34.92 75.968 33.448 80 33.448C81.408 33.448 82.112 33.832 82.112 34.6C82.112 35.624 81.728 36.072 80.96 35.944C77.824 35.496 72.8 36.936 65.888 40.264C56.16 45 47.36 50.408 39.488 56.488C30.144 63.72 23.104 70.248 18.368 76.072C12.416 83.368 8.16 91.688 5.6 101.032C5.472 101.544 5.408 102.056 5.408 102.568C5.408 103.976 5.888 105.096 6.848 105.928C7.872 106.696 8.832 107.048 9.728 106.984C13.248 106.792 16.544 105.864 19.616 104.2C21.728 103.112 25.024 100.84 29.504 97.384C38.08 90.792 44.384 85.288 48.416 80.872C55.328 73.448 62.208 66.056 69.056 58.696C76.8 50.184 83.136 42.504 88.064 35.656C88.64 34.44 89.312 34.024 90.08 34.408C90.912 34.984 91.136 35.56 90.752 36.136ZM157.538 4.36001C156.706 9.288 154.626 14.472 151.298 19.912C150.018 21.96 146.69 26.632 141.314 33.928C137.346 39.304 129.634 47.272 118.178 57.832C110.754 63.72 103.138 70.056 95.3304 76.84L95.8104 76.936C98.4344 78.152 99.7464 81.256 99.7464 86.248C99.7464 88.168 99.5544 90.216 99.1704 92.392C98.8504 94.248 98.2104 96.168 97.2504 98.152C97.6344 98.28 98.1144 98.408 98.6904 98.536C99.3944 98.664 100.418 98.664 101.762 98.536C104.194 98.344 106.626 97.416 109.058 95.752C109.378 95.624 109.858 95.368 110.498 94.984C110.818 94.792 111.106 94.856 111.362 95.176C111.554 95.432 111.554 95.72 111.362 96.04C111.234 96.296 110.818 96.712 110.114 97.288C107.362 99.144 104.674 100.2 102.05 100.456C100.706 100.584 99.5544 100.584 98.5944 100.456C97.6984 100.328 96.9304 100.104 96.2904 99.784C94.2424 103.24 91.4904 106.12 88.0344 108.424C84.6424 110.664 81.4424 111.88 78.4344 112.072C77.4744 112.136 76.4504 111.848 75.3624 111.208C74.9784 111.016 74.4664 110.472 73.8264 109.576C72.6104 107.528 72.4504 105.256 73.3464 102.76C74.4984 99.624 76.8664 95.816 80.4504 91.336C83.3944 87.688 86.3704 84.072 89.3784 80.488C94.3704 73.64 101.442 63.976 110.594 51.496C114.05 46.76 119.01 39.944 125.474 31.048C135.458 17.48 143.938 7.912 150.914 2.344C153.026 0.679997 154.85 0.199998 156.386 0.903998C157.602 1.48 157.986 2.632 157.538 4.36001ZM153.986 6.568C154.05 6.056 153.794 5.8 153.218 5.8C152.578 5.736 152.034 5.896 151.586 6.28C144.61 11.464 136.514 20.104 127.298 32.2C122.818 38.088 117.954 44.968 112.706 52.84C109.89 57 105.698 62.76 100.13 70.12C105.954 65.64 111.618 60.808 117.122 55.624C124.29 48.904 128.546 44.872 129.89 43.528C133.986 39.368 137.538 35.144 140.546 30.856C144.962 24.584 147.81 20.392 149.09 18.28C151.778 13.8 153.41 9.896 153.986 6.568ZM96.9624 91.528C97.3464 89.416 97.3464 87.048 96.9624 84.424C96.5784 81.736 96.0024 80.232 95.2344 79.912C94.4024 79.592 93.6024 79.88 92.8344 80.776C91.2344 82.568 90.4344 84.808 90.4344 87.496C90.4344 91.336 92.0024 94.472 95.1384 96.904C95.9704 95.304 96.5784 93.512 96.9624 91.528ZM94.0824 98.632C89.8584 95.752 87.7464 92.04 87.7464 87.496C87.7464 86.984 87.7784 86.6 87.8424 86.344C81.7624 93.512 78.1784 99.016 77.0904 102.856C76.5144 104.776 76.8344 106.344 78.0504 107.56C78.5624 108.072 79.5544 108.136 81.0264 107.752C86.6584 106.28 91.0104 103.24 94.0824 98.632ZM145.756 97.192C145.564 97.512 145.084 97.992 144.316 98.632C141.18 100.808 138.428 102.024 136.06 102.28C133.948 102.472 132.796 102.568 132.604 102.568C131.708 102.44 131.132 102.312 130.876 102.184C124.156 108.456 117.564 111.592 111.1 111.592C109.18 111.592 107.356 111.208 105.628 110.44C104.476 109.928 103.74 108.872 103.42 107.272C103.1 105.8 103.164 104.392 103.612 103.048C104.956 98.952 108.252 94.792 113.5 90.568C117.404 87.368 121.82 85.128 126.748 83.848C127.772 83.144 128.956 82.792 130.3 82.792C133.948 82.792 136.252 84.232 137.212 87.112C137.404 87.752 137.5 88.744 137.5 90.088C137.5 92.904 135.964 96.264 132.892 100.168C134.044 100.296 135.004 100.328 135.772 100.264C137.948 100.072 140.508 98.984 143.452 97C143.452 97 143.932 96.744 144.892 96.232C145.34 95.976 145.628 96.008 145.756 96.328C145.948 96.584 145.948 96.872 145.756 97.192ZM135.196 89.992C135.196 89.032 134.908 88.136 134.332 87.304C133.308 85.832 131.964 85.096 130.3 85.096C127.292 85.096 125.788 87.304 125.788 91.72C125.788 95.24 127.164 97.672 129.916 99.016C133.436 94.984 135.196 91.976 135.196 89.992ZM127.9 100.744C124.444 99.144 122.716 96.168 122.716 91.816C122.716 90.28 123.164 88.68 124.06 87.016C121.18 88.168 118.46 89.704 115.9 91.624C113.34 93.544 111.132 95.72 109.276 98.152C108.124 99.688 107.356 101.544 106.972 103.72C106.844 104.552 107.068 105.384 107.644 106.216C108.284 107.048 109.18 107.528 110.332 107.656C111.1 107.72 111.868 107.752 112.636 107.752C115.58 107.752 118.46 106.984 121.276 105.448C122.428 104.808 124.636 103.24 127.9 100.744ZM183.021 99.208C179.245 102.664 175.789 105.384 172.654 107.368C170.222 108.904 167.822 109.672 165.454 109.672C163.021 109.672 161.357 109.16 160.461 108.136C158.733 106.216 158.669 103.72 160.27 100.648C157.966 103.016 155.277 105.16 152.205 107.08C148.877 109.064 146.093 110.12 143.853 110.248C142.125 110.376 140.75 109.832 139.725 108.616C138.83 107.592 138.51 106.504 138.766 105.352C139.214 103.112 141.293 99.528 145.005 94.6C147.245 91.784 149.517 88.968 151.821 86.152C152.973 84.744 153.965 84.296 154.798 84.808C155.053 85 155.181 85.192 155.181 85.384C155.181 85.448 154.509 86.312 153.165 87.976C151.63 89.768 150.094 91.528 148.557 93.256C146.061 96.456 144.173 99.656 142.894 102.856C142.766 103.112 142.701 103.368 142.701 103.624C142.701 105.48 143.95 106.376 146.446 106.312C150.029 106.184 154.253 103.688 159.118 98.824C163.213 94.28 167.309 89.704 171.406 85.096C171.726 84.712 172.141 84.52 172.654 84.52C173.741 84.52 174.285 84.968 174.285 85.864C174.285 86.056 174.221 86.248 174.093 86.44C173.326 87.4 171.854 89.128 169.677 91.624C166.925 94.76 164.75 98.024 163.15 101.416C162.957 101.864 162.861 102.408 162.861 103.048C162.861 105.48 164.109 106.696 166.606 106.696C168.397 106.696 169.933 106.344 171.213 105.64C175.885 103.08 179.502 100.712 182.062 98.536C182.317 98.344 182.605 98.344 182.925 98.536C183.309 98.728 183.341 98.952 183.021 99.208ZM245.642 56.488C246.218 57.192 246.154 57.736 245.45 58.12C244.874 58.76 244.298 59.304 243.722 59.752C236.874 63.656 228.874 65.608 219.722 65.608C217.226 65.608 214.538 65.48 211.658 65.224C210.698 66.76 209.546 68.552 208.202 70.6C203.658 78.024 199.114 85.448 194.57 92.872C188.81 102.152 183.37 109.032 178.25 113.512C177.162 114.472 176.234 114.504 175.466 113.608C175.21 113.352 175.082 113.032 175.082 112.648C175.082 111.88 175.658 111.016 176.81 110.056C181.61 105.832 186.826 99.528 192.458 91.144C196.938 84.04 201.418 76.904 205.898 69.736C206.986 68.008 207.946 66.44 208.778 65.032C207.562 64.776 206.314 64.616 205.034 64.552C202.538 64.232 196.554 63.08 187.082 61.096C179.722 59.496 173.93 58.696 169.706 58.696C163.434 58.696 158.25 60.2 154.154 63.208C154.218 63.272 155.754 63.528 158.762 63.976C158.89 64.04 159.082 64.2 159.338 64.456C159.338 64.776 159.21 64.968 158.954 65.032C157.226 65.672 155.21 65.992 152.906 65.992C150.538 65.992 149.322 65.512 149.258 64.552C149.194 63.848 149.738 63.016 150.89 62.056C156.266 58.344 162.794 56.488 170.474 56.488C174.506 56.488 179.594 57.032 185.738 58.12C190.794 59.08 195.85 60.04 200.906 61C203.018 61.192 206.186 61.544 210.41 62.056C214.25 55.208 218.154 50.056 222.122 46.6L221.738 46.792C222.762 45.768 223.594 45.608 224.234 46.312C224.938 47.08 224.81 47.912 223.85 48.808C220.906 51.56 217.482 55.976 213.578 62.056C216.842 62.248 220.618 62.216 224.906 61.96C228.554 61.768 234.858 59.784 243.818 56.008C244.714 55.624 245.322 55.784 245.642 56.488Z" fill="#333333"/>
<path d="M328.575 61.48C327.679 65.448 325.439 71.144 321.855 78.568C318.143 86.376 315.807 92.104 314.847 95.752C314.335 97.672 314.079 100.168 314.079 103.24C314.079 110.856 315.455 115.912 318.207 118.408C319.615 119.24 320.127 120.104 319.743 121C319.487 121.576 318.943 121.928 318.111 122.056C317.663 122.12 317.087 122.056 316.383 121.864C312.799 119.944 311.007 114.92 311.007 106.792C311.007 102.312 311.519 98.248 312.543 94.6C313.887 89.736 317.215 81.032 322.527 68.488C323.871 65.352 324.543 62.568 324.543 60.136C324.543 58.728 324.191 57.96 323.487 57.832C321.823 57.512 318.879 58.888 314.655 61.96C310.495 65.032 307.103 68.232 304.479 71.56C298.911 78.664 294.207 85.992 290.367 93.544C288.639 96.872 286.015 101.928 282.495 108.712C281.663 110.632 280.639 111.592 279.423 111.592C279.231 111.592 279.071 111.56 278.943 111.496C278.047 110.984 277.919 109.928 278.559 108.328C278.879 107.752 279.199 107.016 279.519 106.12C280.607 104.136 282.175 101.16 284.223 97.192C291.967 81.832 299.199 65.608 305.919 48.52C306.943 45.832 307.455 43.72 307.455 42.184C307.455 41.288 306.879 40.84 305.727 40.84C303.039 40.84 299.519 42.088 295.167 44.584C290.367 47.336 286.175 50.76 282.591 54.856C279.071 62.472 275.647 69.48 272.319 75.88C268.607 83.88 263.039 95.4 255.615 110.44C255.487 110.888 254.943 111.4 253.983 111.976C253.663 112.296 253.119 112.424 252.351 112.36C251.519 112.36 250.975 112.2 250.719 111.88C249.887 111.24 249.919 110.472 250.815 109.576C258.623 95.88 269.151 75.432 282.399 48.232C288.863 34.984 292.095 25.256 292.095 19.048C292.095 17.064 291.711 15.496 290.943 14.344C289.471 12.104 285.823 10.824 279.999 10.504C269.951 9.992 260.607 14.12 251.967 22.888C248.255 26.664 246.399 30.248 246.399 33.64C246.399 34.536 246.527 35.4 246.783 36.232C247.807 38.152 249.695 39.112 252.447 39.112C253.791 39.112 255.199 38.824 256.671 38.248C257.311 38.184 257.695 38.472 257.823 39.112C257.887 39.56 257.631 39.944 257.055 40.264C253.535 41.608 250.591 42.28 248.223 42.28C245.215 42.28 243.135 41.224 241.983 39.112C241.471 38.152 241.215 37.096 241.215 35.944C241.215 33 242.879 29.448 246.207 25.288C250.495 19.976 255.871 15.4 262.335 11.56C268.287 8.04 274.367 6.28 280.575 6.28C286.463 6.28 291.007 8.008 294.207 11.464C295.167 12.936 295.647 14.888 295.647 17.32C295.647 21.672 292.799 30.792 287.103 44.68C286.527 46.152 286.015 47.304 285.567 48.136C292.479 41.224 299.775 36.904 307.455 35.176C310.207 34.536 311.839 34.92 312.351 36.328C312.671 37.224 312.831 38.216 312.831 39.304C312.831 40.968 312.255 43.4 311.103 46.6C309.503 50.824 305.471 60.104 299.007 74.44C305.663 66.632 309.343 62.344 310.047 61.576C314.783 56.84 319.423 53.96 323.967 52.936C324.351 52.872 324.703 52.84 325.023 52.84C326.943 52.84 328.127 54.12 328.575 56.68C328.895 58.472 328.895 60.072 328.575 61.48ZM366.044 98.248C363.292 101.064 359.676 103.592 355.196 105.832C353.532 106.664 350.812 107.528 347.036 108.424C342.876 109.384 339.452 109.864 336.764 109.864C328.38 109.864 324.348 107.176 324.668 101.8C324.732 100.52 325.212 99.208 326.108 97.864C328.86 93.64 333.532 89.768 340.124 86.248C346.78 82.728 352.476 81.224 357.212 81.736C357.468 81.928 357.788 82.184 358.172 82.504C358.364 82.696 358.396 82.952 358.268 83.272L357.98 84.136C357.788 84.392 357.468 84.808 357.02 85.384C356.764 85.576 355.996 86.216 354.716 87.304C347.74 90.696 339.708 94.152 330.62 97.672C329.724 98.44 329.02 99.752 328.508 101.608C328.956 104.68 331.996 106.408 337.628 106.792C339.292 106.92 341.948 106.696 345.596 106.12C349.308 105.48 351.964 104.84 353.564 104.2C357.916 102.408 361.628 100.168 364.7 97.48C365.02 97.16 365.404 97.16 365.852 97.48C366.3 97.672 366.364 97.928 366.044 98.248ZM354.908 84.424C354.908 84.104 354.076 84.04 352.412 84.232C344.412 86.216 337.852 89.768 332.732 94.888C340.348 91.944 347.068 89.032 352.892 86.152C354.236 85.192 354.908 84.616 354.908 84.424Z" fill="#E2856E"/>
</svg>
