<svg width="438" height="117" viewBox="0 0 438 117" fill="none" xmlns="http://www.w3.org/2000/svg">
<path d="M79.424 16.12C79.232 16.504 79.104 16.696 79.04 16.696C75.328 18.424 69.856 21.496 62.624 25.912C62.496 26.04 62.304 26.2 62.048 26.392C61.856 26.52 61.728 26.616 61.664 26.68C63.392 28.408 64.256 30.616 64.256 33.304C64.256 36.376 63.072 39.096 60.704 41.464C57.376 44.728 54.368 46.392 51.68 46.456C50.656 46.456 49.952 45.912 49.568 44.824C49.184 43.928 49.152 43.032 49.472 42.136C50.368 36.632 53.088 31.704 57.632 27.352C56.736 26.904 55.68 26.68 54.464 26.68C51.136 26.68 47.776 27.832 44.384 30.136C32.736 37.944 23.136 47.704 15.584 59.416C8.032 71.128 4.256 81.528 4.256 90.616C4.256 94.648 5.216 97.688 7.136 99.736C10.592 103.448 14.88 105.112 20 104.728C30.624 103.896 41.152 96.536 51.584 82.648C52.032 82.072 52.576 82.04 53.216 82.552C53.536 82.872 53.504 83.384 53.12 84.088C49.152 90.04 44.704 95.16 39.776 99.448C32.992 105.336 26.432 108.504 20.096 108.952C13.76 109.4 8.896 108.12 5.504 105.112C1.92 101.976 0.128 97.496 0.128 91.672C0.128 87.768 0.96 83.224 2.624 78.04C8.576 59.032 21.728 42.616 42.08 28.792C46.624 25.72 50.976 24.184 55.136 24.184C56.992 24.184 58.592 24.568 59.936 25.336C65.056 21.112 71.36 17.976 78.848 15.928C78.976 15.8 79.168 15.864 79.424 16.12ZM60.416 37.144C61.056 36.056 61.376 34.936 61.376 33.784C61.376 32.056 60.704 30.36 59.36 28.696C56.672 31.32 54.656 35 53.312 39.736C53.12 40.312 53.152 40.824 53.408 41.272C53.728 41.72 54.112 41.912 54.56 41.848C56.992 41.08 58.944 39.512 60.416 37.144ZM99.6309 91.192C99.4389 91.512 98.9589 91.992 98.1909 92.632C95.0549 94.808 92.3029 96.024 89.9349 96.28C87.8229 96.472 86.6709 96.568 86.4789 96.568C85.5829 96.44 85.0069 96.312 84.7509 96.184C78.0309 102.456 71.4389 105.592 64.9749 105.592C63.0549 105.592 61.2309 105.208 59.5029 104.44C58.3509 103.928 57.6149 102.872 57.2949 101.272C56.9749 99.8 57.0389 98.392 57.4869 97.048C58.8309 92.952 62.1269 88.792 67.3749 84.568C71.2789 81.368 75.6949 79.128 80.6229 77.848C81.6469 77.144 82.8309 76.792 84.1749 76.792C87.8229 76.792 90.1269 78.232 91.0869 81.112C91.2789 81.752 91.3749 82.744 91.3749 84.088C91.3749 86.904 89.8389 90.264 86.7669 94.168C87.9189 94.296 88.8789 94.328 89.6469 94.264C91.8229 94.072 94.3829 92.984 97.3269 91C97.3269 91 97.8069 90.744 98.7669 90.232C99.2149 89.976 99.5029 90.008 99.6309 90.328C99.8229 90.584 99.8229 90.872 99.6309 91.192ZM89.0709 83.992C89.0709 83.032 88.7829 82.136 88.2069 81.304C87.1829 79.832 85.8389 79.096 84.1749 79.096C81.1669 79.096 79.6629 81.304 79.6629 85.72C79.6629 89.24 81.0389 91.672 83.7909 93.016C87.3109 88.984 89.0709 85.976 89.0709 83.992ZM81.7749 94.744C78.3189 93.144 76.5909 90.168 76.5909 85.816C76.5909 84.28 77.0389 82.68 77.9349 81.016C75.0549 82.168 72.3349 83.704 69.7749 85.624C67.2149 87.544 65.0069 89.72 63.1509 92.152C61.9989 93.688 61.2309 95.544 60.8469 97.72C60.7189 98.552 60.9429 99.384 61.5189 100.216C62.1589 101.048 63.0549 101.528 64.2069 101.656C64.9749 101.72 65.7429 101.752 66.5109 101.752C69.4549 101.752 72.3349 100.984 75.1509 99.448C76.3029 98.808 78.5109 97.24 81.7749 94.744ZM146.571 93.208C141.707 97.624 138.187 100.536 136.011 101.944C133.579 103.48 131.275 104.248 129.099 104.248C125.131 104.248 122.763 102.936 121.995 100.312C121.227 97.624 121.803 95.064 123.723 92.632C127.819 87.448 129.867 84.76 129.867 84.568C129.867 84.056 129.419 83.928 128.523 84.184C122.635 86.04 116.427 89.432 109.899 94.36C105.675 97.816 101.483 101.304 97.3228 104.824L95.5947 105.976C94.9547 106.296 94.3787 106.456 93.8668 106.456C93.2907 106.456 92.9707 106.2 92.9067 105.688C92.9067 104.92 93.0987 104.344 93.4827 103.96L94.4427 103C97.3227 100.12 100.555 96.568 104.139 92.344C107.787 88.056 109.579 85.624 109.515 85.048C109.323 84.664 109.099 84.472 108.843 84.472C108.011 84.472 106.219 85.592 103.467 87.832C100.651 90.264 97.8028 92.696 94.9227 95.128C94.4107 95.64 94.0587 95.544 93.8668 94.84C93.8668 94.264 93.9627 93.88 94.1547 93.688C97.0347 91.256 99.8827 88.824 102.699 86.392C106.411 83.384 109.067 81.752 110.667 81.496C112.587 81.24 113.867 81.848 114.507 83.32C114.571 83.704 114.219 84.76 113.451 86.488C112.491 88.6 111.051 90.648 109.131 92.632C116.299 87.64 123.499 83.608 130.731 80.536C131.627 80.152 132.619 79.96 133.707 79.96C135.371 79.96 136.267 80.44 136.395 81.4C136.523 81.912 136.139 82.776 135.243 83.992C134.283 85.4 132.331 87.864 129.387 91.384C126.827 94.072 125.611 96.472 125.739 98.584C125.803 99.8 126.923 100.664 129.099 101.176C130.891 101.624 132.715 101.304 134.571 100.216C138.667 97.912 142.347 95.352 145.611 92.536C145.867 92.344 146.155 92.344 146.475 92.536C146.859 92.728 146.891 92.952 146.571 93.208ZM207.251 50.488C207.827 51.192 207.763 51.736 207.059 52.12C206.483 52.76 205.907 53.304 205.331 53.752C198.483 57.656 190.483 59.608 181.331 59.608C178.835 59.608 176.147 59.48 173.267 59.224C172.307 60.76 171.155 62.552 169.811 64.6C165.267 72.024 160.723 79.448 156.179 86.872C150.419 96.152 144.979 103.032 139.859 107.512C138.771 108.472 137.843 108.504 137.075 107.608C136.819 107.352 136.691 107.032 136.691 106.648C136.691 105.88 137.267 105.016 138.419 104.056C143.219 99.832 148.435 93.528 154.067 85.144C158.547 78.04 163.027 70.904 167.507 63.736C168.595 62.008 169.555 60.44 170.387 59.032C169.171 58.776 167.923 58.616 166.643 58.552C164.147 58.232 158.163 57.08 148.691 55.096C141.331 53.496 135.539 52.696 131.315 52.696C125.043 52.696 119.859 54.2 115.763 57.208C115.827 57.272 117.363 57.528 120.371 57.976C120.499 58.04 120.691 58.2 120.947 58.456C120.947 58.776 120.819 58.968 120.563 59.032C118.835 59.672 116.819 59.992 114.515 59.992C112.147 59.992 110.931 59.512 110.867 58.552C110.803 57.848 111.347 57.016 112.499 56.056C117.875 52.344 124.403 50.488 132.083 50.488C136.115 50.488 141.203 51.032 147.347 52.12C152.403 53.08 157.459 54.04 162.515 55C164.627 55.192 167.795 55.544 172.019 56.056C175.859 49.208 179.763 44.056 183.731 40.6L183.347 40.792C184.371 39.768 185.203 39.608 185.843 40.312C186.547 41.08 186.419 41.912 185.459 42.808C182.515 45.56 179.091 49.976 175.187 56.056C178.451 56.248 182.227 56.216 186.515 55.96C190.163 55.768 196.467 53.784 205.427 50.008C206.323 49.624 206.931 49.784 207.251 50.488ZM213.965 92.44C210.445 96.344 207.373 99.256 204.749 101.176C202.637 102.712 200.301 103.48 197.741 103.48C197.229 103.48 196.717 103.448 196.205 103.384C194.029 103.064 192.589 101.944 191.885 100.024C191.501 98.936 191.309 97.88 191.309 96.856C191.309 95.128 192.077 92.824 193.613 89.944C191.693 91.544 188.525 93.848 184.109 96.856C181.741 98.264 178.061 100.152 173.069 102.52C170.509 103.48 168.365 103.96 166.637 103.96C164.973 103.96 163.789 103.576 163.085 102.808C161.741 101.4 161.549 99.64 162.509 97.528C164.365 93.368 167.821 89.624 172.877 86.296C179.917 81.624 186.317 79 192.077 78.424C192.397 78.296 192.621 78.456 192.749 78.904C192.749 79.288 192.525 79.48 192.077 79.48C184.397 81.784 178.541 84.44 174.509 87.448C172.973 88.472 170.861 90.296 168.173 92.92C166.381 95.224 165.613 97.048 165.869 98.392C165.997 99.032 166.477 99.416 167.309 99.544C170.125 99.928 173.005 99.416 175.949 98.008C181.773 95.192 186.445 92.632 189.965 90.328C194.701 87.256 199.085 83.096 203.117 77.848C203.885 76.888 204.493 76.696 204.941 77.272C205.517 77.976 205.485 78.648 204.845 79.288C204.013 80.184 202.637 81.656 200.717 83.704C199.373 85.496 198.573 86.744 198.317 87.448C195.949 91.16 194.765 94.424 194.765 97.24C194.765 97.688 194.797 98.136 194.861 98.584C194.989 99.864 195.981 100.728 197.837 101.176C199.437 101.56 201.229 101.24 203.213 100.216C206.925 97.72 210.317 94.936 213.389 91.864C213.581 91.672 213.741 91.64 213.869 91.768C214.189 91.96 214.221 92.184 213.965 92.44ZM256.234 92.44C254.122 94.36 250.218 96.76 244.522 99.64C241.642 101.112 237.77 102.392 232.906 103.48C227.594 104.632 223.21 105.112 219.754 104.92C217.066 104.728 214.826 104.088 213.034 103C210.986 101.72 210.09 99.864 210.346 97.432C210.794 93.528 213.354 89.72 218.026 86.008C226.73 79.096 233.77 75.64 239.146 75.64C240.234 75.64 241.258 75.736 242.218 75.928C243.754 76.248 244.522 76.792 244.522 77.56C245.546 76.728 246.154 76.312 246.346 76.312C246.986 76.312 247.114 76.696 246.73 77.464C246.41 77.784 245.802 78.456 244.906 79.48C244.01 80.44 242.698 82.008 240.97 84.184C239.882 85.656 238.858 86.392 237.898 86.392C237.77 86.392 237.674 86.36 237.61 86.296C237.29 85.72 237.962 84.6 239.626 82.936C240.586 81.656 241.13 80.504 241.258 79.48C241.386 78.264 240.874 77.656 239.722 77.656C236.586 77.656 233.546 78.52 230.602 80.248C222.858 84.728 217.738 89.816 215.242 95.512C215.05 95.896 214.954 96.376 214.954 96.952C214.954 99.96 217.066 101.592 221.29 101.848C228.522 102.36 235.69 101.144 242.794 98.2C246.698 96.6 248.97 95.64 249.61 95.32C251.786 94.296 253.674 93.112 255.274 91.768C255.53 91.576 255.818 91.576 256.138 91.768C256.522 91.96 256.554 92.184 256.234 92.44ZM316.939 50.488C317.515 51.192 317.451 51.736 316.747 52.12C316.171 52.76 315.595 53.304 315.019 53.752C308.171 57.656 300.171 59.608 291.019 59.608C288.523 59.608 285.835 59.48 282.955 59.224C281.995 60.76 280.843 62.552 279.499 64.6C274.955 72.024 270.411 79.448 265.867 86.872C260.107 96.152 254.667 103.032 249.547 107.512C248.459 108.472 247.531 108.504 246.763 107.608C246.507 107.352 246.379 107.032 246.379 106.648C246.379 105.88 246.955 105.016 248.107 104.056C252.907 99.832 258.123 93.528 263.755 85.144C268.235 78.04 272.715 70.904 277.195 63.736C278.283 62.008 279.243 60.44 280.075 59.032C278.859 58.776 277.611 58.616 276.331 58.552C273.835 58.232 267.851 57.08 258.379 55.096C251.019 53.496 245.227 52.696 241.003 52.696C234.731 52.696 229.547 54.2 225.451 57.208C225.515 57.272 227.051 57.528 230.059 57.976C230.187 58.04 230.379 58.2 230.635 58.456C230.635 58.776 230.507 58.968 230.251 59.032C228.523 59.672 226.507 59.992 224.203 59.992C221.835 59.992 220.619 59.512 220.555 58.552C220.491 57.848 221.035 57.016 222.187 56.056C227.563 52.344 234.091 50.488 241.771 50.488C245.803 50.488 250.891 51.032 257.035 52.12C262.091 53.08 267.147 54.04 272.203 55C274.315 55.192 277.483 55.544 281.707 56.056C285.547 49.208 289.451 44.056 293.419 40.6L293.035 40.792C294.059 39.768 294.891 39.608 295.531 40.312C296.235 41.08 296.107 41.912 295.147 42.808C292.203 45.56 288.779 49.976 284.875 56.056C288.139 56.248 291.915 56.216 296.203 55.96C299.851 55.768 306.155 53.784 315.115 50.008C316.011 49.624 316.619 49.784 316.939 50.488Z" fill="#333333"/>
<path d="M399.872 55.48C398.976 59.448 396.736 65.144 393.152 72.568C389.44 80.376 387.104 86.104 386.144 89.752C385.632 91.672 385.376 94.168 385.376 97.24C385.376 104.856 386.752 109.912 389.504 112.408C390.912 113.24 391.424 114.104 391.04 115C390.784 115.576 390.24 115.928 389.408 116.056C388.96 116.12 388.384 116.056 387.68 115.864C384.096 113.944 382.304 108.92 382.304 100.792C382.304 96.312 382.816 92.248 383.84 88.6C385.184 83.736 388.512 75.032 393.824 62.488C395.168 59.352 395.84 56.568 395.84 54.136C395.84 52.728 395.488 51.96 394.784 51.832C393.12 51.512 390.176 52.888 385.952 55.96C381.792 59.032 378.4 62.232 375.776 65.56C370.208 72.664 365.504 79.992 361.664 87.544C359.936 90.872 357.312 95.928 353.792 102.712C352.96 104.632 351.936 105.592 350.72 105.592C350.528 105.592 350.368 105.56 350.24 105.496C349.344 104.984 349.216 103.928 349.856 102.328C350.176 101.752 350.496 101.016 350.816 100.12C351.904 98.136 353.472 95.16 355.52 91.192C363.264 75.832 370.496 59.608 377.216 42.52C378.24 39.832 378.752 37.72 378.752 36.184C378.752 35.288 378.176 34.84 377.024 34.84C374.336 34.84 370.816 36.088 366.464 38.584C361.664 41.336 357.472 44.76 353.888 48.856C350.368 56.472 346.944 63.48 343.616 69.88C339.904 77.88 334.336 89.4 326.912 104.44C326.784 104.888 326.24 105.4 325.28 105.976C324.96 106.296 324.416 106.424 323.648 106.36C322.816 106.36 322.272 106.2 322.016 105.88C321.184 105.24 321.216 104.472 322.112 103.576C329.92 89.88 340.448 69.432 353.696 42.232C360.16 28.984 363.392 19.256 363.392 13.048C363.392 11.064 363.008 9.496 362.24 8.344C360.768 6.104 357.12 4.824 351.296 4.504C341.248 3.992 331.904 8.12 323.264 16.888C319.552 20.664 317.696 24.248 317.696 27.64C317.696 28.536 317.824 29.4 318.08 30.232C319.104 32.152 320.992 33.112 323.744 33.112C325.088 33.112 326.496 32.824 327.968 32.248C328.608 32.184 328.992 32.472 329.12 33.112C329.184 33.56 328.928 33.944 328.352 34.264C324.832 35.608 321.888 36.28 319.52 36.28C316.512 36.28 314.432 35.224 313.28 33.112C312.768 32.152 312.512 31.096 312.512 29.944C312.512 27 314.176 23.448 317.504 19.288C321.792 13.976 327.168 9.4 333.632 5.56C339.584 2.04 345.664 0.280004 351.872 0.280004C357.76 0.280004 362.304 2.008 365.504 5.464C366.464 6.936 366.944 8.888 366.944 11.32C366.944 15.672 364.096 24.792 358.4 38.68C357.824 40.152 357.312 41.304 356.864 42.136C363.776 35.224 371.072 30.904 378.752 29.176C381.504 28.536 383.136 28.92 383.648 30.328C383.968 31.224 384.128 32.216 384.128 33.304C384.128 34.968 383.552 37.4 382.4 40.6C380.8 44.824 376.768 54.104 370.304 68.44C376.96 60.632 380.64 56.344 381.344 55.576C386.08 50.84 390.72 47.96 395.264 46.936C395.648 46.872 396 46.84 396.32 46.84C398.24 46.84 399.424 48.12 399.872 50.68C400.192 52.472 400.192 54.072 399.872 55.48ZM437.34 92.248C434.588 95.064 430.972 97.592 426.492 99.832C424.829 100.664 422.109 101.528 418.332 102.424C414.172 103.384 410.748 103.864 408.061 103.864C399.676 103.864 395.644 101.176 395.964 95.8C396.028 94.52 396.508 93.208 397.404 91.864C400.156 87.64 404.829 83.768 411.421 80.248C418.076 76.728 423.772 75.224 428.508 75.736C428.764 75.928 429.084 76.184 429.468 76.504C429.66 76.696 429.692 76.952 429.565 77.272L429.276 78.136C429.084 78.392 428.764 78.808 428.317 79.384C428.061 79.576 427.293 80.216 426.013 81.304C419.036 84.696 411.004 88.152 401.917 91.672C401.02 92.44 400.316 93.752 399.804 95.608C400.252 98.68 403.292 100.408 408.924 100.792C410.588 100.92 413.245 100.696 416.893 100.12C420.605 99.48 423.261 98.84 424.861 98.2C429.213 96.408 432.924 94.168 435.996 91.48C436.317 91.16 436.701 91.16 437.148 91.48C437.596 91.672 437.66 91.928 437.34 92.248ZM426.204 78.424C426.204 78.104 425.372 78.04 423.708 78.232C415.708 80.216 409.148 83.768 404.028 88.888C411.644 85.944 418.364 83.032 424.188 80.152C425.532 79.192 426.204 78.616 426.204 78.424Z" fill="#E2856E"/>
</svg>
