<?xml version="1.0" encoding="utf-8"?>
<!-- Svg Vector Icons : http://www.onlinewebfonts.com/icon -->
<!DOCTYPE svg PUBLIC "-//W3C//DTD SVG 1.1//EN" "http://www.w3.org/Graphics/SVG/1.1/DTD/svg11.dtd">
<svg version="1.1" xmlns="http://www.w3.org/2000/svg" xmlns:xlink="http://www.w3.org/1999/xlink" x="0px" y="0px" viewBox="0 0 256 256" enable-background="new 0 0 256 256" xml:space="preserve">
<metadata> Svg Vector Icons : http://www.onlinewebfonts.com/icon </metadata>
<g><g><path fill="#000000" d="M188.9,246.3c-29.1,0-64-19.3-103.5-57.4c-28.4-27.3-49-52.8-61.4-75.8c-10.4-19.3-15-37-13.8-52.7c1.6-22,14.4-35.2,22.8-41.6v0l1.5-1.1c0.3-0.2,0.5-0.4,0.7-0.5c0.1,0,0.2-0.1,0.3-0.2c0.6-0.4,1.1-0.7,1.6-1.1l0.1,0c0.1,0,0.1-0.1,0.2-0.1c0.1-0.1,0.3-0.2,0.4-0.2c2.9-1.8,4.9-2.6,5-2.7l5.2-2.2l0,0.5c3.3-0.9,6.7-1.4,9.9-1.4c10.4,0,18.7,4.9,22.6,13.3l0.1,0.1l10.9,26.5c3.5,7.6,3.5,16.9,0.1,26.3c-3.2,8.6-8.9,16.5-16.3,22.2c19.3,33,46.7,59.9,81.5,79.9l0.2-0.3c8.8-12.3,23.3-20.3,37-20.3c4.6,0,8.8,0.9,12.6,2.7l0.1,0.1l24.6,12.9c6.9,3.2,11.7,8.9,13.7,15.8c2.4,8.4,0.4,18-5.5,26.8c-1.6,3.1-6.1,10.6-14.1,17.3C215.2,241.9,202.9,246.3,188.9,246.3z M39.1,23.4l-0.4,0.3C29.8,30,18.9,41.6,17.5,60.9c-1.1,14.3,3.3,30.7,13,48.7c12,22.3,32.2,47.2,60,74c38.2,36.7,71.3,55.3,98.5,55.3c28.2,0,41-20.3,44.2-26.6l0.1-0.2l0.1-0.2c4.8-7.1,6.4-14.6,4.6-21c-1.4-5-4.8-8.9-9.8-11.2l-0.1-0.1l-24.6-12.9c-2.8-1.3-6-2-9.5-2c-11.4,0-23.5,6.8-31,17.2l-4,5.6l-2.9-1.6c-38.3-21.4-68.2-50.8-88.7-87.2l-1.6-2.9l3.9-2.8c6.9-4.9,12.3-12,15.1-19.8c2.8-7.6,2.8-15,0.1-20.8l-0.1-0.1L73.9,26.1c-3.7-7.9-11.6-9.1-16-9.1c-3.9,0-8.2,0.9-12.3,2.7l-2.1,0.9c-0.6,0.3-1.2,0.7-1.9,1.1l0,0c-0.1,0-0.1,0.1-0.2,0.1c-0.1,0.1-0.3,0.2-0.4,0.3c-0.5,0.3-0.9,0.6-1.4,0.9l0,0C39.4,23.2,39.3,23.3,39.1,23.4z"/><path fill="#000000" d="M180.4,10c-32.3,0-58.6,21.8-58.6,48.6c0,25.9,24.5,47.1,55.3,48.6c-3.2,4.4-7.5,8.4-12.8,11.9c-1.4,0.9-2,2.6-1.5,4.1c0.4,1.6,1.9,2.7,3.5,2.7h0.5c3.3,0,32.1-0.7,44.8-26.1c17.1-8.8,27.6-24.6,27.6-41.3C239.1,31.8,212.8,10,180.4,10z M207,93.8c-0.8,0.4-1.4,1-1.8,1.8c-6.1,13.2-17.5,18.8-26.4,21.2c3.4-3.6,6.2-7.5,8.2-11.7c0.6-1.2,0.5-2.6-0.3-3.7c-0.7-1.1-1.9-1.7-3.1-1.7c0,0-0.1,0-0.2,0c-1,0-2,0.1-3,0.1c-28.2,0-51.1-18.5-51.1-41.2c0-22.7,22.9-41.2,51.1-41.2c28.2,0,51.1,18.5,51.1,41.2C231.6,73.1,222.4,86.3,207,93.8z"/><path fill="#000000" d="M207.6,67.6h-54.3c-2.1,0-3.7,1.7-3.7,3.7c0,2.1,1.7,3.7,3.7,3.7h54.3c2.1,0,3.7-1.7,3.7-3.7C211.3,69.3,209.6,67.6,207.6,67.6L207.6,67.6z M207.6,45.3h-54.3c-2.1,0-3.7,1.7-3.7,3.8s1.7,3.7,3.7,3.7h54.3c2.1,0,3.7-1.7,3.7-3.7C211.3,47,209.6,45.3,207.6,45.3L207.6,45.3z"/></g></g>
</svg>