<svg width="36" height="36" viewBox="0 0 36 36" fill="none" xmlns="http://www.w3.org/2000/svg">
<rect width="36" height="36" rx="18" fill="white"/>
<path d="M14.6505 17.7749C14.6505 16.0491 16.0492 14.6497 17.775 14.6497C19.5008 14.6497 20.9003 16.0491 20.9003 17.7749C20.9003 19.5007 19.5008 20.9002 17.775 20.9002C16.0492 20.9002 14.6505 19.5007 14.6505 17.7749ZM12.9611 17.7749C12.9611 20.4337 15.1163 22.5889 17.775 22.5889C20.4338 22.5889 22.589 20.4337 22.589 17.7749C22.589 15.1162 20.4338 12.961 17.775 12.961C15.1163 12.961 12.9611 15.1162 12.9611 17.7749ZM21.6545 12.7701C21.6545 12.9926 21.7204 13.2101 21.8439 13.3952C21.9674 13.5802 22.1431 13.7245 22.3486 13.8097C22.5541 13.895 22.7803 13.9173 22.9986 13.874C23.2168 13.8307 23.4173 13.7236 23.5747 13.5663C23.7321 13.4091 23.8393 13.2087 23.8828 12.9904C23.9263 12.7722 23.9042 12.546 23.8191 12.3404C23.734 12.1348 23.5899 11.9591 23.4049 11.8354C23.22 11.7117 23.0025 11.6456 22.78 11.6455H22.7795C22.4813 11.6457 22.1953 11.7642 21.9844 11.975C21.7734 12.1859 21.6548 12.4718 21.6545 12.7701ZM13.9875 25.4059C13.0735 25.3643 12.5767 25.2121 12.2465 25.0834C11.8088 24.913 11.4965 24.7101 11.1682 24.3822C10.8398 24.0543 10.6366 23.7423 10.4669 23.3046C10.3382 22.9746 10.186 22.4776 10.1444 21.5636C10.099 20.5754 10.0899 20.2786 10.0899 17.775C10.0899 15.2714 10.0997 14.9754 10.1444 13.9864C10.1861 13.0723 10.3394 12.5764 10.4669 12.2454C10.6373 11.8077 10.8403 11.4954 11.1682 11.167C11.4961 10.8387 11.8081 10.6354 12.2465 10.4658C12.5765 10.3371 13.0735 10.1848 13.9875 10.1433C14.9757 10.0978 15.2726 10.0888 17.775 10.0888C20.2775 10.0888 20.5746 10.0986 21.5636 10.1433C22.4777 10.1849 22.9736 10.3383 23.3046 10.4658C23.7423 10.6354 24.0546 10.8391 24.383 11.167C24.7113 11.4949 24.9138 11.8077 25.0842 12.2454C25.2129 12.5754 25.3652 13.0723 25.4067 13.9864C25.4522 14.9754 25.4613 15.2714 25.4613 17.775C25.4613 20.2786 25.4522 20.5746 25.4067 21.5636C25.3651 22.4776 25.2121 22.9744 25.0842 23.3046C24.9138 23.7423 24.7109 24.0546 24.383 24.3822C24.0551 24.7098 23.7423 24.913 23.3046 25.0834C22.9746 25.2121 22.4777 25.3644 21.5636 25.4059C20.5754 25.4514 20.2786 25.4605 17.775 25.4605C15.2714 25.4605 14.9754 25.4514 13.9875 25.4059ZM13.9099 8.45668C12.9119 8.50213 12.2299 8.66038 11.6343 8.89213C11.0175 9.13145 10.4954 9.45253 9.9736 9.97348C9.45182 10.4944 9.13157 11.0174 8.89225 11.6342C8.6605 12.2302 8.50225 12.9118 8.4568 13.9098C8.4106 14.9094 8.40002 15.229 8.40002 17.7749C8.40002 20.3209 8.4106 20.6404 8.4568 21.64C8.50225 22.6381 8.6605 23.3197 8.89225 23.9156C9.13157 24.532 9.4519 25.0556 9.9736 25.5763C10.4953 26.0971 11.0175 26.4177 11.6343 26.6577C12.231 26.8894 12.9119 27.0477 13.9099 27.0931C14.91 27.1386 15.2291 27.1499 17.775 27.1499C20.321 27.1499 20.6405 27.1393 21.6401 27.0931C22.6382 27.0477 23.3198 26.8894 23.9157 26.6577C24.5321 26.4177 25.0547 26.0973 25.5764 25.5763C26.0982 25.0554 26.4178 24.532 26.6578 23.9156C26.8895 23.3197 27.0485 22.6381 27.0932 21.64C27.1387 20.6397 27.1493 20.3209 27.1493 17.7749C27.1493 15.229 27.1387 14.9094 27.0932 13.9098C27.0478 12.9117 26.8895 12.2298 26.6578 11.6342C26.4178 11.0178 26.0974 10.4953 25.5764 9.97348C25.0555 9.4517 24.5322 9.13145 23.9165 8.89213C23.3198 8.66038 22.6382 8.50138 21.6409 8.45668C20.6413 8.41123 20.3217 8.3999 17.7758 8.3999C15.2298 8.3999 14.91 8.41048 13.9099 8.45668Z" fill="#333333"/>
</svg>
