<svg width="177" height="60" viewBox="0 0 177 60" fill="none" xmlns="http://www.w3.org/2000/svg">
<g clip-path="url(#clip0_1_4)">
<path d="M0.0763 30.8946C0.100367 28.2592 2.51112 26.2977 5.09436 26.8111C11.4522 28.0787 21.9416 30.1565 24.5208 30.5857C28.2833 31.2115 29.4947 28.4397 29.4947 28.4397L38.6444 5.31891C39.2982 3.67029 40.9147 2.60731 42.6837 2.66346L56.9557 3.11673H58.8851C58.8851 3.11673 56.9757 3.3173 56.2256 4.87366L44.6492 32.5753C43.9512 34.248 42.1823 35.2147 40.3933 34.8938L22.6275 31.7169C22.2825 31.6567 21.9456 31.5725 21.6086 31.4842C16.6307 30.1605 14.24 31.3077 13.0968 32.6154C12.4109 33.4016 12.0659 34.4325 12.0539 35.4754L11.8774 50.6941C11.8934 51.1393 12.0539 52.1943 13.0767 53.2773L11.8573 52.4109L2.47101 45.2267C0.894593 44.0153 -0.0159585 42.1501 8.64754e-05 40.1766L0.0763 30.8946Z" fill="white"/>
<path d="M48.6324 32.2423L58.8811 6.59047C59.4427 5.32692 60.622 4.36423 62.0018 4.29604C64.0957 4.19174 65.7564 5.84437 65.7564 7.84197L65.6882 50.4413L40.5297 40.2528V37.5051C45.1707 38.3715 47.3448 35.1345 48.6284 32.2383L48.6324 32.2423Z" fill="white"/>
<path d="M31.356 51.8734L16.6548 52.808C15.4153 52.8882 14.3644 51.9055 14.3644 50.662L14.4005 43.0246L31.356 51.8734Z" fill="white"/>
<path d="M96.0812 24.9539H98.5361V2.92018H94.4888L87.5854 20.0763H86.4904L79.6231 2.92018H75.5397V24.9539H77.9945V8.62818L77.6616 3.41758H77.7298L78.7928 6.93543L86.0571 24.9539H87.9184L95.2188 6.99961L96.2457 3.44967H96.3139L96.0812 8.69236V24.9539Z" fill="white"/>
<path d="M105.985 24.272C107.257 25.0341 108.801 25.4152 110.614 25.4152C112.427 25.4152 113.915 25.0382 115.211 24.2881C116.506 23.538 117.493 22.467 118.179 21.0871C118.865 19.7032 119.206 18.1188 119.206 16.3257C119.206 14.5327 118.869 12.8801 118.195 11.4962C117.521 10.1123 116.543 9.05337 115.259 8.31129C113.975 7.56921 112.451 7.20018 110.678 7.20018C108.905 7.20018 107.377 7.57723 106.081 8.32733C104.786 9.08145 103.795 10.1484 103.113 11.5283C102.427 12.9122 102.086 14.5087 102.086 16.3217C102.086 18.1348 102.419 19.7233 103.081 21.0831C103.743 22.4429 104.713 23.5059 105.985 24.268V24.272ZM104.673 16.1934C104.673 13.9591 105.171 12.2784 106.165 11.1512C106.695 10.5776 107.337 10.1324 108.091 9.82353C108.841 9.51466 109.695 9.35822 110.646 9.35822C111.597 9.35822 112.411 9.51867 113.153 9.83957C113.895 10.1605 114.517 10.6097 115.026 11.1833C115.556 11.7569 115.961 12.4669 116.238 13.3053C116.514 14.1476 116.651 15.1103 116.651 16.1934V16.3257C116.651 17.4328 116.531 18.4276 116.286 19.3101C116.041 20.1966 115.676 20.9266 115.191 21.5002C114.661 22.0538 113.999 22.479 113.217 22.7758C112.431 23.0727 111.553 23.2251 110.578 23.2251C109.671 23.2251 108.853 23.0526 108.123 22.7116C107.393 22.3707 106.763 21.9094 106.23 21.3358C105.191 20.1404 104.669 18.4718 104.669 16.3257V16.1934H104.673Z" fill="white"/>
<path d="M132.912 20.8705C132.182 21.6005 131.348 22.1822 130.405 22.6114C129.467 23.0446 128.452 23.2572 127.369 23.2572C126.198 23.2572 125.311 23.0045 124.713 22.495C124.116 21.9856 123.819 21.2114 123.819 20.1725C123.819 19.1336 124.16 18.3955 124.85 17.834C125.536 17.2684 126.575 16.8994 127.971 16.7229C128.147 16.7028 128.324 16.6787 128.5 16.6547C130.778 16.4341 132.206 16.2134 132.78 15.9928C132.78 15.9928 133.185 15.8123 133.679 15.5756V15.6278L133.711 21.071C133.711 22.1541 133.731 23.0446 133.779 23.7425C133.823 24.4405 133.923 24.8416 134.076 24.9539H136.928C136.727 24.7333 136.547 24.0955 136.382 23.0446C136.218 21.9936 136.133 20.8504 136.133 19.611V13.4738C136.133 11.4842 135.52 9.93985 134.292 8.84478C133.065 7.74971 131.312 7.20419 129.034 7.20419C127.505 7.20419 126.125 7.4248 124.886 7.86604C123.646 8.30728 122.507 9.00523 121.468 9.9559L123.426 11.5804C124.068 10.7822 124.826 10.1805 125.7 9.77138C126.575 9.36223 127.642 9.15766 128.901 9.15766C130.514 9.15766 131.721 9.53472 132.519 10.2848C133.318 11.0389 133.715 12.1861 133.715 13.7345V14.0995C133.602 14.3643 133.245 14.5608 132.636 14.6811C132.026 14.8015 130.947 14.9298 129.403 15.0622L127.742 15.1946C125.508 15.3951 123.831 15.9487 122.716 16.8552C121.597 17.7618 121.039 19.0133 121.039 20.6057C121.039 22.1982 121.525 23.3695 122.499 24.1878C123.474 25.0061 124.822 25.4152 126.547 25.4152C128.051 25.4152 129.379 25.0261 130.53 24.252C131.681 23.4778 132.475 22.3506 132.92 20.8665L132.912 20.8705Z" fill="white"/>
<path d="M147.144 16.6587L151.99 24.9539H154.91L148.673 14.633L147.987 14.0193L149.07 13.3053L154.645 7.63339H151.493L144.457 14.9338L142.896 16.767V0H140.377V24.9539H142.896V18.7245L145.753 15.9286L146.503 14.4244L147.144 16.6587Z" fill="white"/>
<path d="M168.58 8.31129C167.297 7.56921 165.773 7.20018 164 7.20018C162.227 7.20018 160.698 7.57723 159.403 8.32733C158.107 9.08145 157.116 10.1484 156.434 11.5283C155.748 12.9122 155.407 14.5087 155.407 16.3217C155.407 18.1348 155.74 19.7233 156.402 21.0831C157.064 22.4429 158.035 23.5059 159.306 24.268C160.578 25.0301 162.122 25.4112 163.935 25.4112C165.748 25.4112 167.237 25.0342 168.532 24.284C169.828 23.5339 170.815 22.4629 171.501 21.0831C172.186 19.6992 172.527 18.1148 172.527 16.3217C172.527 14.5287 172.191 12.8761 171.517 11.4922C170.843 10.1083 169.864 9.04936 168.58 8.30728V8.31129ZM169.976 16.3257C169.976 17.4329 169.856 18.4276 169.611 19.3101C169.367 20.1966 169.002 20.9266 168.516 21.5002C167.987 22.0538 167.325 22.479 166.543 22.7758C165.756 23.0727 164.878 23.2251 163.903 23.2251C162.997 23.2251 162.178 23.0526 161.448 22.7116C160.718 22.3707 160.089 21.9094 159.555 21.3358C158.516 20.1404 157.995 18.4718 157.995 16.3257V16.1934C157.995 13.9591 158.492 12.2784 159.487 11.1512C160.016 10.5776 160.658 10.1324 161.412 9.82353C162.162 9.51466 163.017 9.35822 163.967 9.35822C164.918 9.35822 165.732 9.51867 166.474 9.83957C167.217 10.1605 167.838 10.6097 168.348 11.1833C168.877 11.7569 169.282 12.4669 169.559 13.3053C169.836 14.1476 169.972 15.1103 169.972 16.1934V16.3257H169.976Z" fill="white"/>
<path d="M85.0624 43.1208H91.2036L91.4001 52.2785H93.6585V40.8986H85.0624V43.1208Z" fill="white"/>
<path d="M88.6645 48.9612C87.5694 49.9359 86.0251 50.4213 84.0355 50.4213C81.6689 50.4213 79.8879 49.6311 78.6925 48.0507C77.4972 46.4702 76.8995 44.2961 76.8995 41.5324V41.2997C76.8995 39.3984 77.2044 37.7538 77.8101 36.3739C78.4198 34.9901 79.2862 33.9311 80.4134 33.189C81.5405 32.4469 82.8482 32.0779 84.3283 32.0779C85.8967 32.0779 87.1883 32.4028 88.1952 33.0566C89.202 33.7105 89.9481 34.7093 90.4334 36.0611L93.0207 35.2628C92.2906 33.4698 91.1956 32.114 89.7355 31.1994C88.2754 30.2809 86.4944 29.8236 84.3925 29.8236C82.2906 29.8236 80.5658 30.2929 79.0174 31.2315C77.4691 32.1742 76.2697 33.5219 75.4153 35.2789C74.565 37.0358 74.1398 39.0895 74.1398 41.4361C74.1398 45.0422 74.9741 47.822 76.6468 49.7795C78.3155 51.737 80.6661 52.7157 83.6986 52.7157C85.4234 52.7157 86.8273 52.2905 87.9144 51.4361C88.9974 50.5858 89.7796 49.6351 90.2529 48.5842C90.7303 47.5332 91.0552 46.5665 91.2317 45.68C90.6139 46.8954 89.7555 47.9905 88.6605 48.9652L88.6645 48.9612Z" fill="white"/>
<path d="M103.494 35.3551C102.708 35.8204 101.994 36.394 101.352 37.0799C100.778 37.6776 100.245 38.4518 99.7595 39.4024H99.6592L99.3945 34.954H97.2365V52.2745H99.7916V39.5308C100.365 38.9772 101.212 38.5199 102.331 38.1549C103.446 37.7899 104.625 37.6094 105.865 37.6094H106.627V34.6571H105.929C105.086 34.6571 104.276 34.8898 103.49 35.3551H103.494Z" fill="white"/>
<path d="M120.137 35.6399C118.853 34.8978 117.329 34.5288 115.556 34.5288C113.783 34.5288 112.255 34.9058 110.959 35.6559C109.663 36.406 108.673 37.477 107.991 38.8569C107.305 40.2408 106.964 41.8372 106.964 43.6503C106.964 45.4634 107.297 47.0519 107.959 48.4117C108.62 49.7715 109.591 50.8345 110.863 51.5966C112.134 52.3587 113.679 52.7398 115.492 52.7398C117.305 52.7398 118.793 52.3627 120.089 51.6126C121.384 50.8625 122.371 49.7915 123.057 48.4117C123.743 47.0278 124.084 45.4433 124.084 43.6503C124.084 41.8573 123.747 40.2047 123.073 38.8208C122.399 37.4369 121.42 36.3779 120.137 35.6359V35.6399ZM121.529 43.6503C121.529 44.7574 121.408 45.7522 121.164 46.6347C120.919 47.5212 120.554 48.2512 120.068 48.8248C119.539 49.3784 118.877 49.8036 118.095 50.1044C117.309 50.4012 116.43 50.5537 115.456 50.5537C114.549 50.5537 113.731 50.3812 113.001 50.0402C112.271 49.6993 111.641 49.238 111.107 48.6644C110.068 47.469 109.547 45.8003 109.547 43.6543V43.522C109.547 41.2877 110.044 39.607 111.039 38.4798C111.569 37.9062 112.21 37.461 112.965 37.1521C113.715 36.8432 114.569 36.6868 115.52 36.6868C116.47 36.6868 117.285 36.8473 118.027 37.1682C118.769 37.4891 119.391 37.9383 119.9 38.5119C120.429 39.0855 120.835 39.7955 121.111 40.6339C121.388 41.4762 121.525 42.4389 121.525 43.522V43.6543L121.529 43.6503Z" fill="white"/>
<path d="M141.404 46.0089V34.958H138.785V48.893C138.717 48.9371 138.653 48.9772 138.584 49.0093C138.516 49.0414 138.452 49.0695 138.384 49.0936C137.586 49.5148 136.795 49.8637 136.013 50.1405C135.231 50.4173 134.336 50.5537 133.342 50.5537C131.97 50.5537 130.995 50.2207 130.422 49.5589C130.157 49.25 129.96 48.7727 129.84 48.1309C129.72 47.4891 129.655 46.5946 129.655 45.4433V34.958H127.068V45.7081C127.068 47.1922 127.16 48.3675 127.349 49.242C127.537 50.1164 127.874 50.8184 128.36 51.3479C128.825 51.8332 129.355 52.1903 129.952 52.4109C130.55 52.6315 131.3 52.7438 132.207 52.7438C133.578 52.7438 134.83 52.3908 135.957 51.6808C137.084 50.9748 138.047 50.0763 138.845 48.9933C138.821 49.7233 138.841 50.4052 138.893 51.035C138.949 51.6648 139.042 52.0819 139.174 52.2785H141.829C141.673 51.8373 141.565 51.1112 141.497 50.1044C141.428 49.0976 141.396 47.7338 141.396 46.0049L141.404 46.0089Z" fill="white"/>
<path d="M159.92 36.6507C159.347 35.9889 158.637 35.4714 157.798 35.1064C156.956 34.7414 155.993 34.5609 154.91 34.5609C153.494 34.5609 152.255 34.8777 151.192 35.5075C150.157 36.1212 149.206 36.9957 148.336 38.1268L148.203 34.958H145.849V59.246H148.404V49.4867C149.134 50.4454 150.024 51.2276 151.091 51.8132C152.219 52.4309 153.49 52.7438 154.906 52.7438C155.901 52.7438 156.803 52.5793 157.61 52.2464C158.416 51.9135 159.098 51.4402 159.651 50.8184C160.337 50.0683 160.875 49.1136 161.26 47.9664C161.645 46.8152 161.85 45.3792 161.874 43.6543C161.874 41.8613 161.697 40.4213 161.344 39.3222C160.991 38.2271 160.514 37.3366 159.916 36.6507H159.92ZM157.899 48.9933C157.501 49.4787 156.976 49.8718 156.322 50.1726C155.668 50.4694 154.902 50.6219 154.016 50.6219C152.933 50.6219 151.894 50.4855 150.895 50.2087C149.944 49.944 149.114 49.6632 148.404 49.3704V38.167L149.002 37.8822C149.776 37.5492 150.57 37.2805 151.392 37.0679C152.211 36.8593 153.005 36.751 153.783 36.751C154.802 36.751 155.64 36.8793 156.306 37.1321C156.968 37.3848 157.509 37.7578 157.931 38.2432C158.372 38.7526 158.705 39.4265 158.925 40.2688C159.146 41.1112 159.266 42.2384 159.29 43.6543C159.29 46.1774 158.825 47.9584 157.899 48.9973V48.9933Z" fill="white"/>
<path d="M176.667 2.92419C176.446 2.52307 176.134 2.21421 175.736 1.98958C175.339 1.76896 174.886 1.65664 174.377 1.65664C173.867 1.65664 173.398 1.76896 173.001 1.98958C172.604 2.21019 172.295 2.51906 172.074 2.92018C171.854 3.3173 171.745 3.77859 171.745 4.29604C171.745 4.81349 171.854 5.26676 172.074 5.66387C172.295 6.06098 172.604 6.36985 173.001 6.59047C173.398 6.81109 173.855 6.91939 174.377 6.91939C174.898 6.91939 175.339 6.81109 175.736 6.59047C176.134 6.36985 176.442 6.06098 176.667 5.66387C176.888 5.26676 177 4.80948 177 4.29604C177 3.7826 176.888 3.32532 176.667 2.92419ZM176.394 5.50342C176.202 5.8524 175.929 6.12516 175.576 6.3177C175.223 6.51024 174.822 6.60651 174.377 6.60651C173.931 6.60651 173.51 6.51024 173.161 6.3177C172.808 6.12516 172.535 5.8524 172.339 5.50342C172.142 5.15444 172.046 4.75332 172.046 4.30005C172.046 3.84678 172.142 3.44164 172.339 3.08866C172.535 2.73567 172.808 2.45889 173.161 2.26635C173.514 2.07381 173.919 1.97754 174.377 1.97754C174.834 1.97754 175.223 2.07381 175.572 2.27036C175.921 2.46691 176.194 2.73968 176.39 3.09267C176.587 3.44566 176.683 3.84678 176.683 4.30005C176.683 4.75332 176.587 5.15444 176.394 5.50342Z" fill="white"/>
<path d="M173.727 3.49379C173.895 3.30927 174.116 3.21702 174.385 3.21702C174.585 3.21702 174.754 3.26515 174.89 3.35741C175.026 3.45368 175.123 3.60611 175.175 3.8187L175.612 3.78661C175.54 3.46571 175.395 3.22504 175.179 3.0686C174.962 2.91216 174.698 2.83194 174.381 2.83194C174.12 2.83194 173.887 2.8921 173.683 3.01244C173.478 3.13278 173.314 3.30125 173.193 3.52588C173.073 3.75051 173.013 4.00723 173.013 4.30807C173.013 4.60892 173.073 4.8536 173.189 5.07422C173.306 5.29484 173.47 5.46331 173.675 5.58365C173.879 5.70398 174.116 5.76415 174.373 5.76415C174.673 5.76415 174.93 5.69596 175.147 5.55557C175.359 5.41517 175.508 5.19055 175.592 4.88569L175.195 4.78541C175.135 4.99801 175.034 5.15444 174.898 5.2467C174.762 5.34297 174.589 5.3871 174.385 5.3871C174.12 5.3871 173.903 5.29484 173.735 5.10631C173.566 4.91778 173.482 4.66106 173.482 4.32813V4.26796C173.482 3.93102 173.566 3.67029 173.735 3.48978L173.727 3.49379Z" fill="white"/>
</g>
<defs>
<clipPath id="clip0_1_4">
<rect width="177" height="59.246" fill="white"/>
</clipPath>
</defs>
</svg>
