<svg width="851" height="329" viewBox="0 0 851 329" fill="none" xmlns="http://www.w3.org/2000/svg">
<path d="M101.6 27.912C101.344 28.936 100.832 29.576 100.064 29.832C93.472 32.84 87.008 34.792 80.672 35.688C80.416 35.816 80.192 35.88 80 35.88C76.032 36.968 71.648 39.656 66.848 43.944C62.048 48.232 57.28 54.696 52.544 63.336C48.576 70.632 44.64 77.896 40.736 85.128C30.752 101.32 21.76 109.896 13.76 110.856C10.24 111.304 8.48 109.096 8.48 104.232C8.48 102.248 8.8 99.912 9.44 97.224C11.36 89.096 15.008 81.192 20.384 73.512L21.632 72.168C22.272 71.72 23.008 71.624 23.84 71.88C24.096 71.944 24.48 72.456 24.992 73.416C25.568 75.144 25.952 76.2 26.144 76.584C26.72 77.8 27.392 78.568 28.16 78.888C28.672 79.208 29.28 79.368 29.984 79.368C31.84 79.368 34.016 78.408 36.512 76.488C37.216 75.976 37.696 76.072 37.952 76.776C38.272 77.224 38.176 77.672 37.664 78.12C34.08 81.256 30.88 82.824 28.064 82.824C27.168 82.824 26.368 82.632 25.664 82.248C23.36 80.968 21.856 78.984 21.152 76.296C17.76 81.16 15.328 86.184 13.856 91.368C12.96 94.504 12.512 97.16 12.512 99.336C12.512 101.448 12.896 103.336 13.664 105C14.368 105.704 15.232 106.056 16.256 106.056C19.264 106.056 22.976 103.72 27.392 99.048C31.808 94.376 36.064 88.392 40.16 81.096C43.68 74.696 47.2 68.296 50.72 61.896C53.856 56.712 56.128 53.096 57.536 51.048C60.352 47.08 63.104 43.944 65.792 41.64C68.8 39.08 71.328 37.224 73.376 36.072C69.6 36.072 66.144 35.624 63.008 34.728C60.832 34.024 58.656 33.32 56.48 32.616C53.792 31.848 51.392 31.464 49.28 31.464C45.824 31.464 42.4 32.488 39.008 34.536C36.896 35.816 35.328 37.928 34.304 40.872C33.92 41.96 34.176 42.632 35.072 42.888C35.52 43.016 36 43.08 36.512 43.08C37.792 43.08 39.296 42.504 41.024 41.352C42.816 40.2 44.576 39.016 46.304 37.8C46.88 37.416 47.296 37.32 47.552 37.512C48 37.896 47.84 38.44 47.072 39.144C44.192 41.832 41.056 44.104 37.664 45.96C36.192 46.728 34.88 47.112 33.728 47.112C31.552 47.112 30.464 45.96 30.464 43.656C30.464 43.144 30.528 42.568 30.656 41.928C31.488 38.152 34.144 34.856 38.624 32.04C42.464 29.672 46.4 28.488 50.432 28.488C52.16 28.488 56.896 29.48 64.64 31.464C67.84 32.296 71.232 32.712 74.816 32.712C82.688 32.712 91.04 30.696 99.872 26.664C101.024 26.472 101.6 26.888 101.6 27.912ZM126.498 2.472C126.306 3.432 125.826 4.488 125.058 5.64C121.986 10.312 117.89 15.912 112.77 22.44C107.842 28.712 102.946 34.952 98.0821 41.16C88.3541 53.832 82.2741 61.832 79.8421 65.16C73.9541 73.032 68.3221 80.936 62.9461 88.872C68.8981 83.688 74.7221 79.592 80.4181 76.584C82.2101 75.624 83.6501 75.496 84.7381 76.2C85.1221 76.392 85.6341 77.224 86.2741 78.696C86.3381 79.08 86.3701 79.496 86.3701 79.944C86.3701 81.352 85.7301 84.04 84.4501 88.008C83.2341 91.976 82.6261 94.824 82.6261 96.552C82.6261 99.176 83.6501 100.968 85.6981 101.928C86.9781 102.504 88.4821 102.44 90.2101 101.736C93.4741 100.392 97.1541 97.992 101.25 94.536C101.506 94.344 101.794 94.344 102.114 94.536C102.498 94.728 102.53 94.952 102.21 95.208C97.3461 99.624 93.8261 102.536 91.6501 103.944C88.9621 105.672 86.8181 106.472 85.2181 106.344C80.9301 106.024 78.5301 103.176 78.0181 97.8C77.8901 96.328 78.5301 93.352 79.9381 88.872C81.4101 84.392 82.1461 81.608 82.1461 80.52C82.1461 79.688 81.8581 79.24 81.2821 79.176C70.4021 85.448 62.0821 92.04 56.3221 98.952C54.7861 101.256 53.6341 103.016 52.8661 104.232L52.1941 105C51.6821 105.576 51.1381 105.64 50.5621 105.192C50.0501 104.808 49.9221 104.36 50.1781 103.848L50.8501 102.12C52.0661 100.264 53.4101 98.504 54.8821 96.84C56.2901 94.472 58.6581 90.632 61.9861 85.32C65.7621 79.624 71.0101 72.232 77.7301 63.144C85.1541 53.096 89.9541 46.472 92.1301 43.272C100.45 31.112 107.522 21.032 113.346 13.032C116.738 8.36 120.386 4.328 124.29 0.935998C124.482 0.744 124.77 0.648002 125.154 0.648002C126.178 0.648002 126.626 1.256 126.498 2.472ZM137.997 94.248C135.245 97.064 131.629 99.592 127.149 101.832C125.485 102.664 122.765 103.528 118.989 104.424C114.829 105.384 111.405 105.864 108.717 105.864C100.333 105.864 96.3007 103.176 96.6207 97.8C96.6847 96.52 97.1647 95.208 98.0607 93.864C100.813 89.64 105.485 85.768 112.077 82.248C118.733 78.728 124.429 77.224 129.165 77.736C129.421 77.928 129.741 78.184 130.125 78.504C130.317 78.696 130.349 78.952 130.221 79.272L129.933 80.136C129.741 80.392 129.421 80.808 128.973 81.384C128.717 81.576 127.949 82.216 126.669 83.304C119.693 86.696 111.661 90.152 102.573 93.672C101.677 94.44 100.973 95.752 100.461 97.608C100.909 100.68 103.949 102.408 109.581 102.792C111.245 102.92 113.901 102.696 117.549 102.12C121.261 101.48 123.917 100.84 125.517 100.2C129.869 98.408 133.581 96.168 136.653 93.48C136.973 93.16 137.357 93.16 137.805 93.48C138.253 93.672 138.317 93.928 137.997 94.248ZM126.861 80.424C126.861 80.104 126.029 80.04 124.365 80.232C116.365 82.216 109.805 85.768 104.685 90.888C112.301 87.944 119.021 85.032 124.845 82.152C126.189 81.192 126.861 80.616 126.861 80.424ZM241.861 32.328C241.861 33.544 241.381 34.952 240.421 36.552C234.917 42.952 228.261 48.616 220.453 53.544C229.989 53.544 235.365 56.776 236.581 63.24C236.645 64.2 236.677 65.192 236.677 66.216C236.677 72.616 235.077 79.048 231.877 85.512C228.741 91.976 224.677 97.224 219.685 101.256C210.917 108.296 201.989 111.816 192.901 111.816C187.589 111.816 183.045 110.312 179.269 107.304C176.837 104.808 175.621 101.512 175.621 97.416C175.621 95.624 175.909 93.768 176.485 91.848C177.957 86.92 182.661 83.144 190.597 80.52C196.805 70.216 202.021 62.216 206.245 56.52L209.509 52.104C213.093 46.984 218.405 39.336 225.445 29.16C214.117 35.944 202.885 39.336 191.749 39.336C190.149 39.336 188.485 39.272 186.757 39.144C186.373 39.144 186.181 38.92 186.181 38.472C186.181 37.96 186.373 37.704 186.757 37.704C200.709 38.152 214.981 33.256 229.573 23.016L230.533 22.344L230.725 22.248C231.109 22.056 231.493 22.056 231.877 22.248C232.261 22.504 232.421 22.856 232.357 23.304C232.293 23.624 232.101 24.04 231.781 24.552C230.053 27.112 227.397 30.824 223.813 35.688C228.229 32.168 232.709 29.992 237.253 29.16C238.405 28.968 239.461 29.192 240.421 29.832C241.381 30.408 241.861 31.24 241.861 32.328ZM236.869 35.976C237.125 35.272 237.093 34.664 236.773 34.152C236.453 33.576 235.973 33.352 235.333 33.48C230.277 34.504 225.669 37.032 221.509 41.064C218.565 43.88 215.045 48.36 210.949 54.504L210.565 55.08C211.205 54.952 212.197 54.696 213.541 54.312C218.021 52.008 222.629 48.968 227.365 45.192C229.157 43.784 230.981 42.408 232.837 41.064C234.501 39.656 235.845 37.96 236.869 35.976ZM233.125 64.392C232.805 59.4 228.965 56.904 221.605 56.904C219.045 56.904 216.453 57.224 213.829 57.864C212.933 58.12 211.557 58.568 209.701 59.208L208.837 59.496C208.645 59.56 208.325 59.528 207.877 59.4C203.717 66.504 199.525 73.576 195.301 80.616C190.437 88.68 185.925 95.4 181.765 100.776L180.901 101.64L182.053 102.984C185.637 105.8 189.829 107.208 194.629 107.208C202.501 107.208 210.149 104.136 217.573 97.992C222.629 93.768 226.565 88.68 229.381 82.728C232.261 76.712 233.509 70.6 233.125 64.392ZM188.005 84.84C182.437 87.784 179.813 91.624 180.133 96.36L180.229 97.704C181.957 94.888 184.549 90.6 188.005 84.84ZM273.7 94.248C270.948 97.064 267.332 99.592 262.852 101.832C261.188 102.664 258.468 103.528 254.692 104.424C250.532 105.384 247.108 105.864 244.42 105.864C236.036 105.864 232.004 103.176 232.324 97.8C232.388 96.52 232.868 95.208 233.764 93.864C236.516 89.64 241.188 85.768 247.78 82.248C254.436 78.728 260.132 77.224 264.868 77.736C265.124 77.928 265.444 78.184 265.828 78.504C266.02 78.696 266.052 78.952 265.924 79.272L265.636 80.136C265.444 80.392 265.124 80.808 264.676 81.384C264.42 81.576 263.652 82.216 262.372 83.304C255.396 86.696 247.364 90.152 238.276 93.672C237.38 94.44 236.676 95.752 236.164 97.608C236.612 100.68 239.652 102.408 245.284 102.792C246.948 102.92 249.604 102.696 253.252 102.12C256.964 101.48 259.62 100.84 261.22 100.2C265.572 98.408 269.284 96.168 272.356 93.48C272.676 93.16 273.06 93.16 273.508 93.48C273.956 93.672 274.02 93.928 273.7 94.248ZM262.564 80.424C262.564 80.104 261.732 80.04 260.068 80.232C252.068 82.216 245.508 85.768 240.388 90.888C248.004 87.944 254.724 85.032 260.548 82.152C261.892 81.192 262.564 80.616 262.564 80.424ZM307.427 94.728C306.083 96.136 304.707 97.544 303.299 98.952C300.547 101.576 298.275 103.24 296.483 103.944C295.267 104.392 293.123 104.968 290.051 105.672C287.875 107.528 285.091 108.392 281.699 108.264C278.243 108.136 276.547 106.92 276.611 104.616C276.675 102.44 278.307 101.352 281.507 101.352C281.315 101.352 282.979 101.864 286.499 102.888C288.547 101.672 289.923 99.208 290.627 95.496C290.563 92.424 290.531 88.584 290.531 83.976C290.659 83.272 290.819 82.12 291.011 80.52C285.315 85.128 277.475 91.464 267.491 99.528C267.427 99.592 267.235 99.56 266.915 99.432C266.531 99.304 266.307 99.176 266.243 99.048C266.307 98.408 266.403 98.024 266.531 97.896C273.571 92.072 279.715 87.112 284.963 83.016C286.755 81.416 288.835 79.592 291.203 77.544C291.587 76.264 292.419 75.08 293.699 73.992C294.979 72.84 296.259 72.264 297.539 72.264C298.563 72.2 299.203 72.84 299.459 74.184C299.651 75.336 299.203 76.2 298.115 76.776C297.091 77.352 295.779 78.12 294.179 79.08C293.539 80.104 293.219 81.608 293.219 83.592C293.219 84.744 293.379 86.6 293.699 89.16C294.019 91.656 294.179 93.448 294.179 94.536C294.179 98.312 293.315 101.224 291.587 103.272C293.315 103.016 294.819 102.568 296.099 101.928C300.899 99.56 304.483 96.904 306.851 93.96C307.043 93.704 307.267 93.704 307.523 93.96C307.715 94.216 307.683 94.472 307.427 94.728ZM370.845 52.488C371.421 53.192 371.357 53.736 370.653 54.12C370.077 54.76 369.501 55.304 368.925 55.752C362.077 59.656 354.077 61.608 344.925 61.608C342.429 61.608 339.741 61.48 336.861 61.224C335.901 62.76 334.749 64.552 333.405 66.6C328.861 74.024 324.317 81.448 319.773 88.872C314.013 98.152 308.573 105.032 303.453 109.512C302.365 110.472 301.437 110.504 300.669 109.608C300.413 109.352 300.285 109.032 300.285 108.648C300.285 107.88 300.861 107.016 302.013 106.056C306.813 101.832 312.029 95.528 317.661 87.144C322.141 80.04 326.621 72.904 331.101 65.736C332.189 64.008 333.149 62.44 333.981 61.032C332.765 60.776 331.517 60.616 330.237 60.552C327.741 60.232 321.757 59.08 312.285 57.096C304.925 55.496 299.133 54.696 294.909 54.696C288.637 54.696 283.453 56.2 279.357 59.208C279.421 59.272 280.957 59.528 283.965 59.976C284.093 60.04 284.285 60.2 284.541 60.456C284.541 60.776 284.413 60.968 284.157 61.032C282.429 61.672 280.413 61.992 278.109 61.992C275.741 61.992 274.525 61.512 274.461 60.552C274.397 59.848 274.941 59.016 276.093 58.056C281.469 54.344 287.997 52.488 295.677 52.488C299.709 52.488 304.797 53.032 310.941 54.12C315.997 55.08 321.053 56.04 326.109 57C328.221 57.192 331.389 57.544 335.613 58.056C339.453 51.208 343.357 46.056 347.325 42.6L346.941 42.792C347.965 41.768 348.797 41.608 349.437 42.312C350.141 43.08 350.013 43.912 349.053 44.808C346.109 47.56 342.685 51.976 338.781 58.056C342.045 58.248 345.821 58.216 350.109 57.96C353.757 57.768 360.061 55.784 369.021 52.008C369.917 51.624 370.525 51.784 370.845 52.488ZM87.872 187.48C86.976 191.448 84.736 197.144 81.152 204.568C77.44 212.376 75.104 218.104 74.144 221.752C73.632 223.672 73.376 226.168 73.376 229.24C73.376 236.856 74.752 241.912 77.504 244.408C78.912 245.24 79.424 246.104 79.04 247C78.784 247.576 78.24 247.928 77.408 248.056C76.96 248.12 76.384 248.056 75.68 247.864C72.096 245.944 70.304 240.92 70.304 232.792C70.304 228.312 70.816 224.248 71.84 220.6C73.184 215.736 76.512 207.032 81.824 194.488C83.168 191.352 83.84 188.568 83.84 186.136C83.84 184.728 83.488 183.96 82.784 183.832C81.12 183.512 78.176 184.888 73.952 187.96C69.792 191.032 66.4 194.232 63.776 197.56C58.208 204.664 53.504 211.992 49.664 219.544C47.936 222.872 45.312 227.928 41.792 234.712C40.96 236.632 39.936 237.592 38.72 237.592C38.528 237.592 38.368 237.56 38.24 237.496C37.344 236.984 37.216 235.928 37.856 234.328C38.176 233.752 38.496 233.016 38.816 232.12C39.904 230.136 41.472 227.16 43.52 223.192C51.264 207.832 58.496 191.608 65.216 174.52C66.24 171.832 66.752 169.72 66.752 168.184C66.752 167.288 66.176 166.84 65.024 166.84C62.336 166.84 58.816 168.088 54.464 170.584C49.664 173.336 45.472 176.76 41.888 180.856C38.368 188.472 34.944 195.48 31.616 201.88C27.904 209.88 22.336 221.4 14.912 236.44C14.784 236.888 14.24 237.4 13.28 237.976C12.96 238.296 12.416 238.424 11.648 238.36C10.816 238.36 10.272 238.2 10.016 237.88C9.184 237.24 9.216 236.472 10.112 235.576C17.92 221.88 28.448 201.432 41.696 174.232C48.16 160.984 51.392 151.256 51.392 145.048C51.392 143.064 51.008 141.496 50.24 140.344C48.768 138.104 45.12 136.824 39.296 136.504C29.248 135.992 19.904 140.12 11.264 148.888C7.552 152.664 5.696 156.248 5.696 159.64C5.696 160.536 5.824 161.4 6.08 162.232C7.104 164.152 8.992 165.112 11.744 165.112C13.088 165.112 14.496 164.824 15.968 164.248C16.608 164.184 16.992 164.472 17.12 165.112C17.184 165.56 16.928 165.944 16.352 166.264C12.832 167.608 9.888 168.28 7.52 168.28C4.512 168.28 2.432 167.224 1.28 165.112C0.768 164.152 0.512 163.096 0.512 161.944C0.512 159 2.176 155.448 5.504 151.288C9.792 145.976 15.168 141.4 21.632 137.56C27.584 134.04 33.664 132.28 39.872 132.28C45.76 132.28 50.304 134.008 53.504 137.464C54.464 138.936 54.944 140.888 54.944 143.32C54.944 147.672 52.096 156.792 46.4 170.68C45.824 172.152 45.312 173.304 44.864 174.136C51.776 167.224 59.072 162.904 66.752 161.176C69.504 160.536 71.136 160.92 71.648 162.328C71.968 163.224 72.128 164.216 72.128 165.304C72.128 166.968 71.552 169.4 70.4 172.6C68.8 176.824 64.768 186.104 58.304 200.44C64.96 192.632 68.64 188.344 69.344 187.576C74.08 182.84 78.72 179.96 83.264 178.936C83.648 178.872 84 178.84 84.32 178.84C86.24 178.84 87.424 180.12 87.872 182.68C88.192 184.472 88.192 186.072 87.872 187.48ZM135.403 224.44C131.883 228.344 128.811 231.256 126.187 233.176C124.075 234.712 121.739 235.48 119.179 235.48C118.667 235.48 118.155 235.448 117.643 235.384C115.467 235.064 114.027 233.944 113.323 232.024C112.939 230.936 112.747 229.88 112.747 228.856C112.747 227.128 113.515 224.824 115.051 221.944C113.131 223.544 109.963 225.848 105.547 228.856C103.179 230.264 99.4989 232.152 94.5069 234.52C91.9469 235.48 89.8029 235.96 88.0749 235.96C86.4109 235.96 85.2269 235.576 84.5229 234.808C83.1789 233.4 82.9869 231.64 83.9469 229.528C85.8029 225.368 89.2589 221.624 94.3149 218.296C101.355 213.624 107.755 211 113.515 210.424C113.835 210.296 114.059 210.456 114.187 210.904C114.187 211.288 113.963 211.48 113.515 211.48C105.835 213.784 99.9789 216.44 95.9469 219.448C94.4109 220.472 92.2989 222.296 89.6109 224.92C87.8189 227.224 87.0509 229.048 87.3069 230.392C87.4349 231.032 87.9149 231.416 88.7469 231.544C91.5629 231.928 94.4429 231.416 97.3869 230.008C103.211 227.192 107.883 224.632 111.403 222.328C116.139 219.256 120.523 215.096 124.555 209.848C125.323 208.888 125.931 208.696 126.379 209.272C126.955 209.976 126.923 210.648 126.283 211.288C125.451 212.184 124.075 213.656 122.155 215.704C120.811 217.496 120.011 218.744 119.755 219.448C117.387 223.16 116.203 226.424 116.203 229.24C116.203 229.688 116.235 230.136 116.299 230.584C116.427 231.864 117.419 232.728 119.275 233.176C120.875 233.56 122.667 233.24 124.651 232.216C128.363 229.72 131.755 226.936 134.827 223.864C135.019 223.672 135.179 223.64 135.307 223.768C135.627 223.96 135.659 224.184 135.403 224.44ZM195.432 157.144C195.432 157.272 195.4 157.496 195.336 157.816L195.048 158.104C193.768 161.496 189.288 167.288 181.608 175.48C173.16 184.504 167.912 190.104 165.864 192.28C158.824 199.512 153.672 204.472 150.408 207.16C149.256 208.696 148.52 209.688 148.2 210.136C148.2 210.136 148.2 210.168 148.2 210.232C148.136 210.296 148.072 210.36 148.008 210.424C147.56 210.936 146.76 211.928 145.608 213.4C145.416 213.656 145.16 214.008 144.84 214.456C146.888 212.984 149.128 211.448 151.56 209.848C156.68 206.52 159.272 204.824 159.336 204.76C162.088 203.224 164.84 202.264 167.592 201.88C169.128 201.816 169.992 202.008 170.184 202.456C170.44 203.16 170.088 204.248 169.128 205.72C168.936 205.976 168.264 206.648 167.112 207.736C165.96 208.76 164.008 209.88 161.256 211.096C157.672 212.632 154.248 213.496 150.984 213.688C150.792 213.752 150.248 214.136 149.352 214.84C148.328 216.952 147.912 219.032 148.104 221.08C148.296 223.576 149.032 225.656 150.312 227.32C153.128 230.968 155.816 232.792 158.376 232.792C162.024 232.792 164.424 232.504 165.576 231.928C169.224 230.136 172.872 227.672 176.52 224.536C176.776 224.344 177.064 224.344 177.384 224.536C177.768 224.728 177.8 224.952 177.48 225.208C172.616 229.624 169.096 232.536 166.92 233.944C164.488 235.48 161.96 236.248 159.336 236.248C154.088 236.248 149.832 233.432 146.568 227.8C145.16 225.368 144.488 223.064 144.552 220.888C144.616 219.416 144.872 218.072 145.32 216.856C141.608 219.544 138.856 221.784 137.064 223.576C134.12 227.352 130.6 231.832 126.504 237.016C125.8 237.848 125.192 238.008 124.68 237.496C124.424 237.112 124.296 236.728 124.296 236.344C124.296 236.152 124.392 235.928 124.584 235.672C124.776 235.416 124.872 235.224 124.872 235.096C128.84 230.04 134.728 222.584 142.536 212.728C144.776 209.784 148.136 205.4 152.616 199.576C158.44 192.152 164.392 184.216 170.472 175.768C178.6 164.44 185.928 157.432 192.456 154.744L193.224 154.648C193.992 154.392 194.44 154.552 194.568 155.128L195.336 155.704C195.336 155.832 195.368 156.12 195.432 156.568V157.144ZM191.688 159.544V159.448L191.112 158.68L189.384 159.544C185.544 161.464 180.424 166.872 174.024 175.768C168.264 183.128 161.608 191.704 154.056 201.496C157.512 198.616 163.24 192.856 171.24 184.216C178.984 175.896 184.552 169.528 187.944 165.112C189.48 163.128 190.472 161.688 190.92 160.792C190.984 160.792 191.016 160.824 191.016 160.888L191.688 159.544ZM166.632 204.568C163.56 205.208 159.432 207.16 154.248 210.424C157.64 209.912 160.872 208.792 163.944 207.064C164.712 206.616 165.608 205.784 166.632 204.568ZM214.919 224.248C212.167 227.064 208.551 229.592 204.071 231.832C202.407 232.664 199.687 233.528 195.911 234.424C191.751 235.384 188.327 235.864 185.639 235.864C177.255 235.864 173.223 233.176 173.543 227.8C173.607 226.52 174.087 225.208 174.983 223.864C177.735 219.64 182.407 215.768 188.999 212.248C195.655 208.728 201.351 207.224 206.087 207.736C206.343 207.928 206.663 208.184 207.047 208.504C207.239 208.696 207.271 208.952 207.143 209.272L206.855 210.136C206.663 210.392 206.343 210.808 205.895 211.384C205.639 211.576 204.871 212.216 203.591 213.304C196.615 216.696 188.583 220.152 179.495 223.672C178.599 224.44 177.895 225.752 177.383 227.608C177.831 230.68 180.871 232.408 186.503 232.792C188.167 232.92 190.823 232.696 194.471 232.12C198.183 231.48 200.839 230.84 202.439 230.2C206.791 228.408 210.503 226.168 213.575 223.48C213.895 223.16 214.279 223.16 214.727 223.48C215.175 223.672 215.239 223.928 214.919 224.248ZM203.783 210.424C203.783 210.104 202.951 210.04 201.287 210.232C193.287 212.216 186.727 215.768 181.607 220.888C189.223 217.944 195.943 215.032 201.767 212.152C203.111 211.192 203.783 210.616 203.783 210.424ZM252.678 225.208C248.902 228.664 245.446 231.384 242.31 233.368C239.878 234.904 237.478 235.672 235.11 235.672C232.678 235.672 231.014 235.16 230.118 234.136C228.39 232.216 228.326 229.72 229.926 226.648C227.622 229.016 224.934 231.16 221.862 233.08C218.534 235.064 215.75 236.12 213.51 236.248C211.782 236.376 210.406 235.832 209.382 234.616C208.486 233.592 208.166 232.504 208.422 231.352C208.87 229.112 210.95 225.528 214.662 220.6C216.902 217.784 219.174 214.968 221.478 212.152C222.63 210.744 223.622 210.296 224.454 210.808C224.71 211 224.838 211.192 224.838 211.384C224.838 211.448 224.166 212.312 222.822 213.976C221.286 215.768 219.75 217.528 218.214 219.256C215.718 222.456 213.83 225.656 212.55 228.856C212.422 229.112 212.358 229.368 212.358 229.624C212.358 231.48 213.606 232.376 216.102 232.312C219.686 232.184 223.91 229.688 228.774 224.824C232.87 220.28 236.966 215.704 241.062 211.096C241.382 210.712 241.798 210.52 242.31 210.52C243.398 210.52 243.942 210.968 243.942 211.864C243.942 212.056 243.878 212.248 243.75 212.44C242.982 213.4 241.51 215.128 239.334 217.624C236.582 220.76 234.406 224.024 232.806 227.416C232.614 227.864 232.518 228.408 232.518 229.048C232.518 231.48 233.766 232.696 236.262 232.696C238.054 232.696 239.59 232.344 240.87 231.64C245.542 229.08 249.158 226.712 251.718 224.536C251.974 224.344 252.262 224.344 252.582 224.536C252.966 224.728 252.998 224.952 252.678 225.208ZM292.834 224.44C288.098 228.792 284.546 231.704 282.178 233.176C277.506 236.12 271.65 237.464 264.61 237.208C261.858 237.08 259.458 236.6 257.41 235.768C253.762 237.112 250.882 237.528 248.77 237.016C246.082 242.84 242.05 251.384 236.674 262.648C235.266 265.4 232.386 271.352 228.034 280.504C222.85 290.68 214.978 306.104 204.418 326.776L204.226 326.584L203.746 328.024C203.49 328.856 202.914 329.112 202.018 328.792C201.25 328.472 200.962 327.928 201.154 327.16L201.25 327.064L201.442 326.008C204.258 319.672 208.066 311.8 212.866 302.392C219.074 290.232 223.042 282.392 224.77 278.872C230.786 266.84 236.77 254.808 242.722 242.776C250.082 227.864 255.65 215.672 259.426 206.2C259.49 206.008 259.81 205.784 260.386 205.528C260.834 205.4 261.25 205.496 261.634 205.816C260.226 211.064 258.178 216.792 255.49 223C262.018 215.192 270.274 209.592 280.258 206.2C281.41 205.816 282.626 205.72 283.906 205.912C284.994 206.104 285.762 206.648 286.21 207.544C286.594 208.312 286.466 209.592 285.826 211.384C284.738 214.456 281.954 218.264 277.474 222.808C272.61 227.736 267.746 231.384 262.882 233.752C263.842 234.456 264.994 234.808 266.338 234.808C272.93 234.808 277.698 233.944 280.642 232.216C284.994 229.656 288.93 226.872 292.45 223.864C292.578 223.736 292.674 223.704 292.738 223.768C293.122 223.96 293.154 224.184 292.834 224.44ZM282.562 210.04C282.69 209.656 282.498 209.4 281.986 209.272C281.538 209.208 281.09 209.24 280.642 209.368C269.698 213.08 259.97 220.376 251.458 231.256C253.57 230.68 256.13 230.872 259.138 231.832C261.57 231.32 264.098 230.136 266.722 228.28C275.426 222.136 280.706 216.056 282.562 210.04ZM423.236 162.136C413.7 176.984 405.124 190.584 397.508 202.936C395.012 207.032 393.156 211.064 391.94 215.032C390.148 221.048 389.252 224.792 389.252 226.264C389.252 228.696 389.988 230.584 391.46 231.928C392.036 232.44 392.74 232.696 393.572 232.696C397.86 232.696 403.204 230.008 409.604 224.632C409.732 224.568 409.86 224.504 409.988 224.44C410.18 224.504 410.34 224.568 410.468 224.632C411.044 224.888 411.076 225.272 410.564 225.784C402.692 233.4 396.26 237.208 391.268 237.208C388.196 237.208 386.116 235.832 385.028 233.08C384.644 231.736 384.452 230.296 384.452 228.76C384.452 227.544 385.188 223.448 386.66 216.472C391.204 206.552 395.556 198.424 399.716 192.088C397.668 194.52 395.204 197.112 392.324 199.864C388.74 203.256 385.732 206.296 383.3 208.984C378.82 213.912 372.356 219.576 363.908 225.976C356.1 231.928 352.132 234.936 352.004 235C347.524 237.816 342.948 239.096 338.276 238.84C336.548 238.776 335.108 237.912 333.956 236.248C332.868 234.584 332.452 232.76 332.708 230.776C334.82 215.672 346.18 199.608 366.788 182.584C373.764 176.824 384.004 170.584 397.508 163.864C403.46 160.92 408.452 159.448 412.484 159.448C413.892 159.448 414.596 159.832 414.596 160.6C414.596 161.624 414.212 162.072 413.444 161.944C410.308 161.496 405.284 162.936 398.372 166.264C388.644 171 379.844 176.408 371.972 182.488C362.628 189.72 355.588 196.248 350.852 202.072C344.9 209.368 340.644 217.688 338.084 227.032C337.956 227.544 337.892 228.056 337.892 228.568C337.892 229.976 338.372 231.096 339.332 231.928C340.356 232.696 341.316 233.048 342.212 232.984C345.732 232.792 349.028 231.864 352.1 230.2C354.212 229.112 357.508 226.84 361.988 223.384C370.564 216.792 376.868 211.288 380.9 206.872C387.812 199.448 394.692 192.056 401.54 184.696C409.284 176.184 415.62 168.504 420.548 161.656C421.124 160.44 421.796 160.024 422.564 160.408C423.396 160.984 423.62 161.56 423.236 162.136ZM444.996 225.208C440.644 229.176 437.06 232.056 434.244 233.848C429.38 236.984 425.06 238.456 421.284 238.264C419.108 238.136 417.604 237.72 416.772 237.016C415.492 235.928 415.076 234.392 415.524 232.408C416.356 228.696 419.62 224.152 425.316 218.776C424.42 216.152 424.164 213.784 424.548 211.672C422.052 214.04 417.604 218.296 411.204 224.44C410.756 224.888 410.436 224.792 410.244 224.152C410.244 223.896 410.308 223.608 410.436 223.288C411.204 222.584 414.436 219.384 420.132 213.688C422.052 211.704 424.292 209.464 426.852 206.968C428.068 205.56 429.124 205.368 430.02 206.392C430.724 207.224 430.436 208.376 429.156 209.848C428.452 210.68 428.1 211.608 428.1 212.632C428.1 213.336 428.324 214.424 428.772 215.896C429.22 217.304 429.444 218.392 429.444 219.16C429.444 220.312 429.156 221.048 428.58 221.368C426.66 222.456 424.772 224.248 422.916 226.744C421.06 229.176 420.004 231.16 419.748 232.696C419.492 234.104 420.26 234.808 422.052 234.808C425.956 234.808 429.54 233.88 432.804 232.024C437.732 229.208 441.476 226.712 444.036 224.536C444.292 224.344 444.58 224.344 444.9 224.536C445.284 224.728 445.316 224.952 444.996 225.208ZM506.829 182.488C507.406 183.192 507.342 183.736 506.638 184.12C506.061 184.76 505.485 185.304 504.91 185.752C498.061 189.656 490.061 191.608 480.909 191.608C478.413 191.608 475.725 191.48 472.845 191.224C471.885 192.76 470.734 194.552 469.39 196.6C464.845 204.024 460.301 211.448 455.757 218.872C449.997 228.152 444.558 235.032 439.438 239.512C438.35 240.472 437.422 240.504 436.654 239.608C436.398 239.352 436.27 239.032 436.27 238.648C436.27 237.88 436.846 237.016 437.998 236.056C442.797 231.832 448.013 225.528 453.646 217.144C458.126 210.04 462.606 202.904 467.086 195.736C468.174 194.008 469.133 192.44 469.965 191.032C468.749 190.776 467.501 190.616 466.222 190.552C463.725 190.232 457.741 189.08 448.269 187.096C440.909 185.496 435.118 184.696 430.894 184.696C424.621 184.696 419.437 186.2 415.341 189.208C415.405 189.272 416.941 189.528 419.95 189.976C420.077 190.04 420.269 190.2 420.525 190.456C420.525 190.776 420.397 190.968 420.141 191.032C418.414 191.672 416.398 191.992 414.094 191.992C411.726 191.992 410.51 191.512 410.446 190.552C410.382 189.848 410.926 189.016 412.078 188.056C417.453 184.344 423.981 182.488 431.662 182.488C435.694 182.488 440.782 183.032 446.926 184.12C451.981 185.08 457.037 186.04 462.093 187C464.205 187.192 467.373 187.544 471.597 188.056C475.437 181.208 479.341 176.056 483.31 172.6L482.925 172.792C483.949 171.768 484.781 171.608 485.422 172.312C486.125 173.08 485.997 173.912 485.037 174.808C482.093 177.56 478.669 181.976 474.765 188.056C478.029 188.248 481.805 188.216 486.094 187.96C489.741 187.768 496.045 185.784 505.005 182.008C505.901 181.624 506.509 181.784 506.829 182.488ZM490.673 197.176C490.673 197.944 490.417 199.032 489.905 200.44C488.945 201.656 488.017 202.168 487.121 201.976C485.585 201.656 485.009 200.76 485.393 199.288C485.393 199.224 486.033 198.328 487.313 196.6L488.369 195.544C488.689 195.224 489.009 195 489.329 194.872C489.457 194.616 489.649 194.616 489.905 194.872C490.225 195.128 490.481 195.896 490.673 197.176ZM488.753 225.688C484.081 229.976 480.625 232.824 478.385 234.232C475.761 235.896 473.361 236.664 471.185 236.536C468.945 236.408 467.281 235.896 466.193 235C465.105 234.04 464.561 232.76 464.561 231.16C464.561 228.6 465.649 225.848 467.825 222.904C469.041 221.112 471.057 218.328 473.873 214.552C474.513 213.656 475.761 212.056 477.617 209.752C478.001 209.304 478.737 208.568 479.825 207.544C480.721 206.648 481.553 206.936 482.321 208.408C482.449 208.792 482.161 209.432 481.457 210.328C481.201 210.712 480.689 211.384 479.921 212.344C474.609 218.68 470.929 223.992 468.881 228.28C468.625 228.728 468.497 229.272 468.497 229.912C468.497 232.344 469.777 233.56 472.337 233.56C474.193 233.56 475.729 233.208 476.945 232.504C481.105 230.136 484.721 227.64 487.793 225.016C488.049 224.824 488.337 224.824 488.657 225.016C489.041 225.208 489.073 225.432 488.753 225.688ZM524.411 224.728C523.067 226.136 521.691 227.544 520.283 228.952C517.531 231.576 515.259 233.24 513.467 233.944C512.251 234.392 510.107 234.968 507.035 235.672C504.859 237.528 502.075 238.392 498.683 238.264C495.227 238.136 493.531 236.92 493.595 234.616C493.659 232.44 495.291 231.352 498.491 231.352C498.299 231.352 499.963 231.864 503.483 232.888C505.531 231.672 506.907 229.208 507.611 225.496C507.547 222.424 507.515 218.584 507.515 213.976C507.643 213.272 507.803 212.12 507.995 210.52C502.299 215.128 494.459 221.464 484.475 229.528C484.411 229.592 484.219 229.56 483.899 229.432C483.515 229.304 483.291 229.176 483.227 229.048C483.291 228.408 483.387 228.024 483.515 227.896C490.555 222.072 496.699 217.112 501.947 213.016C503.739 211.416 505.819 209.592 508.187 207.544C508.571 206.264 509.403 205.08 510.683 203.992C511.963 202.84 513.243 202.264 514.523 202.264C515.547 202.2 516.187 202.84 516.443 204.184C516.635 205.336 516.187 206.2 515.099 206.776C514.075 207.352 512.763 208.12 511.163 209.08C510.523 210.104 510.203 211.608 510.203 213.592C510.203 214.744 510.363 216.6 510.683 219.16C511.003 221.656 511.163 223.448 511.163 224.536C511.163 228.312 510.299 231.224 508.571 233.272C510.299 233.016 511.803 232.568 513.083 231.928C517.883 229.56 521.467 226.904 523.835 223.96C524.027 223.704 524.251 223.704 524.507 223.96C524.699 224.216 524.667 224.472 524.411 224.728ZM587.829 182.488C588.406 183.192 588.342 183.736 587.638 184.12C587.061 184.76 586.485 185.304 585.91 185.752C579.061 189.656 571.061 191.608 561.909 191.608C559.413 191.608 556.725 191.48 553.845 191.224C552.885 192.76 551.734 194.552 550.39 196.6C545.845 204.024 541.301 211.448 536.757 218.872C530.997 228.152 525.558 235.032 520.438 239.512C519.35 240.472 518.422 240.504 517.654 239.608C517.398 239.352 517.27 239.032 517.27 238.648C517.27 237.88 517.846 237.016 518.998 236.056C523.797 231.832 529.013 225.528 534.646 217.144C539.126 210.04 543.606 202.904 548.086 195.736C549.174 194.008 550.133 192.44 550.965 191.032C549.749 190.776 548.501 190.616 547.222 190.552C544.725 190.232 538.741 189.08 529.269 187.096C521.909 185.496 516.118 184.696 511.894 184.696C505.621 184.696 500.437 186.2 496.341 189.208C496.405 189.272 497.941 189.528 500.95 189.976C501.077 190.04 501.269 190.2 501.525 190.456C501.525 190.776 501.397 190.968 501.141 191.032C499.414 191.672 497.398 191.992 495.094 191.992C492.726 191.992 491.51 191.512 491.446 190.552C491.382 189.848 491.926 189.016 493.078 188.056C498.453 184.344 504.981 182.488 512.662 182.488C516.694 182.488 521.782 183.032 527.926 184.12C532.981 185.08 538.037 186.04 543.093 187C545.205 187.192 548.373 187.544 552.597 188.056C556.437 181.208 560.341 176.056 564.31 172.6L563.925 172.792C564.949 171.768 565.781 171.608 566.422 172.312C567.125 173.08 566.997 173.912 566.037 174.808C563.093 177.56 559.669 181.976 555.765 188.056C559.029 188.248 562.805 188.216 567.094 187.96C570.741 187.768 577.045 185.784 586.005 182.008C586.901 181.624 587.509 181.784 587.829 182.488Z" fill="white"/>
<path d="M448.306 30.792C449.074 33.032 449.458 35.496 449.458 38.184C449.458 42.984 448.242 47.624 445.81 52.104C442.226 58.568 438.066 64.296 433.33 69.288C425.586 77.416 417.394 81.448 408.754 81.384C404.85 81.384 401.714 80.2 399.346 77.832C397.81 80.52 395.602 84.232 392.722 88.968C389.906 93.704 387.826 96.968 386.482 98.76C383.986 102.344 381.458 105.16 378.898 107.208C378.066 107.848 377.234 108.136 376.402 108.072C375.634 108.008 374.994 107.624 374.482 106.92C373.01 104.424 373.01 100.808 374.482 96.072C374.674 95.432 375.09 95.24 375.73 95.496C376.114 95.688 376.37 96.072 376.498 96.648C376.37 100.168 376.69 102.216 377.458 102.792C377.778 103.048 378.386 102.792 379.282 102.024C382.61 99.144 385.586 95.624 388.21 91.464C391.41 86.408 394.578 81.128 397.714 75.624C396.434 73.32 396.05 70.472 396.562 67.08C396.882 64.904 397.97 62.856 399.826 60.936C401.746 59.016 403.794 58.152 405.97 58.344C406.418 58.408 406.77 58.472 407.026 58.536C409.266 54.248 412.658 47.784 417.202 39.144C418.866 35.816 421.522 30.888 425.17 24.36C421.074 25.064 415.858 26.984 409.522 30.12C403.89 32.936 399.954 35.912 397.714 39.048C396.306 41.032 395.794 42.408 396.178 43.176C396.178 43.56 396.018 43.816 395.698 43.944C395.378 44.136 395.154 44.104 395.026 43.848C394.386 42.312 394.674 40.424 395.89 38.184C397.618 34.856 401.49 31.528 407.506 28.2C415.634 23.72 422.418 21 427.858 20.04C430.738 15.688 433.17 13.128 435.154 12.36C435.922 12.104 436.402 12.296 436.594 12.936C436.786 13.512 436.498 13.992 435.73 14.376C434.066 15.528 432.466 17.32 430.93 19.752C433.298 19.56 435.698 19.816 438.13 20.52C442.994 21.928 446.386 25.352 448.306 30.792ZM443.986 49.128C445.394 45.928 446.098 42.76 446.098 39.624C446.098 36.296 445.298 33.352 443.698 30.792C441.586 27.4 438.866 25.288 435.538 24.456C433.554 23.944 431.282 23.752 428.722 23.88C428.53 24.2 428.21 24.84 427.762 25.8C423.154 35.528 417.138 46.888 409.714 59.88C411.378 61.096 412.658 62.856 413.554 65.16C413.81 65.8 413.65 66.312 413.074 66.696C412.498 67.08 411.89 66.856 411.25 66.024C410.674 65.192 409.714 63.976 408.37 62.376L401.65 73.992C403.57 76.104 406.546 77.288 410.578 77.544C415.762 77.864 421.778 75.112 428.626 69.288C435.538 63.4 440.658 56.68 443.986 49.128ZM405.586 61.32C404.05 61.32 402.674 62.056 401.458 63.528C400.242 64.936 399.602 66.44 399.538 68.04C399.538 68.808 399.73 69.928 400.114 71.4L405.586 61.32ZM467.215 95.208C462.863 99.176 459.279 102.056 456.463 103.848C451.599 106.984 447.279 108.456 443.503 108.264C441.327 108.136 439.823 107.72 438.991 107.016C437.711 105.928 437.295 104.392 437.743 102.408C438.575 98.696 441.839 94.152 447.535 88.776C446.639 86.152 446.383 83.784 446.767 81.672C444.271 84.04 439.823 88.296 433.423 94.44C432.975 94.888 432.655 94.792 432.463 94.152C432.463 93.896 432.527 93.608 432.655 93.288C433.423 92.584 436.655 89.384 442.351 83.688C444.271 81.704 446.511 79.464 449.071 76.968C450.287 75.56 451.343 75.368 452.239 76.392C452.943 77.224 452.655 78.376 451.375 79.848C450.671 80.68 450.319 81.608 450.319 82.632C450.319 83.336 450.543 84.424 450.991 85.896C451.439 87.304 451.663 88.392 451.663 89.16C451.663 90.312 451.375 91.048 450.799 91.368C448.879 92.456 446.991 94.248 445.135 96.744C443.279 99.176 442.223 101.16 441.967 102.696C441.711 104.104 442.479 104.808 444.271 104.808C448.175 104.808 451.759 103.88 455.023 102.024C459.951 99.208 463.695 96.712 466.255 94.536C466.511 94.344 466.799 94.344 467.119 94.536C467.503 94.728 467.535 94.952 467.215 95.208ZM505.662 93.192C505.47 93.512 504.99 93.992 504.222 94.632C501.086 96.808 498.334 98.024 495.966 98.28C493.854 98.472 492.702 98.568 492.51 98.568C491.614 98.44 491.038 98.312 490.782 98.184C484.062 104.456 477.47 107.592 471.006 107.592C469.086 107.592 467.262 107.208 465.534 106.44C464.382 105.928 463.646 104.872 463.326 103.272C463.006 101.8 463.07 100.392 463.518 99.048C464.862 94.952 468.158 90.792 473.406 86.568C477.31 83.368 481.726 81.128 486.654 79.848C487.678 79.144 488.862 78.792 490.206 78.792C493.854 78.792 496.158 80.232 497.118 83.112C497.31 83.752 497.406 84.744 497.406 86.088C497.406 88.904 495.87 92.264 492.798 96.168C493.95 96.296 494.91 96.328 495.678 96.264C497.854 96.072 500.414 94.984 503.358 93C503.358 93 503.838 92.744 504.798 92.232C505.246 91.976 505.534 92.008 505.662 92.328C505.854 92.584 505.854 92.872 505.662 93.192ZM495.102 85.992C495.102 85.032 494.814 84.136 494.238 83.304C493.214 81.832 491.87 81.096 490.206 81.096C487.198 81.096 485.694 83.304 485.694 87.72C485.694 91.24 487.07 93.672 489.822 95.016C493.342 90.984 495.102 87.976 495.102 85.992ZM487.806 96.744C484.35 95.144 482.622 92.168 482.622 87.816C482.622 86.28 483.07 84.68 483.966 83.016C481.086 84.168 478.366 85.704 475.806 87.624C473.246 89.544 471.038 91.72 469.182 94.152C468.03 95.688 467.262 97.544 466.878 99.72C466.75 100.552 466.974 101.384 467.55 102.216C468.19 103.048 469.086 103.528 470.238 103.656C471.006 103.72 471.774 103.752 472.542 103.752C475.486 103.752 478.366 102.984 481.182 101.448C482.334 100.808 484.542 99.24 487.806 96.744ZM551.376 33C551.888 33.64 551.696 34.696 550.8 36.168C549.008 39.176 544.336 46.056 536.784 56.808C532.624 62.696 527.248 70.056 520.656 78.888C520.016 80.104 518.096 83.016 514.896 87.624C514.448 88.328 513.712 89.384 512.688 90.792C514.48 93.8 515.376 97 515.376 100.392C515.376 100.968 515.312 101.96 515.184 103.368H516.24C518.032 103.368 519.824 102.888 521.616 101.928C523.92 100.712 527.504 98.024 532.368 93.864C532.56 93.672 532.784 93.672 533.04 93.864C533.36 93.992 533.36 94.216 533.04 94.536C530.736 96.712 527.376 99.592 522.96 103.176C520.784 104.584 518.544 105.288 516.24 105.288H514.8C514.288 107.72 513.264 110.856 511.728 114.696C508.656 122.312 504.976 129.96 500.688 137.64C498.256 142.056 494.8 147.176 490.32 153C483.408 161.96 477.232 167.976 471.792 171.048C471.088 171.432 470.48 171.4 469.968 170.952C469.456 170.568 469.296 169.96 469.488 169.128C471.536 161.32 475.376 151.816 481.008 140.616C483.76 135.112 489.04 125.384 496.848 111.432C498.128 109.128 500.368 105.384 503.568 100.2C501.584 97.768 500.592 95.016 500.592 91.944C500.592 88.04 502.832 86.248 507.312 86.568C508.656 86.696 509.904 87.368 511.056 88.584C516.048 80.264 522.032 71.208 529.008 61.416C531.056 58.536 536.208 50.856 544.464 38.376C545.232 37.224 546.64 35.464 548.688 33.096C549.712 32.072 550.608 32.04 551.376 33ZM510.192 89.928C509.36 88.968 508.4 88.488 507.312 88.488C504.944 88.488 503.76 89.64 503.76 91.944C503.76 94.12 504.24 96.072 505.2 97.8C506.288 96.136 507.952 93.512 510.192 89.928ZM513.456 100.392C513.456 97.448 512.88 94.728 511.728 92.232C510.512 94.024 508.848 96.584 506.736 99.912C508.464 101.64 510.64 102.728 513.264 103.176C513.392 101.896 513.456 100.968 513.456 100.392ZM512.88 105.096C510 104.648 507.536 103.624 505.488 102.024C503.44 105.352 501.712 108.328 500.304 110.952C495.504 119.336 490.704 127.72 485.904 136.104C480.656 145.64 476.656 154.92 473.904 163.944C473.712 164.52 473.68 164.808 473.808 164.808C474 164.808 474.224 164.744 474.48 164.616C485.616 156.04 494.576 145.192 501.36 132.072C504.88 125.288 507.824 118.952 510.192 113.064C511.408 110.056 512.304 107.4 512.88 105.096ZM569.575 94.248C566.823 97.064 563.207 99.592 558.727 101.832C557.063 102.664 554.343 103.528 550.567 104.424C546.407 105.384 542.983 105.864 540.295 105.864C531.911 105.864 527.879 103.176 528.199 97.8C528.263 96.52 528.743 95.208 529.639 93.864C532.391 89.64 537.063 85.768 543.655 82.248C550.311 78.728 556.007 77.224 560.743 77.736C560.999 77.928 561.319 78.184 561.703 78.504C561.895 78.696 561.927 78.952 561.799 79.272L561.511 80.136C561.319 80.392 560.999 80.808 560.551 81.384C560.295 81.576 559.527 82.216 558.247 83.304C551.271 86.696 543.239 90.152 534.151 93.672C533.255 94.44 532.551 95.752 532.039 97.608C532.487 100.68 535.527 102.408 541.159 102.792C542.823 102.92 545.479 102.696 549.127 102.12C552.839 101.48 555.495 100.84 557.095 100.2C561.447 98.408 565.159 96.168 568.231 93.48C568.551 93.16 568.935 93.16 569.383 93.48C569.831 93.672 569.895 93.928 569.575 94.248ZM558.439 80.424C558.439 80.104 557.607 80.04 555.943 80.232C547.943 82.216 541.383 85.768 536.263 90.888C543.879 87.944 550.599 85.032 556.423 82.152C557.767 81.192 558.439 80.616 558.439 80.424ZM603.302 94.728C601.958 96.136 600.582 97.544 599.174 98.952C596.422 101.576 594.15 103.24 592.358 103.944C591.142 104.392 588.998 104.968 585.926 105.672C583.75 107.528 580.966 108.392 577.574 108.264C574.118 108.136 572.422 106.92 572.486 104.616C572.55 102.44 574.182 101.352 577.382 101.352C577.19 101.352 578.854 101.864 582.374 102.888C584.422 101.672 585.798 99.208 586.502 95.496C586.438 92.424 586.406 88.584 586.406 83.976C586.534 83.272 586.694 82.12 586.886 80.52C581.19 85.128 573.35 91.464 563.366 99.528C563.302 99.592 563.11 99.56 562.79 99.432C562.406 99.304 562.182 99.176 562.118 99.048C562.182 98.408 562.278 98.024 562.406 97.896C569.446 92.072 575.59 87.112 580.838 83.016C582.63 81.416 584.71 79.592 587.078 77.544C587.462 76.264 588.294 75.08 589.574 73.992C590.854 72.84 592.134 72.264 593.414 72.264C594.438 72.2 595.078 72.84 595.334 74.184C595.526 75.336 595.078 76.2 593.99 76.776C592.966 77.352 591.654 78.12 590.054 79.08C589.414 80.104 589.094 81.608 589.094 83.592C589.094 84.744 589.254 86.6 589.574 89.16C589.894 91.656 590.054 93.448 590.054 94.536C590.054 98.312 589.19 101.224 587.462 103.272C589.19 103.016 590.694 102.568 591.974 101.928C596.774 99.56 600.358 96.904 602.726 93.96C602.918 93.704 603.142 93.704 603.398 93.96C603.59 94.216 603.558 94.472 603.302 94.728ZM638.88 94.728C637.536 96.136 636.16 97.544 634.752 98.952C632 101.576 629.728 103.24 627.936 103.944C626.72 104.392 624.576 104.968 621.504 105.672C619.328 107.528 616.544 108.392 613.152 108.264C609.696 108.136 608 106.92 608.064 104.616C608.128 102.44 609.76 101.352 612.96 101.352C612.768 101.352 614.432 101.864 617.952 102.888C620 101.672 621.376 99.208 622.08 95.496C622.016 92.424 621.984 88.584 621.984 83.976C622.112 83.272 622.272 82.12 622.464 80.52C616.768 85.128 608.928 91.464 598.944 99.528C598.88 99.592 598.688 99.56 598.368 99.432C597.984 99.304 597.76 99.176 597.696 99.048C597.76 98.408 597.856 98.024 597.984 97.896C605.024 92.072 611.168 87.112 616.416 83.016C618.208 81.416 620.288 79.592 622.656 77.544C623.04 76.264 623.872 75.08 625.152 73.992C626.432 72.84 627.712 72.264 628.992 72.264C630.016 72.2 630.656 72.84 630.912 74.184C631.104 75.336 630.656 76.2 629.568 76.776C628.544 77.352 627.232 78.12 625.632 79.08C624.992 80.104 624.672 81.608 624.672 83.592C624.672 84.744 624.832 86.6 625.152 89.16C625.472 91.656 625.632 93.448 625.632 94.536C625.632 98.312 624.768 101.224 623.04 103.272C624.768 103.016 626.272 102.568 627.552 101.928C632.352 99.56 635.936 96.904 638.304 93.96C638.496 93.704 638.72 93.704 638.976 93.96C639.168 94.216 639.136 94.472 638.88 94.728ZM662.938 67.176C662.938 67.944 662.682 69.032 662.17 70.44C661.21 71.656 660.282 72.168 659.386 71.976C657.85 71.656 657.274 70.76 657.658 69.288C657.658 69.224 658.298 68.328 659.578 66.6L660.634 65.544C660.954 65.224 661.274 65 661.594 64.872C661.722 64.616 661.914 64.616 662.17 64.872C662.49 65.128 662.746 65.896 662.938 67.176ZM661.018 95.688C656.346 99.976 652.89 102.824 650.65 104.232C648.026 105.896 645.626 106.664 643.45 106.536C641.21 106.408 639.546 105.896 638.458 105C637.37 104.04 636.826 102.76 636.826 101.16C636.826 98.6 637.914 95.848 640.09 92.904C641.306 91.112 643.322 88.328 646.138 84.552C646.778 83.656 648.026 82.056 649.882 79.752C650.266 79.304 651.002 78.568 652.09 77.544C652.986 76.648 653.818 76.936 654.586 78.408C654.714 78.792 654.426 79.432 653.722 80.328C653.466 80.712 652.954 81.384 652.186 82.344C646.874 88.68 643.194 93.992 641.146 98.28C640.89 98.728 640.762 99.272 640.762 99.912C640.762 102.344 642.042 103.56 644.602 103.56C646.458 103.56 647.994 103.208 649.21 102.504C653.37 100.136 656.986 97.64 660.058 95.016C660.314 94.824 660.602 94.824 660.922 95.016C661.306 95.208 661.338 95.432 661.018 95.688ZM700.709 93.192C700.517 93.512 700.037 93.992 699.269 94.632C696.133 96.808 693.381 98.024 691.013 98.28C688.901 98.472 687.749 98.568 687.557 98.568C686.661 98.44 686.085 98.312 685.829 98.184C679.109 104.456 672.517 107.592 666.053 107.592C664.133 107.592 662.309 107.208 660.581 106.44C659.429 105.928 658.693 104.872 658.373 103.272C658.053 101.8 658.117 100.392 658.565 99.048C659.909 94.952 663.205 90.792 668.453 86.568C672.357 83.368 676.773 81.128 681.701 79.848C682.725 79.144 683.909 78.792 685.253 78.792C688.901 78.792 691.205 80.232 692.165 83.112C692.357 83.752 692.453 84.744 692.453 86.088C692.453 88.904 690.917 92.264 687.845 96.168C688.997 96.296 689.957 96.328 690.725 96.264C692.901 96.072 695.461 94.984 698.405 93C698.405 93 698.885 92.744 699.845 92.232C700.293 91.976 700.581 92.008 700.709 92.328C700.901 92.584 700.901 92.872 700.709 93.192ZM690.149 85.992C690.149 85.032 689.861 84.136 689.285 83.304C688.261 81.832 686.917 81.096 685.253 81.096C682.245 81.096 680.741 83.304 680.741 87.72C680.741 91.24 682.117 93.672 684.869 95.016C688.389 90.984 690.149 87.976 690.149 85.992ZM682.853 96.744C679.397 95.144 677.669 92.168 677.669 87.816C677.669 86.28 678.117 84.68 679.013 83.016C676.133 84.168 673.413 85.704 670.853 87.624C668.293 89.544 666.085 91.72 664.229 94.152C663.077 95.688 662.309 97.544 661.925 99.72C661.797 100.552 662.021 101.384 662.597 102.216C663.237 103.048 664.133 103.528 665.285 103.656C666.053 103.72 666.821 103.752 667.589 103.752C670.533 103.752 673.413 102.984 676.229 101.448C677.381 100.808 679.589 99.24 682.853 96.744ZM747.649 95.208C742.785 99.624 739.265 102.536 737.089 103.944C734.657 105.48 732.353 106.248 730.177 106.248C726.209 106.248 723.841 104.936 723.073 102.312C722.305 99.624 722.881 97.064 724.801 94.632C728.897 89.448 730.945 86.76 730.945 86.568C730.945 86.056 730.497 85.928 729.601 86.184C723.713 88.04 717.505 91.432 710.977 96.36C706.753 99.816 702.561 103.304 698.401 106.824L696.673 107.976C696.033 108.296 695.457 108.456 694.945 108.456C694.369 108.456 694.049 108.2 693.985 107.688C693.985 106.92 694.177 106.344 694.561 105.96L695.521 105C698.401 102.12 701.633 98.568 705.217 94.344C708.865 90.056 710.657 87.624 710.593 87.048C710.401 86.664 710.177 86.472 709.921 86.472C709.089 86.472 707.297 87.592 704.545 89.832C701.729 92.264 698.881 94.696 696.001 97.128C695.489 97.64 695.137 97.544 694.945 96.84C694.945 96.264 695.041 95.88 695.233 95.688C698.113 93.256 700.961 90.824 703.777 88.392C707.489 85.384 710.145 83.752 711.745 83.496C713.665 83.24 714.945 83.848 715.585 85.32C715.649 85.704 715.297 86.76 714.529 88.488C713.569 90.6 712.129 92.648 710.209 94.632C717.377 89.64 724.577 85.608 731.809 82.536C732.705 82.152 733.697 81.96 734.785 81.96C736.449 81.96 737.345 82.44 737.473 83.4C737.601 83.912 737.217 84.776 736.321 85.992C735.361 87.4 733.409 89.864 730.465 93.384C727.905 96.072 726.689 98.472 726.817 100.584C726.881 101.8 728.001 102.664 730.177 103.176C731.969 103.624 733.793 103.304 735.649 102.216C739.745 99.912 743.425 97.352 746.689 94.536C746.945 94.344 747.233 94.344 747.553 94.536C747.937 94.728 747.969 94.952 747.649 95.208ZM794.793 94.44C791.273 98.344 788.201 101.256 785.578 103.176C783.465 104.712 781.129 105.48 778.569 105.48C778.057 105.48 777.545 105.448 777.034 105.384C774.858 105.064 773.417 103.944 772.713 102.024C772.329 100.936 772.138 99.88 772.138 98.856C772.138 97.128 772.906 94.824 774.442 91.944C772.521 93.544 769.353 95.848 764.938 98.856C762.57 100.264 758.89 102.152 753.897 104.52C751.337 105.48 749.193 105.96 747.465 105.96C745.801 105.96 744.617 105.576 743.913 104.808C742.569 103.4 742.377 101.64 743.337 99.528C745.193 95.368 748.649 91.624 753.705 88.296C760.745 83.624 767.146 81 772.906 80.424C773.226 80.296 773.449 80.456 773.577 80.904C773.577 81.288 773.353 81.48 772.906 81.48C765.226 83.784 759.37 86.44 755.338 89.448C753.801 90.472 751.689 92.296 749.001 94.92C747.209 97.224 746.441 99.048 746.697 100.392C746.825 101.032 747.305 101.416 748.138 101.544C750.954 101.928 753.834 101.416 756.777 100.008C762.601 97.192 767.273 94.632 770.793 92.328C775.529 89.256 779.913 85.096 783.945 79.848C784.714 78.888 785.322 78.696 785.769 79.272C786.346 79.976 786.313 80.648 785.673 81.288C784.841 82.184 783.465 83.656 781.546 85.704C780.202 87.496 779.402 88.744 779.145 89.448C776.777 93.16 775.593 96.424 775.593 99.24C775.593 99.688 775.625 100.136 775.69 100.584C775.817 101.864 776.809 102.728 778.665 103.176C780.266 103.56 782.058 103.24 784.042 102.216C787.753 99.72 791.146 96.936 794.218 93.864C794.41 93.672 794.57 93.64 794.698 93.768C795.017 93.96 795.049 94.184 794.793 94.44ZM850.022 18.12C849.894 22.92 846.278 29.96 839.174 39.24C835.014 44.68 826.31 53.8 813.062 66.6L806.342 73.128C804.742 75.624 802.95 78.472 800.966 81.672C797.318 88.84 795.238 94.184 794.726 97.704C794.214 101.416 795.494 103.272 798.566 103.272C800.422 103.272 801.958 102.92 803.174 102.216C807.27 99.912 810.95 97.352 814.214 94.536C814.47 94.344 814.758 94.344 815.078 94.536C815.462 94.728 815.494 94.952 815.174 95.208C810.31 99.624 806.79 102.536 804.614 103.944C802.182 105.48 799.782 106.248 797.414 106.248C793.894 106.248 791.974 104.648 791.654 101.448C791.142 95.816 793.542 88.52 798.854 79.56C803.014 72.264 809.03 62.312 816.902 49.704C825.798 37.096 835.814 25.96 846.95 16.296C847.782 15.592 848.582 15.496 849.35 16.008C849.798 16.328 850.022 17.032 850.022 18.12ZM847.238 21.384C847.238 20.488 846.758 20.52 845.798 21.48C838.694 26.856 830.15 36.712 820.166 51.048C815.686 57.576 812.006 63.272 809.126 68.136C809.766 67.496 810.694 66.568 811.91 65.352C816.39 60.936 820.838 56.552 825.254 52.2C830.182 47.144 834.31 42.44 837.638 38.088C840.966 33.736 842.95 31.08 843.59 30.12C845.638 26.92 846.854 24.008 847.238 21.384Z" fill="#E2856E"/>
</svg>
