<svg width="50" height="30" viewBox="0 0 50 30" fill="none" xmlns="http://www.w3.org/2000/svg">
<path d="M2.08334 16.173H47.9167C48.7719 16.173 49.5 15.4445 49.5 14.5047C49.5 13.565 48.7719 12.8365 47.9167 12.8365H2.08334C1.22811 12.8365 0.5 13.565 0.5 14.5047C0.5 15.4445 1.22811 16.173 2.08334 16.173Z" fill="white" stroke="white"/>
<path d="M21.25 3.8365H48.75C48.8402 3.8365 49.0177 3.76874 49.2006 3.45148C49.3757 3.14769 49.5 2.69497 49.5 2.16825C49.5 1.64153 49.3757 1.18882 49.2006 0.88502C49.0177 0.567761 48.8402 0.5 48.75 0.5H21.25C21.1598 0.5 20.9823 0.567761 20.7994 0.88502C20.6243 1.18882 20.5 1.64153 20.5 2.16825C20.5 2.69497 20.6243 3.14769 20.7994 3.45148C20.9823 3.76874 21.1598 3.8365 21.25 3.8365Z" fill="white" stroke="white"/>
<path d="M2.08334 28.5095H47.9167C48.7719 28.5095 49.5 27.781 49.5 26.8412C49.5 25.9015 48.7719 25.173 47.9167 25.173H2.08334C1.22812 25.173 0.5 25.9015 0.5 26.8412C0.5 27.781 1.22812 28.5095 2.08334 28.5095Z" fill="white" stroke="white"/>
</svg>
