<svg width="417" height="172" viewBox="0 0 417 172" fill="none" xmlns="http://www.w3.org/2000/svg">
<path d="M87.872 55.48C86.976 59.448 84.736 65.144 81.152 72.568C77.44 80.376 75.104 86.104 74.144 89.752C73.632 91.672 73.376 94.168 73.376 97.24C73.376 104.856 74.752 109.912 77.504 112.408C78.912 113.24 79.424 114.104 79.04 115C78.784 115.576 78.24 115.928 77.408 116.056C76.96 116.12 76.384 116.056 75.68 115.864C72.096 113.944 70.304 108.92 70.304 100.792C70.304 96.312 70.816 92.248 71.84 88.6C73.184 83.736 76.512 75.032 81.824 62.488C83.168 59.352 83.84 56.568 83.84 54.136C83.84 52.728 83.488 51.96 82.784 51.832C81.12 51.512 78.176 52.888 73.952 55.96C69.792 59.032 66.4 62.232 63.776 65.56C58.208 72.664 53.504 79.992 49.664 87.544C47.936 90.872 45.312 95.928 41.792 102.712C40.96 104.632 39.936 105.592 38.72 105.592C38.528 105.592 38.368 105.56 38.24 105.496C37.344 104.984 37.216 103.928 37.856 102.328C38.176 101.752 38.496 101.016 38.816 100.12C39.904 98.136 41.472 95.16 43.52 91.192C51.264 75.832 58.496 59.608 65.216 42.52C66.24 39.832 66.752 37.72 66.752 36.184C66.752 35.288 66.176 34.84 65.024 34.84C62.336 34.84 58.816 36.088 54.464 38.584C49.664 41.336 45.472 44.76 41.888 48.856C38.368 56.472 34.944 63.48 31.616 69.88C27.904 77.88 22.336 89.4 14.912 104.44C14.784 104.888 14.24 105.4 13.28 105.976C12.96 106.296 12.416 106.424 11.648 106.36C10.816 106.36 10.272 106.2 10.016 105.88C9.184 105.24 9.216 104.472 10.112 103.576C17.92 89.88 28.448 69.432 41.696 42.232C48.16 28.984 51.392 19.256 51.392 13.048C51.392 11.064 51.008 9.496 50.24 8.344C48.768 6.104 45.12 4.824 39.296 4.504C29.248 3.992 19.904 8.12 11.264 16.888C7.552 20.664 5.696 24.248 5.696 27.64C5.696 28.536 5.824 29.4 6.08 30.232C7.104 32.152 8.992 33.112 11.744 33.112C13.088 33.112 14.496 32.824 15.968 32.248C16.608 32.184 16.992 32.472 17.12 33.112C17.184 33.56 16.928 33.944 16.352 34.264C12.832 35.608 9.888 36.28 7.52 36.28C4.512 36.28 2.432 35.224 1.28 33.112C0.768 32.152 0.512 31.096 0.512 29.944C0.512 27 2.176 23.448 5.504 19.288C9.792 13.976 15.168 9.4 21.632 5.56C27.584 2.04 33.664 0.280004 39.872 0.280004C45.76 0.280004 50.304 2.008 53.504 5.464C54.464 6.936 54.944 8.888 54.944 11.32C54.944 15.672 52.096 24.792 46.4 38.68C45.824 40.152 45.312 41.304 44.864 42.136C51.776 35.224 59.072 30.904 66.752 29.176C69.504 28.536 71.136 28.92 71.648 30.328C71.968 31.224 72.128 32.216 72.128 33.304C72.128 34.968 71.552 37.4 70.4 40.6C68.8 44.824 64.768 54.104 58.304 68.44C64.96 60.632 68.64 56.344 69.344 55.576C74.08 50.84 78.72 47.96 83.264 46.936C83.648 46.872 84 46.84 84.32 46.84C86.24 46.84 87.424 48.12 87.872 50.68C88.192 52.472 88.192 54.072 87.872 55.48ZM125.245 91.768C125.501 91.896 125.436 92.12 125.052 92.44C122.748 94.552 119.197 97.464 114.397 101.176C109.02 105.336 102.108 110.264 93.6605 115.96C87.3245 126.456 81.6605 135.384 76.6685 142.744C67.9005 155.672 59.9965 164.6 52.9565 169.528C50.9725 170.744 49.3725 171.352 48.1565 171.352C45.2765 171.352 43.7725 169.976 43.6445 167.224C43.5165 163.576 45.0525 159.192 48.2525 154.072C49.9805 151.256 54.3325 146.008 61.3085 138.328C66.8125 132.184 74.5885 125.72 84.6365 118.936C86.4925 117.656 89.2125 115.8 92.7965 113.368C96.0605 108.056 101.084 100.12 107.868 89.56C100.06 97.048 93.3725 100.92 87.8045 101.176C86.5885 101.24 85.5965 100.92 84.8285 100.216C84.0605 99.448 83.7405 98.552 83.8685 97.528C84.1245 95.16 85.6925 91.672 88.5725 87.064C90.6845 83.672 92.6045 80.984 94.3325 79C94.9725 78.232 95.7085 77.592 96.5405 77.08C97.0525 76.76 97.5965 76.696 98.1725 76.888C98.2365 77.08 98.3325 77.304 98.4605 77.56C98.7165 78.264 98.4605 79.16 97.6925 80.248C95.7725 82.872 94.3325 84.92 93.3725 86.392C90.9405 90.104 89.2445 93.304 88.2845 95.992C88.0925 96.44 88.0925 96.92 88.2845 97.432C88.4765 97.944 88.8605 98.2 89.4365 98.2C95.3245 97.944 103.932 91.16 115.26 77.848C115.58 77.464 115.932 77.272 116.317 77.272C116.957 77.272 117.276 77.592 117.276 78.232C117.276 78.488 117.18 78.744 116.988 79C112.061 86.552 105.309 97.144 96.7325 110.776C101.212 107.896 106.556 104.44 112.765 100.408C117.948 97.08 121.916 94.232 124.669 91.864C124.861 91.672 125.053 91.64 125.245 91.768ZM89.4365 118.648C88.4125 119.352 87.0045 120.312 85.2125 121.528C75.8045 127.736 68.5085 133.72 63.3245 139.48C59.8045 143.32 56.1565 147.928 52.3805 153.304C49.5645 157.272 48.1565 160.824 48.1565 163.96C48.1565 164.664 48.2525 165.272 48.4445 165.784C48.6365 166.296 49.1485 166.584 49.9805 166.648C50.8765 166.712 51.6765 166.488 52.3805 165.976C59.1645 161.496 66.5245 153.464 74.4605 141.88C78.7485 135.672 83.7405 127.928 89.4365 118.648Z" fill="#333333"/>
<path d="M244.846 16.12C244.654 16.504 244.526 16.696 244.462 16.696C240.75 18.424 235.278 21.496 228.046 25.912C227.918 26.04 227.726 26.2 227.47 26.392C227.278 26.52 227.15 26.616 227.086 26.68C228.814 28.408 229.678 30.616 229.678 33.304C229.678 36.376 228.494 39.096 226.126 41.464C222.798 44.728 219.79 46.392 217.102 46.456C216.078 46.456 215.374 45.912 214.99 44.824C214.606 43.928 214.574 43.032 214.894 42.136C215.79 36.632 218.51 31.704 223.054 27.352C222.158 26.904 221.102 26.68 219.886 26.68C216.558 26.68 213.198 27.832 209.806 30.136C198.158 37.944 188.558 47.704 181.006 59.416C173.454 71.128 169.678 81.528 169.678 90.616C169.678 94.648 170.638 97.688 172.558 99.736C176.014 103.448 180.302 105.112 185.422 104.728C196.046 103.896 206.574 96.536 217.006 82.648C217.454 82.072 217.998 82.04 218.638 82.552C218.958 82.872 218.926 83.384 218.542 84.088C214.574 90.04 210.126 95.16 205.198 99.448C198.414 105.336 191.854 108.504 185.518 108.952C179.182 109.4 174.318 108.12 170.926 105.112C167.342 101.976 165.55 97.496 165.55 91.672C165.55 87.768 166.382 83.224 168.046 78.04C173.998 59.032 187.15 42.616 207.502 28.792C212.046 25.72 216.398 24.184 220.558 24.184C222.414 24.184 224.014 24.568 225.358 25.336C230.478 21.112 236.782 17.976 244.27 15.928C244.398 15.8 244.59 15.864 244.846 16.12ZM225.838 37.144C226.478 36.056 226.798 34.936 226.798 33.784C226.798 32.056 226.126 30.36 224.782 28.696C222.094 31.32 220.078 35 218.734 39.736C218.542 40.312 218.574 40.824 218.83 41.272C219.15 41.72 219.534 41.912 219.982 41.848C222.414 41.08 224.366 39.512 225.838 37.144ZM281.757 16.12C281.629 20.92 278.013 27.96 270.909 37.24C266.749 42.68 258.045 51.8 244.797 64.6L238.077 71.128C236.477 73.624 234.685 76.472 232.701 79.672C229.053 86.84 226.973 92.184 226.461 95.704C225.949 99.416 227.229 101.272 230.301 101.272C232.157 101.272 233.693 100.92 234.909 100.216C239.005 97.912 242.685 95.352 245.949 92.536C246.205 92.344 246.493 92.344 246.813 92.536C247.197 92.728 247.229 92.952 246.909 93.208C242.045 97.624 238.525 100.536 236.349 101.944C233.917 103.48 231.517 104.248 229.149 104.248C225.629 104.248 223.709 102.648 223.389 99.448C222.877 93.816 225.277 86.52 230.589 77.56C234.749 70.264 240.765 60.312 248.637 47.704C257.533 35.096 267.549 23.96 278.685 14.296C279.517 13.592 280.317 13.496 281.085 14.008C281.533 14.328 281.757 15.032 281.757 16.12ZM278.973 19.384C278.973 18.488 278.493 18.52 277.533 19.48C270.429 24.856 261.885 34.712 251.901 49.048C247.421 55.576 243.741 61.272 240.861 66.136C241.501 65.496 242.429 64.568 243.645 63.352C248.125 58.936 252.573 54.552 256.989 50.2C261.917 45.144 266.045 40.44 269.373 36.088C272.701 31.736 274.685 29.08 275.325 28.12C277.373 24.92 278.589 22.008 278.973 19.384ZM268.204 65.176C268.204 65.944 267.948 67.032 267.436 68.44C266.476 69.656 265.548 70.168 264.652 69.976C263.116 69.656 262.54 68.76 262.924 67.288C262.924 67.224 263.564 66.328 264.844 64.6L265.9 63.544C266.22 63.224 266.54 63 266.86 62.872C266.988 62.616 267.18 62.616 267.436 62.872C267.756 63.128 268.012 63.896 268.204 65.176ZM266.284 93.688C261.612 97.976 258.156 100.824 255.916 102.232C253.292 103.896 250.892 104.664 248.716 104.536C246.476 104.408 244.812 103.896 243.724 103C242.636 102.04 242.092 100.76 242.092 99.16C242.092 96.6 243.18 93.848 245.356 90.904C246.572 89.112 248.588 86.328 251.404 82.552C252.044 81.656 253.292 80.056 255.148 77.752C255.532 77.304 256.268 76.568 257.356 75.544C258.252 74.648 259.084 74.936 259.852 76.408C259.98 76.792 259.692 77.432 258.988 78.328C258.732 78.712 258.22 79.384 257.452 80.344C252.14 86.68 248.46 91.992 246.412 96.28C246.156 96.728 246.028 97.272 246.028 97.912C246.028 100.344 247.308 101.56 249.868 101.56C251.724 101.56 253.26 101.208 254.476 100.504C258.636 98.136 262.252 95.64 265.324 93.016C265.58 92.824 265.868 92.824 266.188 93.016C266.572 93.208 266.604 93.432 266.284 93.688ZM304.919 92.248C302.167 95.064 298.551 97.592 294.071 99.832C292.407 100.664 289.687 101.528 285.911 102.424C281.751 103.384 278.327 103.864 275.639 103.864C267.255 103.864 263.223 101.176 263.543 95.8C263.607 94.52 264.087 93.208 264.983 91.864C267.735 87.64 272.407 83.768 278.999 80.248C285.655 76.728 291.351 75.224 296.087 75.736C296.343 75.928 296.663 76.184 297.047 76.504C297.239 76.696 297.271 76.952 297.143 77.272L296.855 78.136C296.663 78.392 296.343 78.808 295.895 79.384C295.639 79.576 294.871 80.216 293.591 81.304C286.615 84.696 278.583 88.152 269.495 91.672C268.599 92.44 267.895 93.752 267.383 95.608C267.831 98.68 270.871 100.408 276.503 100.792C278.167 100.92 280.823 100.696 284.471 100.12C288.183 99.48 290.839 98.84 292.439 98.2C296.791 96.408 300.503 94.168 303.575 91.48C303.895 91.16 304.279 91.16 304.727 91.48C305.175 91.672 305.239 91.928 304.919 92.248ZM293.783 78.424C293.783 78.104 292.951 78.04 291.287 78.232C283.287 80.216 276.727 83.768 271.607 88.888C279.223 85.944 285.943 83.032 291.767 80.152C293.111 79.192 293.783 78.616 293.783 78.424ZM354.18 93.208C349.316 97.624 345.796 100.536 343.62 101.944C341.188 103.48 338.884 104.248 336.708 104.248C332.74 104.248 330.372 102.936 329.604 100.312C328.836 97.624 329.412 95.064 331.332 92.632C335.428 87.448 337.476 84.76 337.476 84.568C337.476 84.056 337.028 83.928 336.132 84.184C330.244 86.04 324.036 89.432 317.508 94.36C313.284 97.816 309.092 101.304 304.932 104.824L303.204 105.976C302.564 106.296 301.988 106.456 301.476 106.456C300.9 106.456 300.58 106.2 300.516 105.688C300.516 104.92 300.708 104.344 301.092 103.96L302.052 103C304.932 100.12 308.164 96.568 311.748 92.344C315.396 88.056 317.188 85.624 317.124 85.048C316.932 84.664 316.708 84.472 316.452 84.472C315.62 84.472 313.828 85.592 311.076 87.832C308.26 90.264 305.412 92.696 302.532 95.128C302.02 95.64 301.668 95.544 301.476 94.84C301.476 94.264 301.572 93.88 301.764 93.688C304.644 91.256 307.492 88.824 310.308 86.392C314.02 83.384 316.676 81.752 318.276 81.496C320.196 81.24 321.476 81.848 322.116 83.32C322.18 83.704 321.828 84.76 321.06 86.488C320.1 88.6 318.66 90.648 316.74 92.632C323.908 87.64 331.108 83.608 338.34 80.536C339.236 80.152 340.228 79.96 341.316 79.96C342.98 79.96 343.876 80.44 344.004 81.4C344.132 81.912 343.748 82.776 342.852 83.992C341.892 85.4 339.94 87.864 336.996 91.384C334.436 94.072 333.22 96.472 333.348 98.584C333.412 99.8 334.532 100.664 336.708 101.176C338.5 101.624 340.324 101.304 342.18 100.216C346.276 97.912 349.956 95.352 353.22 92.536C353.476 92.344 353.764 92.344 354.084 92.536C354.468 92.728 354.5 92.952 354.18 93.208ZM414.861 50.488C415.437 51.192 415.373 51.736 414.669 52.12C414.093 52.76 413.517 53.304 412.941 53.752C406.093 57.656 398.093 59.608 388.941 59.608C386.445 59.608 383.757 59.48 380.877 59.224C379.917 60.76 378.765 62.552 377.421 64.6C372.877 72.024 368.333 79.448 363.789 86.872C358.029 96.152 352.589 103.032 347.469 107.512C346.381 108.472 345.453 108.504 344.685 107.608C344.429 107.352 344.301 107.032 344.301 106.648C344.301 105.88 344.877 105.016 346.029 104.056C350.829 99.832 356.045 93.528 361.677 85.144C366.157 78.04 370.637 70.904 375.117 63.736C376.205 62.008 377.165 60.44 377.997 59.032C376.781 58.776 375.533 58.616 374.253 58.552C371.757 58.232 365.773 57.08 356.301 55.096C348.941 53.496 343.149 52.696 338.925 52.696C332.653 52.696 327.469 54.2 323.373 57.208C323.437 57.272 324.973 57.528 327.981 57.976C328.109 58.04 328.301 58.2 328.557 58.456C328.557 58.776 328.429 58.968 328.173 59.032C326.445 59.672 324.429 59.992 322.125 59.992C319.757 59.992 318.541 59.512 318.477 58.552C318.413 57.848 318.957 57.016 320.109 56.056C325.485 52.344 332.013 50.488 339.693 50.488C343.725 50.488 348.813 51.032 354.957 52.12C360.013 53.08 365.069 54.04 370.125 55C372.237 55.192 375.405 55.544 379.629 56.056C383.469 49.208 387.373 44.056 391.341 40.6L390.957 40.792C391.981 39.768 392.813 39.608 393.453 40.312C394.157 41.08 394.029 41.912 393.069 42.808C390.125 45.56 386.701 49.976 382.797 56.056C386.061 56.248 389.837 56.216 394.125 55.96C397.773 55.768 404.077 53.784 413.037 50.008C413.933 49.624 414.541 49.784 414.861 50.488ZM415.849 92.728C414.505 94.136 413.129 95.544 411.721 96.952C408.969 99.576 406.697 101.24 404.905 101.944C403.689 102.392 401.545 102.968 398.473 103.672C396.297 105.528 393.513 106.392 390.121 106.264C386.665 106.136 384.969 104.92 385.033 102.616C385.097 100.44 386.729 99.352 389.929 99.352C389.737 99.352 391.401 99.864 394.921 100.888C396.969 99.672 398.345 97.208 399.049 93.496C398.985 90.424 398.953 86.584 398.953 81.976C399.081 81.272 399.241 80.12 399.433 78.52C393.737 83.128 385.897 89.464 375.913 97.528C375.849 97.592 375.657 97.56 375.337 97.432C374.953 97.304 374.729 97.176 374.665 97.048C374.729 96.408 374.825 96.024 374.953 95.896C381.993 90.072 388.137 85.112 393.385 81.016C395.177 79.416 397.257 77.592 399.625 75.544C400.009 74.264 400.841 73.08 402.121 71.992C403.401 70.84 404.681 70.264 405.961 70.264C406.985 70.2 407.625 70.84 407.881 72.184C408.073 73.336 407.625 74.2 406.537 74.776C405.513 75.352 404.201 76.12 402.601 77.08C401.961 78.104 401.641 79.608 401.641 81.592C401.641 82.744 401.801 84.6 402.121 87.16C402.441 89.656 402.601 91.448 402.601 92.536C402.601 96.312 401.737 99.224 400.009 101.272C401.737 101.016 403.241 100.568 404.521 99.928C409.321 97.56 412.905 94.904 415.273 91.96C415.465 91.704 415.689 91.704 415.945 91.96C416.137 92.216 416.105 92.472 415.849 92.728Z" fill="#E2856E"/>
</svg>
