<svg width="226" height="48" viewBox="0 0 226 48" fill="none" xmlns="http://www.w3.org/2000/svg">
<path d="M35.392 4.608L35.152 12.528C35.152 16.88 35.28 20.784 35.536 24.24C35.792 27.664 36.368 31.392 37.264 35.424C36.56 36 35.44 36.288 33.904 36.288C30.928 36.288 29.44 34.992 29.44 32.4C29.44 30.256 29.536 26.976 29.728 22.56C29.952 18.144 30.064 14.688 30.064 12.192C28.336 14.688 26.512 17.776 24.592 21.456C22.704 25.104 21.76 27.344 21.76 28.176C21.76 29.008 21.84 29.648 22 30.096C21.296 30.544 20.352 30.768 19.168 30.768C18.016 30.768 17.04 30.448 16.24 29.808C15.472 29.168 14.816 28.288 14.272 27.168C13.76 26.048 12.832 23.856 11.488 20.592C10.176 17.296 8.976 14.464 7.888 12.096C7.056 17.248 6.64 21.808 6.64 25.776C6.64 29.744 6.768 32.96 7.024 35.424C6 35.808 4.976 36 3.952 36C1.904 36 0.88 34.976 0.88 32.928C0.88 31.36 1.232 28.24 1.936 23.568C2.672 18.864 3.04 14.896 3.04 11.664C3.04 8.432 2.864 5.408 2.512 2.592C4.24 2.144 5.584 1.92 6.544 1.92C8.304 1.92 9.488 2.544 10.096 3.792C11.056 5.808 12.464 9.024 14.32 13.44C16.208 17.824 17.744 21.2 18.928 23.568C19.248 22.896 19.984 21.456 21.136 19.248C22.32 17.008 23.296 15.104 24.064 13.536C24.864 11.936 25.664 10.048 26.464 7.872C27.296 5.664 27.824 3.744 28.048 2.112C29.2 1.792 30.32 1.632 31.408 1.632C32.528 1.632 33.472 1.872 34.24 2.352C35.008 2.832 35.392 3.584 35.392 4.608ZM42.4146 28.032L42.8946 21.12C42.8946 18.016 42.4466 15.072 41.5506 12.288C42.4466 11.904 43.5506 11.712 44.8626 11.712C47.4226 11.712 48.7026 13.136 48.7026 15.984C48.7026 17.264 48.5266 19.072 48.1746 21.408C47.8226 23.744 47.6466 25.36 47.6466 26.256C47.6466 27.12 47.6626 27.76 47.6946 28.176C47.7266 28.56 47.8066 29.024 47.9346 29.568C48.1266 30.656 48.7506 31.2 49.8066 31.2C50.8946 31.2 52.0466 30.352 53.2626 28.656C54.5106 26.928 55.5026 25.024 56.2386 22.944C57.0066 20.864 57.3906 19.216 57.3906 18C57.2306 15.472 56.9586 13.568 56.5746 12.288C57.5986 11.904 58.6386 11.712 59.6946 11.712C60.7826 11.712 61.6786 12.048 62.3826 12.72C63.1186 13.392 63.4866 14.288 63.4866 15.408C63.4866 32.88 60.2866 43.36 53.8866 46.848C52.4466 47.616 50.8146 48 48.9906 48C47.1666 48 45.5666 47.52 44.1906 46.56C42.8466 45.6 42.1746 44.256 42.1746 42.528C42.1746 41.376 42.6066 40.4 43.4706 39.6C44.3346 38.832 45.3586 38.448 46.5426 38.448C46.7986 38.448 47.1186 38.48 47.5026 38.544C47.4066 38.96 47.3586 39.328 47.3586 39.648C47.3586 42.464 48.3346 43.872 50.2866 43.872C51.4706 43.872 52.5426 43.232 53.5026 41.952C54.4626 40.672 55.2306 39.104 55.8066 37.248C56.9266 33.472 57.4866 30.048 57.4866 26.976C56.5266 29.568 55.2146 31.664 53.5506 33.264C51.9186 34.832 50.1426 35.616 48.2226 35.616C44.3506 35.616 42.4146 33.088 42.4146 28.032Z" fill="#333333"/>
<path d="M96.8939 1.344C99.6779 1.344 102.11 2.16 104.19 3.792C106.27 5.424 107.31 7.536 107.31 10.128C107.31 11.504 106.926 12.64 106.158 13.536C105.39 14.432 104.446 14.88 103.326 14.88C102.206 14.88 101.31 14.736 100.638 14.448C100.734 13.936 100.782 13.392 100.782 12.816C100.75 10.8 100.254 9.168 99.2939 7.92C98.3339 6.64 96.9259 6 95.0699 6C93.2459 6 91.5499 6.592 89.9819 7.776C89.0539 9.12 88.3339 10.88 87.8219 13.056C87.3099 15.232 87.0539 17.376 87.0539 19.488C87.0539 23.008 87.7259 25.968 89.0699 28.368C90.4459 30.736 92.5739 31.92 95.4539 31.92C98.1099 31.92 99.9019 30.912 100.83 28.896C101.694 27.136 102.126 24.8 102.126 21.888C103.758 21.888 105.118 22.192 106.206 22.8C107.294 23.376 107.838 24.336 107.838 25.68C107.838 28.816 106.462 31.424 103.71 33.504C100.958 35.552 97.8539 36.576 94.3979 36.576C89.8859 36.576 86.4619 35.088 84.1259 32.112C81.7899 29.104 80.6219 25.04 80.6219 19.92C80.6219 14.8 82.0779 10.432 84.9899 6.816C87.9339 3.168 91.9019 1.344 96.8939 1.344ZM111.837 0.575998C112.861 0.191998 113.917 -2.86102e-06 115.005 -2.86102e-06C116.093 -2.86102e-06 116.989 0.367997 117.693 1.104C118.429 1.808 118.797 2.784 118.797 4.032C118.797 5.248 118.621 7.712 118.269 11.424C117.949 15.104 117.789 18 117.789 20.112C117.789 25.328 118.157 30.432 118.893 35.424C117.869 35.808 116.781 36 115.629 36C113.165 36 111.933 34.8 111.933 32.4C111.933 31.248 112.109 28.992 112.461 25.632C112.813 22.24 112.989 19.52 112.989 17.472C112.989 10.656 112.605 5.024 111.837 0.575998ZM124.391 12.144C125.415 11.856 126.439 11.712 127.463 11.712C128.519 11.712 129.415 12.032 130.151 12.672C130.887 13.312 131.255 14.144 131.255 15.168C131.255 16.16 131.079 17.904 130.727 20.4C130.407 22.864 130.247 24.784 130.247 26.16C130.247 29.744 130.583 32.832 131.255 35.424C130.263 35.808 129.191 36 128.039 36C126.887 36 125.975 35.744 125.303 35.232C124.631 34.688 124.295 33.92 124.295 32.928C124.295 31.904 124.487 30.24 124.871 27.936C125.255 25.632 125.447 23.728 125.447 22.224C125.447 18.224 125.095 14.864 124.391 12.144ZM125.015 1.296C126.135 0.783998 127.239 0.527999 128.327 0.527999C129.415 0.527999 130.215 0.815999 130.727 1.392C131.271 1.936 131.543 2.752 131.543 3.84C131.543 4.928 131.175 5.888 130.439 6.72C129.735 7.552 128.807 7.968 127.655 7.968C125.287 7.968 124.103 6.736 124.103 4.272C124.103 3.184 124.407 2.192 125.015 1.296ZM140.754 25.104C140.754 27.408 141.122 29.232 141.858 30.576C142.594 31.888 143.826 32.544 145.554 32.544C147.282 32.544 148.626 31.968 149.586 30.816C150.578 29.632 151.074 28.208 151.074 26.544C152.162 26.544 153.106 26.816 153.906 27.36C154.706 27.904 155.106 28.656 155.106 29.616C155.106 31.6 154.05 33.264 151.938 34.608C149.826 35.92 147.602 36.576 145.266 36.576C141.618 36.576 138.978 35.6 137.346 33.648C135.714 31.664 134.898 28.736 134.898 24.864C134.898 20.992 135.986 17.744 138.162 15.12C140.37 12.464 143.298 11.136 146.946 11.136C149.442 11.136 151.442 11.712 152.946 12.864C154.482 13.984 155.25 15.744 155.25 18.144C155.25 20.512 154.162 22.304 151.986 23.52C149.842 24.704 147.218 25.296 144.114 25.296C143.026 25.296 141.906 25.232 140.754 25.104ZM140.802 21.312C141.762 21.504 142.77 21.6 143.826 21.6C146.13 21.6 148.066 21.168 149.634 20.304C149.826 19.536 149.922 18.928 149.922 18.48C149.922 17.36 149.522 16.512 148.722 15.936C147.922 15.36 146.818 15.072 145.41 15.072C144.034 15.072 142.786 15.52 141.666 16.416C141.09 18.08 140.802 19.712 140.802 21.312ZM182.145 16.608L181.665 27.168C181.665 30.08 182.113 32.928 183.009 35.712C182.113 36.096 181.089 36.288 179.937 36.288C177.217 36.288 175.857 34.768 175.857 31.728C175.857 30.352 176.033 28.048 176.385 24.816C176.737 21.552 176.913 19.504 176.913 18.672C176.913 17.072 176.193 16.272 174.753 16.272C173.697 16.272 172.497 17.04 171.153 18.576C169.841 20.08 168.705 21.776 167.745 23.664C166.817 25.52 166.273 27.056 166.113 28.272C166.241 30.768 166.561 33.152 167.073 35.424C166.049 35.808 164.977 36 163.857 36C162.769 36 161.873 35.744 161.169 35.232C160.497 34.688 160.161 33.952 160.161 33.024C160.161 32.064 160.305 30.368 160.593 27.936C160.881 25.472 161.025 23.04 161.025 20.64C161.025 18.208 160.657 15.424 159.921 12.288C160.945 11.904 162.033 11.712 163.185 11.712C164.337 11.712 165.265 12.048 165.969 12.72C166.705 13.392 167.073 14.224 167.073 15.216C167.073 16.208 166.945 17.792 166.689 19.968C167.905 17.696 169.489 15.712 171.441 14.016C173.393 12.288 175.345 11.424 177.297 11.424C180.529 11.424 182.145 13.152 182.145 16.608ZM189.774 4.656C190.798 4.144 191.838 3.888 192.894 3.888C193.95 3.888 194.798 4.224 195.438 4.896C196.11 5.568 196.446 6.56 196.446 7.872C196.446 9.184 196.366 10.672 196.206 12.336C198.606 12.336 200.894 12 203.07 11.328C203.454 11.968 203.646 12.72 203.646 13.584C203.646 14.416 203.262 15.104 202.494 15.648C201.758 16.16 201.006 16.416 200.238 16.416C199.47 16.416 198.606 16.32 197.646 16.128C196.686 15.936 196.062 15.824 195.774 15.792C195.742 16.08 195.646 16.656 195.486 17.52C195.358 18.384 195.246 19.136 195.15 19.776C194.894 21.536 194.766 23.424 194.766 25.44C194.766 29.824 196.19 32.016 199.038 32.016C200.094 32.016 201.31 31.648 202.686 30.912C203.102 31.52 203.31 32.304 203.31 33.264C203.31 34.224 202.782 34.976 201.726 35.52C200.702 36.032 199.47 36.288 198.03 36.288C192.398 36.288 189.582 33.088 189.582 26.688C189.582 25.76 189.71 24.08 189.966 21.648C190.254 19.216 190.398 17.248 190.398 15.744C188.862 15.84 187.63 16.112 186.702 16.56C186.318 15.984 186.126 15.328 186.126 14.592C186.126 13.824 186.398 13.2 186.942 12.72C187.486 12.208 188.158 11.952 188.958 11.952C189.758 11.952 190.286 11.968 190.542 12C190.574 11.744 190.59 11.408 190.59 10.992C190.59 8.592 190.318 6.48 189.774 4.656ZM211.112 27.264C211.016 27.712 210.968 28.08 210.968 28.368C210.968 29.68 211.352 30.688 212.12 31.392C212.92 32.096 213.976 32.448 215.288 32.448C216.632 32.448 217.736 32.208 218.6 31.728C219.496 31.216 219.944 30.464 219.944 29.472C219.944 28.48 219.464 27.696 218.504 27.12C217.576 26.512 216.44 26.032 215.096 25.68C213.784 25.328 212.456 24.944 211.112 24.528C209.768 24.08 208.616 23.392 207.656 22.464C206.728 21.536 206.264 20.368 206.264 18.96C206.264 16.752 207.432 14.896 209.768 13.392C212.104 11.888 214.552 11.136 217.112 11.136C219.928 11.136 222.072 11.712 223.544 12.864C224.408 13.536 224.84 14.432 224.84 15.552C224.84 16.64 224.408 17.536 223.544 18.24C222.712 18.912 221.688 19.248 220.472 19.248C220.216 19.248 219.896 19.216 219.512 19.152C219.608 18.736 219.656 18.368 219.656 18.048C219.656 17.12 219.304 16.416 218.6 15.936C217.896 15.456 216.936 15.216 215.72 15.216C214.536 15.216 213.448 15.456 212.456 15.936C212.072 16.448 211.88 17.104 211.88 17.904C211.88 18.704 212.344 19.36 213.272 19.872C214.2 20.352 215.32 20.784 216.632 21.168C217.976 21.52 219.32 21.936 220.664 22.416C222.008 22.864 223.144 23.584 224.072 24.576C225 25.536 225.464 26.752 225.464 28.224C225.464 30.624 224.264 32.624 221.864 34.224C219.496 35.792 217.048 36.576 214.52 36.576C211.992 36.576 209.896 36.128 208.232 35.232C206.6 34.304 205.784 32.912 205.784 31.056C205.784 29.904 206.2 28.976 207.032 28.272C207.896 27.536 208.936 27.168 210.152 27.168C210.408 27.168 210.728 27.2 211.112 27.264Z" fill="#E2856E"/>
</svg>
