<svg width="458" height="172" viewBox="0 0 458 172" fill="none" xmlns="http://www.w3.org/2000/svg">
<path d="M87.872 55.48C86.976 59.448 84.736 65.144 81.152 72.568C77.44 80.376 75.104 86.104 74.144 89.752C73.632 91.672 73.376 94.168 73.376 97.24C73.376 104.856 74.752 109.912 77.504 112.408C78.912 113.24 79.424 114.104 79.04 115C78.784 115.576 78.24 115.928 77.408 116.056C76.96 116.12 76.384 116.056 75.68 115.864C72.096 113.944 70.304 108.92 70.304 100.792C70.304 96.312 70.816 92.248 71.84 88.6C73.184 83.736 76.512 75.032 81.824 62.488C83.168 59.352 83.84 56.568 83.84 54.136C83.84 52.728 83.488 51.96 82.784 51.832C81.12 51.512 78.176 52.888 73.952 55.96C69.792 59.032 66.4 62.232 63.776 65.56C58.208 72.664 53.504 79.992 49.664 87.544C47.936 90.872 45.312 95.928 41.792 102.712C40.96 104.632 39.936 105.592 38.72 105.592C38.528 105.592 38.368 105.56 38.24 105.496C37.344 104.984 37.216 103.928 37.856 102.328C38.176 101.752 38.496 101.016 38.816 100.12C39.904 98.136 41.472 95.16 43.52 91.192C51.264 75.832 58.496 59.608 65.216 42.52C66.24 39.832 66.752 37.72 66.752 36.184C66.752 35.288 66.176 34.84 65.024 34.84C62.336 34.84 58.816 36.088 54.464 38.584C49.664 41.336 45.472 44.76 41.888 48.856C38.368 56.472 34.944 63.48 31.616 69.88C27.904 77.88 22.336 89.4 14.912 104.44C14.784 104.888 14.24 105.4 13.28 105.976C12.96 106.296 12.416 106.424 11.648 106.36C10.816 106.36 10.272 106.2 10.016 105.88C9.184 105.24 9.216 104.472 10.112 103.576C17.92 89.88 28.448 69.432 41.696 42.232C48.16 28.984 51.392 19.256 51.392 13.048C51.392 11.064 51.008 9.496 50.24 8.344C48.768 6.104 45.12 4.824 39.296 4.504C29.248 3.992 19.904 8.12 11.264 16.888C7.552 20.664 5.696 24.248 5.696 27.64C5.696 28.536 5.824 29.4 6.08 30.232C7.104 32.152 8.992 33.112 11.744 33.112C13.088 33.112 14.496 32.824 15.968 32.248C16.608 32.184 16.992 32.472 17.12 33.112C17.184 33.56 16.928 33.944 16.352 34.264C12.832 35.608 9.888 36.28 7.52 36.28C4.512 36.28 2.432 35.224 1.28 33.112C0.768 32.152 0.512 31.096 0.512 29.944C0.512 27 2.176 23.448 5.504 19.288C9.792 13.976 15.168 9.4 21.632 5.56C27.584 2.04 33.664 0.280004 39.872 0.280004C45.76 0.280004 50.304 2.008 53.504 5.464C54.464 6.936 54.944 8.888 54.944 11.32C54.944 15.672 52.096 24.792 46.4 38.68C45.824 40.152 45.312 41.304 44.864 42.136C51.776 35.224 59.072 30.904 66.752 29.176C69.504 28.536 71.136 28.92 71.648 30.328C71.968 31.224 72.128 32.216 72.128 33.304C72.128 34.968 71.552 37.4 70.4 40.6C68.8 44.824 64.768 54.104 58.304 68.44C64.96 60.632 68.64 56.344 69.344 55.576C74.08 50.84 78.72 47.96 83.264 46.936C83.648 46.872 84 46.84 84.32 46.84C86.24 46.84 87.424 48.12 87.872 50.68C88.192 52.472 88.192 54.072 87.872 55.48ZM125.245 91.768C125.501 91.896 125.436 92.12 125.052 92.44C122.748 94.552 119.197 97.464 114.397 101.176C109.02 105.336 102.108 110.264 93.6605 115.96C87.3245 126.456 81.6605 135.384 76.6685 142.744C67.9005 155.672 59.9965 164.6 52.9565 169.528C50.9725 170.744 49.3725 171.352 48.1565 171.352C45.2765 171.352 43.7725 169.976 43.6445 167.224C43.5165 163.576 45.0525 159.192 48.2525 154.072C49.9805 151.256 54.3325 146.008 61.3085 138.328C66.8125 132.184 74.5885 125.72 84.6365 118.936C86.4925 117.656 89.2125 115.8 92.7965 113.368C96.0605 108.056 101.084 100.12 107.868 89.56C100.06 97.048 93.3725 100.92 87.8045 101.176C86.5885 101.24 85.5965 100.92 84.8285 100.216C84.0605 99.448 83.7405 98.552 83.8685 97.528C84.1245 95.16 85.6925 91.672 88.5725 87.064C90.6845 83.672 92.6045 80.984 94.3325 79C94.9725 78.232 95.7085 77.592 96.5405 77.08C97.0525 76.76 97.5965 76.696 98.1725 76.888C98.2365 77.08 98.3325 77.304 98.4605 77.56C98.7165 78.264 98.4605 79.16 97.6925 80.248C95.7725 82.872 94.3325 84.92 93.3725 86.392C90.9405 90.104 89.2445 93.304 88.2845 95.992C88.0925 96.44 88.0925 96.92 88.2845 97.432C88.4765 97.944 88.8605 98.2 89.4365 98.2C95.3245 97.944 103.932 91.16 115.26 77.848C115.58 77.464 115.932 77.272 116.317 77.272C116.957 77.272 117.276 77.592 117.276 78.232C117.276 78.488 117.18 78.744 116.988 79C112.061 86.552 105.309 97.144 96.7325 110.776C101.212 107.896 106.556 104.44 112.765 100.408C117.948 97.08 121.916 94.232 124.669 91.864C124.861 91.672 125.053 91.64 125.245 91.768ZM89.4365 118.648C88.4125 119.352 87.0045 120.312 85.2125 121.528C75.8045 127.736 68.5085 133.72 63.3245 139.48C59.8045 143.32 56.1565 147.928 52.3805 153.304C49.5645 157.272 48.1565 160.824 48.1565 163.96C48.1565 164.664 48.2525 165.272 48.4445 165.784C48.6365 166.296 49.1485 166.584 49.9805 166.648C50.8765 166.712 51.6765 166.488 52.3805 165.976C59.1645 161.496 66.5245 153.464 74.4605 141.88C78.7485 135.672 83.7405 127.928 89.4365 118.648Z" fill="#333333"/>
<path d="M235.822 28.792C236.59 31.032 236.974 33.496 236.974 36.184C236.974 40.984 235.758 45.624 233.326 50.104C229.742 56.568 225.582 62.296 220.846 67.288C213.102 75.416 204.91 79.448 196.27 79.384C192.366 79.384 189.23 78.2 186.862 75.832C185.326 78.52 183.118 82.232 180.238 86.968C177.422 91.704 175.342 94.968 173.998 96.76C171.502 100.344 168.974 103.16 166.414 105.208C165.582 105.848 164.75 106.136 163.918 106.072C163.15 106.008 162.51 105.624 161.998 104.92C160.526 102.424 160.526 98.808 161.998 94.072C162.19 93.432 162.606 93.24 163.246 93.496C163.63 93.688 163.886 94.072 164.014 94.648C163.886 98.168 164.206 100.216 164.974 100.792C165.294 101.048 165.902 100.792 166.798 100.024C170.126 97.144 173.102 93.624 175.726 89.464C178.926 84.408 182.094 79.128 185.23 73.624C183.95 71.32 183.566 68.472 184.078 65.08C184.398 62.904 185.486 60.856 187.342 58.936C189.262 57.016 191.31 56.152 193.486 56.344C193.934 56.408 194.286 56.472 194.542 56.536C196.782 52.248 200.174 45.784 204.718 37.144C206.382 33.816 209.038 28.888 212.686 22.36C208.59 23.064 203.374 24.984 197.038 28.12C191.406 30.936 187.47 33.912 185.23 37.048C183.822 39.032 183.31 40.408 183.694 41.176C183.694 41.56 183.534 41.816 183.214 41.944C182.894 42.136 182.67 42.104 182.542 41.848C181.902 40.312 182.19 38.424 183.406 36.184C185.134 32.856 189.006 29.528 195.022 26.2C203.15 21.72 209.934 19 215.374 18.04C218.254 13.688 220.686 11.128 222.67 10.36C223.438 10.104 223.918 10.296 224.11 10.936C224.302 11.512 224.014 11.992 223.246 12.376C221.582 13.528 219.982 15.32 218.446 17.752C220.814 17.56 223.214 17.816 225.646 18.52C230.51 19.928 233.902 23.352 235.822 28.792ZM231.502 47.128C232.91 43.928 233.614 40.76 233.614 37.624C233.614 34.296 232.814 31.352 231.214 28.792C229.102 25.4 226.382 23.288 223.054 22.456C221.07 21.944 218.798 21.752 216.238 21.88C216.046 22.2 215.726 22.84 215.278 23.8C210.67 33.528 204.654 44.888 197.23 57.88C198.894 59.096 200.174 60.856 201.07 63.16C201.326 63.8 201.166 64.312 200.59 64.696C200.014 65.08 199.406 64.856 198.766 64.024C198.19 63.192 197.23 61.976 195.886 60.376L189.166 71.992C191.086 74.104 194.062 75.288 198.094 75.544C203.278 75.864 209.294 73.112 216.142 67.288C223.054 61.4 228.174 54.68 231.502 47.128ZM193.102 59.32C191.566 59.32 190.19 60.056 188.974 61.528C187.758 62.936 187.118 64.44 187.054 66.04C187.054 66.808 187.246 67.928 187.63 69.4L193.102 59.32ZM252.537 91.192C252.345 91.512 251.865 91.992 251.097 92.632C247.961 94.808 245.209 96.024 242.841 96.28C240.729 96.472 239.577 96.568 239.385 96.568C238.489 96.44 237.913 96.312 237.657 96.184C230.937 102.456 224.345 105.592 217.881 105.592C215.961 105.592 214.137 105.208 212.409 104.44C211.257 103.928 210.521 102.872 210.201 101.272C209.881 99.8 209.945 98.392 210.393 97.048C211.737 92.952 215.033 88.792 220.281 84.568C224.185 81.368 228.601 79.128 233.529 77.848C234.553 77.144 235.737 76.792 237.081 76.792C240.729 76.792 243.033 78.232 243.993 81.112C244.185 81.752 244.281 82.744 244.281 84.088C244.281 86.904 242.745 90.264 239.673 94.168C240.825 94.296 241.785 94.328 242.553 94.264C244.729 94.072 247.289 92.984 250.233 91C250.233 91 250.713 90.744 251.673 90.232C252.121 89.976 252.409 90.008 252.537 90.328C252.729 90.584 252.729 90.872 252.537 91.192ZM241.977 83.992C241.977 83.032 241.689 82.136 241.113 81.304C240.089 79.832 238.745 79.096 237.081 79.096C234.073 79.096 232.569 81.304 232.569 85.72C232.569 89.24 233.945 91.672 236.697 93.016C240.217 88.984 241.977 85.976 241.977 83.992ZM234.681 94.744C231.225 93.144 229.497 90.168 229.497 85.816C229.497 84.28 229.945 82.68 230.841 81.016C227.961 82.168 225.241 83.704 222.681 85.624C220.121 87.544 217.913 89.72 216.057 92.152C214.905 93.688 214.137 95.544 213.753 97.72C213.625 98.552 213.849 99.384 214.425 100.216C215.065 101.048 215.961 101.528 217.113 101.656C217.881 101.72 218.649 101.752 219.417 101.752C222.361 101.752 225.241 100.984 228.057 99.448C229.209 98.808 231.417 97.24 234.681 94.744ZM285.387 93.208C281.035 97.176 277.451 100.056 274.635 101.848C269.771 104.984 265.451 106.456 261.675 106.264C259.499 106.136 257.995 105.72 257.163 105.016C255.883 103.928 255.467 102.392 255.915 100.408C256.747 96.696 260.011 92.152 265.707 86.776C264.811 84.152 264.555 81.784 264.939 79.672C262.443 82.04 257.995 86.296 251.595 92.44C251.147 92.888 250.827 92.792 250.635 92.152C250.635 91.896 250.699 91.608 250.827 91.288C251.595 90.584 254.827 87.384 260.523 81.688C262.443 79.704 264.683 77.464 267.243 74.968C268.459 73.56 269.515 73.368 270.411 74.392C271.115 75.224 270.827 76.376 269.547 77.848C268.843 78.68 268.491 79.608 268.491 80.632C268.491 81.336 268.715 82.424 269.163 83.896C269.611 85.304 269.835 86.392 269.835 87.16C269.835 88.312 269.547 89.048 268.971 89.368C267.051 90.456 265.163 92.248 263.307 94.744C261.451 97.176 260.395 99.16 260.139 100.696C259.883 102.104 260.651 102.808 262.443 102.808C266.347 102.808 269.931 101.88 273.195 100.024C278.123 97.208 281.867 94.712 284.427 92.536C284.683 92.344 284.971 92.344 285.291 92.536C285.675 92.728 285.707 92.952 285.387 93.208ZM347.22 50.488C347.796 51.192 347.732 51.736 347.028 52.12C346.452 52.76 345.876 53.304 345.3 53.752C338.452 57.656 330.452 59.608 321.3 59.608C318.804 59.608 316.116 59.48 313.236 59.224C312.276 60.76 311.124 62.552 309.78 64.6C305.236 72.024 300.692 79.448 296.148 86.872C290.388 96.152 284.948 103.032 279.828 107.512C278.74 108.472 277.812 108.504 277.044 107.608C276.788 107.352 276.66 107.032 276.66 106.648C276.66 105.88 277.236 105.016 278.388 104.056C283.188 99.832 288.404 93.528 294.036 85.144C298.516 78.04 302.996 70.904 307.476 63.736C308.564 62.008 309.524 60.44 310.356 59.032C309.14 58.776 307.892 58.616 306.612 58.552C304.116 58.232 298.132 57.08 288.66 55.096C281.3 53.496 275.508 52.696 271.284 52.696C265.012 52.696 259.828 54.2 255.732 57.208C255.796 57.272 257.332 57.528 260.34 57.976C260.468 58.04 260.66 58.2 260.916 58.456C260.916 58.776 260.788 58.968 260.532 59.032C258.804 59.672 256.788 59.992 254.484 59.992C252.116 59.992 250.9 59.512 250.836 58.552C250.772 57.848 251.316 57.016 252.468 56.056C257.844 52.344 264.372 50.488 272.052 50.488C276.084 50.488 281.172 51.032 287.316 52.12C292.372 53.08 297.428 54.04 302.484 55C304.596 55.192 307.764 55.544 311.988 56.056C315.828 49.208 319.732 44.056 323.7 40.6L323.316 40.792C324.34 39.768 325.172 39.608 325.812 40.312C326.516 41.08 326.388 41.912 325.428 42.808C322.484 45.56 319.06 49.976 315.156 56.056C318.42 56.248 322.196 56.216 326.484 55.96C330.132 55.768 336.436 53.784 345.396 50.008C346.292 49.624 346.9 49.784 347.22 50.488ZM360.688 31C361.2 31.64 361.008 32.696 360.112 34.168C358.32 37.176 353.648 44.056 346.096 54.808C341.936 60.696 336.56 68.056 329.968 76.888C329.328 78.104 327.408 81.016 324.208 85.624C323.76 86.328 323.024 87.384 322 88.792C323.792 91.8 324.688 95 324.688 98.392C324.688 98.968 324.624 99.96 324.496 101.368H325.552C327.344 101.368 329.136 100.888 330.928 99.928C333.232 98.712 336.816 96.024 341.68 91.864C341.872 91.672 342.096 91.672 342.352 91.864C342.672 91.992 342.672 92.216 342.352 92.536C340.048 94.712 336.688 97.592 332.272 101.176C330.096 102.584 327.856 103.288 325.552 103.288H324.112C323.6 105.72 322.576 108.856 321.04 112.696C317.968 120.312 314.288 127.96 310 135.64C307.568 140.056 304.112 145.176 299.632 151C292.72 159.96 286.544 165.976 281.104 169.048C280.4 169.432 279.792 169.4 279.28 168.952C278.768 168.568 278.608 167.96 278.8 167.128C280.848 159.32 284.688 149.816 290.32 138.616C293.072 133.112 298.352 123.384 306.16 109.432C307.44 107.128 309.68 103.384 312.88 98.2C310.896 95.768 309.904 93.016 309.904 89.944C309.904 86.04 312.144 84.248 316.624 84.568C317.968 84.696 319.216 85.368 320.368 86.584C325.36 78.264 331.344 69.208 338.32 59.416C340.368 56.536 345.52 48.856 353.776 36.376C354.544 35.224 355.952 33.464 358 31.096C359.024 30.072 359.92 30.04 360.688 31ZM319.504 87.928C318.672 86.968 317.712 86.488 316.624 86.488C314.256 86.488 313.072 87.64 313.072 89.944C313.072 92.12 313.552 94.072 314.512 95.8C315.6 94.136 317.264 91.512 319.504 87.928ZM322.768 98.392C322.768 95.448 322.192 92.728 321.04 90.232C319.824 92.024 318.16 94.584 316.048 97.912C317.776 99.64 319.952 100.728 322.576 101.176C322.704 99.896 322.768 98.968 322.768 98.392ZM322.192 103.096C319.312 102.648 316.848 101.624 314.8 100.024C312.752 103.352 311.024 106.328 309.616 108.952C304.816 117.336 300.016 125.72 295.216 134.104C289.968 143.64 285.968 152.92 283.216 161.944C283.024 162.52 282.992 162.808 283.12 162.808C283.312 162.808 283.536 162.744 283.792 162.616C294.928 154.04 303.888 143.192 310.672 130.072C314.192 123.288 317.136 116.952 319.504 111.064C320.72 108.056 321.616 105.4 322.192 103.096ZM379.24 91.192C379.048 91.512 378.568 91.992 377.8 92.632C374.664 94.808 371.912 96.024 369.544 96.28C367.432 96.472 366.28 96.568 366.088 96.568C365.192 96.44 364.616 96.312 364.36 96.184C357.64 102.456 351.048 105.592 344.584 105.592C342.664 105.592 340.84 105.208 339.112 104.44C337.96 103.928 337.224 102.872 336.904 101.272C336.584 99.8 336.648 98.392 337.096 97.048C338.44 92.952 341.736 88.792 346.984 84.568C350.888 81.368 355.304 79.128 360.232 77.848C361.256 77.144 362.44 76.792 363.784 76.792C367.432 76.792 369.736 78.232 370.696 81.112C370.888 81.752 370.984 82.744 370.984 84.088C370.984 86.904 369.448 90.264 366.376 94.168C367.528 94.296 368.488 94.328 369.256 94.264C371.432 94.072 373.992 92.984 376.936 91C376.936 91 377.416 90.744 378.376 90.232C378.824 89.976 379.112 90.008 379.24 90.328C379.432 90.584 379.432 90.872 379.24 91.192ZM368.68 83.992C368.68 83.032 368.392 82.136 367.816 81.304C366.792 79.832 365.448 79.096 363.784 79.096C360.776 79.096 359.272 81.304 359.272 85.72C359.272 89.24 360.648 91.672 363.4 93.016C366.92 88.984 368.68 85.976 368.68 83.992ZM361.384 94.744C357.928 93.144 356.2 90.168 356.2 85.816C356.2 84.28 356.648 82.68 357.544 81.016C354.664 82.168 351.944 83.704 349.384 85.624C346.824 87.544 344.616 89.72 342.76 92.152C341.608 93.688 340.84 95.544 340.456 97.72C340.328 98.552 340.552 99.384 341.128 100.216C341.768 101.048 342.664 101.528 343.816 101.656C344.584 101.72 345.352 101.752 346.12 101.752C349.064 101.752 351.944 100.984 354.76 99.448C355.912 98.808 358.12 97.24 361.384 94.744ZM433.21 16.12C433.082 20.92 429.466 27.96 422.362 37.24C418.202 42.68 409.498 51.8 396.25 64.6L389.53 71.128C387.93 73.624 386.138 76.472 384.154 79.672C380.506 86.84 378.426 92.184 377.914 95.704C377.402 99.416 378.682 101.272 381.754 101.272C383.61 101.272 385.146 100.92 386.362 100.216C390.458 97.912 394.138 95.352 397.402 92.536C397.658 92.344 397.946 92.344 398.266 92.536C398.65 92.728 398.682 92.952 398.362 93.208C393.498 97.624 389.978 100.536 387.802 101.944C385.37 103.48 382.97 104.248 380.602 104.248C377.082 104.248 375.162 102.648 374.842 99.448C374.33 93.816 376.73 86.52 382.042 77.56C386.202 70.264 392.218 60.312 400.09 47.704C408.986 35.096 419.002 23.96 430.138 14.296C430.97 13.592 431.77 13.496 432.538 14.008C432.986 14.328 433.21 15.032 433.21 16.12ZM430.426 19.384C430.426 18.488 429.946 18.52 428.986 19.48C421.882 24.856 413.338 34.712 403.354 49.048C398.874 55.576 395.194 61.272 392.314 66.136C392.954 65.496 393.882 64.568 395.098 63.352C399.578 58.936 404.026 54.552 408.442 50.2C413.37 45.144 417.498 40.44 420.826 36.088C424.154 31.736 426.138 29.08 426.778 28.12C428.826 24.92 430.042 22.008 430.426 19.384ZM419.657 65.176C419.657 65.944 419.401 67.032 418.889 68.44C417.929 69.656 417.001 70.168 416.105 69.976C414.569 69.656 413.993 68.76 414.377 67.288C414.377 67.224 415.017 66.328 416.297 64.6L417.353 63.544C417.673 63.224 417.993 63 418.313 62.872C418.441 62.616 418.633 62.616 418.889 62.872C419.209 63.128 419.465 63.896 419.657 65.176ZM417.737 93.688C413.065 97.976 409.609 100.824 407.369 102.232C404.745 103.896 402.345 104.664 400.169 104.536C397.929 104.408 396.265 103.896 395.177 103C394.089 102.04 393.545 100.76 393.545 99.16C393.545 96.6 394.633 93.848 396.809 90.904C398.025 89.112 400.041 86.328 402.857 82.552C403.497 81.656 404.745 80.056 406.601 77.752C406.985 77.304 407.721 76.568 408.809 75.544C409.705 74.648 410.537 74.936 411.305 76.408C411.433 76.792 411.145 77.432 410.441 78.328C410.185 78.712 409.673 79.384 408.905 80.344C403.593 86.68 399.913 91.992 397.865 96.28C397.609 96.728 397.481 97.272 397.481 97.912C397.481 100.344 398.761 101.56 401.321 101.56C403.177 101.56 404.713 101.208 405.929 100.504C410.089 98.136 413.705 95.64 416.777 93.016C417.033 92.824 417.321 92.824 417.641 93.016C418.025 93.208 418.057 93.432 417.737 93.688ZM457.428 91.192C457.236 91.512 456.756 91.992 455.988 92.632C452.852 94.808 450.1 96.024 447.732 96.28C445.62 96.472 444.468 96.568 444.276 96.568C443.38 96.44 442.804 96.312 442.548 96.184C435.828 102.456 429.236 105.592 422.772 105.592C420.852 105.592 419.028 105.208 417.3 104.44C416.148 103.928 415.412 102.872 415.092 101.272C414.772 99.8 414.836 98.392 415.284 97.048C416.628 92.952 419.924 88.792 425.172 84.568C429.076 81.368 433.492 79.128 438.42 77.848C439.444 77.144 440.628 76.792 441.972 76.792C445.62 76.792 447.924 78.232 448.884 81.112C449.076 81.752 449.172 82.744 449.172 84.088C449.172 86.904 447.636 90.264 444.564 94.168C445.716 94.296 446.676 94.328 447.444 94.264C449.62 94.072 452.18 92.984 455.124 91C455.124 91 455.604 90.744 456.564 90.232C457.012 89.976 457.3 90.008 457.428 90.328C457.62 90.584 457.62 90.872 457.428 91.192ZM446.868 83.992C446.868 83.032 446.58 82.136 446.004 81.304C444.98 79.832 443.636 79.096 441.972 79.096C438.964 79.096 437.46 81.304 437.46 85.72C437.46 89.24 438.836 91.672 441.588 93.016C445.108 88.984 446.868 85.976 446.868 83.992ZM439.572 94.744C436.116 93.144 434.388 90.168 434.388 85.816C434.388 84.28 434.836 82.68 435.732 81.016C432.852 82.168 430.132 83.704 427.572 85.624C425.012 87.544 422.804 89.72 420.948 92.152C419.796 93.688 419.028 95.544 418.644 97.72C418.516 98.552 418.74 99.384 419.316 100.216C419.956 101.048 420.852 101.528 422.004 101.656C422.772 101.72 423.54 101.752 424.308 101.752C427.252 101.752 430.132 100.984 432.948 99.448C434.1 98.808 436.308 97.24 439.572 94.744Z" fill="#E2856E"/>
</svg>
