<svg width="263" height="48" viewBox="0 0 263 48" fill="none" xmlns="http://www.w3.org/2000/svg">
<path d="M35.392 4.608L35.152 12.528C35.152 16.88 35.28 20.784 35.536 24.24C35.792 27.664 36.368 31.392 37.264 35.424C36.56 36 35.44 36.288 33.904 36.288C30.928 36.288 29.44 34.992 29.44 32.4C29.44 30.256 29.536 26.976 29.728 22.56C29.952 18.144 30.064 14.688 30.064 12.192C28.336 14.688 26.512 17.776 24.592 21.456C22.704 25.104 21.76 27.344 21.76 28.176C21.76 29.008 21.84 29.648 22 30.096C21.296 30.544 20.352 30.768 19.168 30.768C18.016 30.768 17.04 30.448 16.24 29.808C15.472 29.168 14.816 28.288 14.272 27.168C13.76 26.048 12.832 23.856 11.488 20.592C10.176 17.296 8.976 14.464 7.888 12.096C7.056 17.248 6.64 21.808 6.64 25.776C6.64 29.744 6.768 32.96 7.024 35.424C6 35.808 4.976 36 3.952 36C1.904 36 0.88 34.976 0.88 32.928C0.88 31.36 1.232 28.24 1.936 23.568C2.672 18.864 3.04 14.896 3.04 11.664C3.04 8.432 2.864 5.408 2.512 2.592C4.24 2.144 5.584 1.92 6.544 1.92C8.304 1.92 9.488 2.544 10.096 3.792C11.056 5.808 12.464 9.024 14.32 13.44C16.208 17.824 17.744 21.2 18.928 23.568C19.248 22.896 19.984 21.456 21.136 19.248C22.32 17.008 23.296 15.104 24.064 13.536C24.864 11.936 25.664 10.048 26.464 7.872C27.296 5.664 27.824 3.744 28.048 2.112C29.2 1.792 30.32 1.632 31.408 1.632C32.528 1.632 33.472 1.872 34.24 2.352C35.008 2.832 35.392 3.584 35.392 4.608ZM42.4146 28.032L42.8946 21.12C42.8946 18.016 42.4466 15.072 41.5506 12.288C42.4466 11.904 43.5506 11.712 44.8626 11.712C47.4226 11.712 48.7026 13.136 48.7026 15.984C48.7026 17.264 48.5266 19.072 48.1746 21.408C47.8226 23.744 47.6466 25.36 47.6466 26.256C47.6466 27.12 47.6626 27.76 47.6946 28.176C47.7266 28.56 47.8066 29.024 47.9346 29.568C48.1266 30.656 48.7506 31.2 49.8066 31.2C50.8946 31.2 52.0466 30.352 53.2626 28.656C54.5106 26.928 55.5026 25.024 56.2386 22.944C57.0066 20.864 57.3906 19.216 57.3906 18C57.2306 15.472 56.9586 13.568 56.5746 12.288C57.5986 11.904 58.6386 11.712 59.6946 11.712C60.7826 11.712 61.6786 12.048 62.3826 12.72C63.1186 13.392 63.4866 14.288 63.4866 15.408C63.4866 32.88 60.2866 43.36 53.8866 46.848C52.4466 47.616 50.8146 48 48.9906 48C47.1666 48 45.5666 47.52 44.1906 46.56C42.8466 45.6 42.1746 44.256 42.1746 42.528C42.1746 41.376 42.6066 40.4 43.4706 39.6C44.3346 38.832 45.3586 38.448 46.5426 38.448C46.7986 38.448 47.1186 38.48 47.5026 38.544C47.4066 38.96 47.3586 39.328 47.3586 39.648C47.3586 42.464 48.3346 43.872 50.2866 43.872C51.4706 43.872 52.5426 43.232 53.5026 41.952C54.4626 40.672 55.2306 39.104 55.8066 37.248C56.9266 33.472 57.4866 30.048 57.4866 26.976C56.5266 29.568 55.2146 31.664 53.5506 33.264C51.9186 34.832 50.1426 35.616 48.2226 35.616C44.3506 35.616 42.4146 33.088 42.4146 28.032Z" fill="#333333"/>
<path d="M82.3499 3.456C85.9339 2.24 89.6459 1.632 93.4859 1.632C97.3259 1.632 100.51 2.448 103.038 4.08C105.566 5.712 106.83 8.208 106.83 11.568C106.83 14.928 105.646 17.76 103.278 20.064C100.91 22.336 98.0619 23.472 94.7339 23.472C92.3019 23.472 91.0859 22.544 91.0859 20.688C91.0859 20.112 91.1979 19.504 91.4219 18.864C92.2859 19.088 93.0699 19.2 93.7739 19.2C95.9819 19.2 97.6459 18.592 98.7659 17.376C99.9179 16.16 100.494 14.48 100.494 12.336C100.494 10.16 99.8859 8.544 98.6699 7.488C97.4539 6.432 95.7579 5.904 93.5819 5.904C92.4619 5.904 91.1019 6.096 89.5019 6.48C89.2459 10.416 89.1179 13.904 89.1179 16.944C89.1179 25.456 89.4539 31.616 90.1259 35.424C89.1019 35.808 88.0139 36 86.8619 36C85.7099 36 84.7019 35.632 83.8379 34.896C83.0059 34.16 82.5899 33.184 82.5899 31.968C82.5899 30.752 82.7499 28.64 83.0699 25.632C83.3899 22.592 83.5499 20.16 83.5499 18.336C83.5499 12.768 83.1499 7.808 82.3499 3.456ZM116.388 36.576C112.868 36.576 110.276 35.552 108.612 33.504C106.948 31.424 106.116 28.544 106.116 24.864C106.116 21.152 107.22 17.936 109.428 15.216C111.636 12.496 114.468 11.136 117.924 11.136C125.028 11.136 128.58 15.136 128.58 23.136C128.58 26.88 127.428 30.064 125.124 32.688C122.82 35.28 119.908 36.576 116.388 36.576ZM112.932 16.416C112.356 18.272 112.068 20.128 112.068 21.984C112.068 23.84 112.132 25.28 112.26 26.304C112.388 27.328 112.628 28.352 112.98 29.376C113.716 31.456 115.156 32.496 117.3 32.496C119.476 32.496 120.9 31.92 121.572 30.768C122.276 29.616 122.628 27.84 122.628 25.44C122.628 18.624 121.012 15.216 117.78 15.216C115.924 15.216 114.308 15.616 112.932 16.416ZM139.411 35.424C138.419 35.808 137.363 36 136.243 36C135.123 36 134.211 35.744 133.507 35.232C132.835 34.688 132.499 33.952 132.499 33.024C132.499 32.064 132.643 30.336 132.931 27.84C133.219 25.344 133.363 22.928 133.363 20.592C133.363 18.224 132.995 15.456 132.259 12.288C133.283 11.904 134.291 11.712 135.283 11.712C136.275 11.712 137.123 12.048 137.827 12.72C138.563 13.392 138.931 14.288 138.931 15.408C138.931 15.984 138.835 16.848 138.643 18C138.451 19.12 138.339 19.968 138.307 20.544C139.555 17.696 141.027 15.472 142.723 13.872C144.451 12.24 146.163 11.424 147.859 11.424C149.043 11.424 149.987 11.84 150.691 12.672C151.395 13.504 151.747 14.56 151.747 15.84C151.747 17.088 151.427 18.112 150.787 18.912C150.147 19.68 149.347 20.064 148.387 20.064C147.459 20.064 146.707 19.968 146.131 19.776C146.227 19.392 146.275 19.04 146.275 18.72C146.275 17.408 145.811 16.752 144.883 16.752C143.475 16.752 142.147 18.176 140.899 21.024C139.683 23.84 138.867 26.48 138.451 28.944C138.611 31.344 138.931 33.504 139.411 35.424ZM156.165 4.656C157.189 4.144 158.229 3.888 159.285 3.888C160.341 3.888 161.189 4.224 161.829 4.896C162.501 5.568 162.837 6.56 162.837 7.872C162.837 9.184 162.757 10.672 162.597 12.336C164.997 12.336 167.285 12 169.461 11.328C169.845 11.968 170.037 12.72 170.037 13.584C170.037 14.416 169.653 15.104 168.885 15.648C168.149 16.16 167.397 16.416 166.629 16.416C165.861 16.416 164.997 16.32 164.037 16.128C163.077 15.936 162.453 15.824 162.165 15.792C162.133 16.08 162.037 16.656 161.877 17.52C161.749 18.384 161.637 19.136 161.541 19.776C161.285 21.536 161.157 23.424 161.157 25.44C161.157 29.824 162.581 32.016 165.429 32.016C166.485 32.016 167.701 31.648 169.077 30.912C169.493 31.52 169.701 32.304 169.701 33.264C169.701 34.224 169.173 34.976 168.117 35.52C167.093 36.032 165.861 36.288 164.421 36.288C158.789 36.288 155.973 33.088 155.973 26.688C155.973 25.76 156.101 24.08 156.357 21.648C156.645 19.216 156.789 17.248 156.789 15.744C155.253 15.84 154.021 16.112 153.093 16.56C152.709 15.984 152.517 15.328 152.517 14.592C152.517 13.824 152.789 13.2 153.333 12.72C153.877 12.208 154.549 11.952 155.349 11.952C156.149 11.952 156.677 11.968 156.933 12C156.965 11.744 156.981 11.408 156.981 10.992C156.981 8.592 156.709 6.48 156.165 4.656ZM175.726 28.176C175.726 27.6 175.582 23.856 175.294 16.944C173.726 17.04 172.478 17.312 171.55 17.76C171.166 17.056 170.974 16.32 170.974 15.552C170.974 14.784 171.246 14.16 171.79 13.68C172.334 13.168 172.974 12.912 173.71 12.912C174.446 12.912 174.974 12.928 175.294 12.96C175.454 9.344 176.686 6.288 178.99 3.792C181.294 1.264 184.19 -2.86102e-06 187.678 -2.86102e-06C189.63 -2.86102e-06 191.278 0.415998 192.622 1.248C193.966 2.08 194.638 3.312 194.638 4.944C194.638 6.096 194.206 7.072 193.342 7.872C192.478 8.672 191.454 9.072 190.27 9.072C190.014 9.072 189.694 9.04 189.31 8.976C189.406 8.56 189.454 8.192 189.454 7.872C189.454 6.752 189.214 5.856 188.734 5.184C188.254 4.48 187.406 4.128 186.19 4.128C184.974 4.128 183.854 4.48 182.83 5.184C182.19 6.048 181.678 7.248 181.294 8.784C180.91 10.32 180.718 11.824 180.718 13.296H181.822C183.934 13.296 186.446 12.96 189.358 12.288C189.742 12.928 189.934 13.696 189.934 14.592C189.934 15.456 189.566 16.176 188.83 16.752C188.094 17.328 187.166 17.616 186.046 17.616C186.014 17.616 184.206 17.392 180.622 16.944L181.102 41.904C181.102 43.984 179.87 45.024 177.406 45.024C176.574 45.024 175.486 44.832 174.142 44.448C175.198 40.256 175.726 34.832 175.726 28.176ZM200.576 36.576C197.056 36.576 194.464 35.552 192.8 33.504C191.136 31.424 190.304 28.544 190.304 24.864C190.304 21.152 191.408 17.936 193.616 15.216C195.824 12.496 198.656 11.136 202.112 11.136C209.216 11.136 212.768 15.136 212.768 23.136C212.768 26.88 211.616 30.064 209.312 32.688C207.008 35.28 204.096 36.576 200.576 36.576ZM197.12 16.416C196.544 18.272 196.256 20.128 196.256 21.984C196.256 23.84 196.32 25.28 196.448 26.304C196.576 27.328 196.816 28.352 197.168 29.376C197.904 31.456 199.344 32.496 201.488 32.496C203.664 32.496 205.088 31.92 205.76 30.768C206.464 29.616 206.816 27.84 206.816 25.44C206.816 18.624 205.2 15.216 201.968 15.216C200.112 15.216 198.496 15.616 197.12 16.416ZM217.071 0.575998C218.095 0.191998 219.151 -2.86102e-06 220.239 -2.86102e-06C221.327 -2.86102e-06 222.223 0.367997 222.927 1.104C223.663 1.808 224.031 2.784 224.031 4.032C224.031 5.248 223.855 7.712 223.503 11.424C223.183 15.104 223.023 18 223.023 20.112C223.023 25.328 223.391 30.432 224.127 35.424C223.103 35.808 222.015 36 220.863 36C218.399 36 217.167 34.8 217.167 32.4C217.167 31.248 217.343 28.992 217.695 25.632C218.047 22.24 218.223 19.52 218.223 17.472C218.223 10.656 217.839 5.024 217.071 0.575998ZM229.626 12.144C230.65 11.856 231.674 11.712 232.698 11.712C233.754 11.712 234.65 12.032 235.386 12.672C236.122 13.312 236.49 14.144 236.49 15.168C236.49 16.16 236.314 17.904 235.962 20.4C235.642 22.864 235.482 24.784 235.482 26.16C235.482 29.744 235.818 32.832 236.49 35.424C235.498 35.808 234.426 36 233.273 36C232.122 36 231.21 35.744 230.538 35.232C229.866 34.688 229.53 33.92 229.53 32.928C229.53 31.904 229.722 30.24 230.105 27.936C230.49 25.632 230.682 23.728 230.682 22.224C230.682 18.224 230.33 14.864 229.626 12.144ZM230.25 1.296C231.37 0.783998 232.474 0.527999 233.562 0.527999C234.65 0.527999 235.45 0.815999 235.962 1.392C236.506 1.936 236.778 2.752 236.778 3.84C236.778 4.928 236.41 5.888 235.674 6.72C234.97 7.552 234.042 7.968 232.89 7.968C230.522 7.968 229.338 6.736 229.338 4.272C229.338 3.184 229.642 2.192 230.25 1.296ZM250.404 36.576C246.884 36.576 244.292 35.552 242.628 33.504C240.964 31.424 240.132 28.544 240.132 24.864C240.132 21.152 241.236 17.936 243.444 15.216C245.652 12.496 248.484 11.136 251.94 11.136C259.044 11.136 262.596 15.136 262.596 23.136C262.596 26.88 261.444 30.064 259.14 32.688C256.836 35.28 253.924 36.576 250.404 36.576ZM246.948 16.416C246.372 18.272 246.084 20.128 246.084 21.984C246.084 23.84 246.148 25.28 246.276 26.304C246.404 27.328 246.644 28.352 246.996 29.376C247.732 31.456 249.172 32.496 251.316 32.496C253.492 32.496 254.916 31.92 255.588 30.768C256.292 29.616 256.644 27.84 256.644 25.44C256.644 18.624 255.028 15.216 251.796 15.216C249.94 15.216 248.324 15.616 246.948 16.416Z" fill="#E2856E"/>
</svg>
