<svg width="363" height="172" viewBox="0 0 363 172" fill="none" xmlns="http://www.w3.org/2000/svg">
<path d="M87.872 55.48C86.976 59.448 84.736 65.144 81.152 72.568C77.44 80.376 75.104 86.104 74.144 89.752C73.632 91.672 73.376 94.168 73.376 97.24C73.376 104.856 74.752 109.912 77.504 112.408C78.912 113.24 79.424 114.104 79.04 115C78.784 115.576 78.24 115.928 77.408 116.056C76.96 116.12 76.384 116.056 75.68 115.864C72.096 113.944 70.304 108.92 70.304 100.792C70.304 96.312 70.816 92.248 71.84 88.6C73.184 83.736 76.512 75.032 81.824 62.488C83.168 59.352 83.84 56.568 83.84 54.136C83.84 52.728 83.488 51.96 82.784 51.832C81.12 51.512 78.176 52.888 73.952 55.96C69.792 59.032 66.4 62.232 63.776 65.56C58.208 72.664 53.504 79.992 49.664 87.544C47.936 90.872 45.312 95.928 41.792 102.712C40.96 104.632 39.936 105.592 38.72 105.592C38.528 105.592 38.368 105.56 38.24 105.496C37.344 104.984 37.216 103.928 37.856 102.328C38.176 101.752 38.496 101.016 38.816 100.12C39.904 98.136 41.472 95.16 43.52 91.192C51.264 75.832 58.496 59.608 65.216 42.52C66.24 39.832 66.752 37.72 66.752 36.184C66.752 35.288 66.176 34.84 65.024 34.84C62.336 34.84 58.816 36.088 54.464 38.584C49.664 41.336 45.472 44.76 41.888 48.856C38.368 56.472 34.944 63.48 31.616 69.88C27.904 77.88 22.336 89.4 14.912 104.44C14.784 104.888 14.24 105.4 13.28 105.976C12.96 106.296 12.416 106.424 11.648 106.36C10.816 106.36 10.272 106.2 10.016 105.88C9.184 105.24 9.216 104.472 10.112 103.576C17.92 89.88 28.448 69.432 41.696 42.232C48.16 28.984 51.392 19.256 51.392 13.048C51.392 11.064 51.008 9.496 50.24 8.344C48.768 6.104 45.12 4.824 39.296 4.504C29.248 3.992 19.904 8.12 11.264 16.888C7.552 20.664 5.696 24.248 5.696 27.64C5.696 28.536 5.824 29.4 6.08 30.232C7.104 32.152 8.992 33.112 11.744 33.112C13.088 33.112 14.496 32.824 15.968 32.248C16.608 32.184 16.992 32.472 17.12 33.112C17.184 33.56 16.928 33.944 16.352 34.264C12.832 35.608 9.888 36.28 7.52 36.28C4.512 36.28 2.432 35.224 1.28 33.112C0.768 32.152 0.512 31.096 0.512 29.944C0.512 27 2.176 23.448 5.504 19.288C9.792 13.976 15.168 9.4 21.632 5.56C27.584 2.04 33.664 0.280004 39.872 0.280004C45.76 0.280004 50.304 2.008 53.504 5.464C54.464 6.936 54.944 8.888 54.944 11.32C54.944 15.672 52.096 24.792 46.4 38.68C45.824 40.152 45.312 41.304 44.864 42.136C51.776 35.224 59.072 30.904 66.752 29.176C69.504 28.536 71.136 28.92 71.648 30.328C71.968 31.224 72.128 32.216 72.128 33.304C72.128 34.968 71.552 37.4 70.4 40.6C68.8 44.824 64.768 54.104 58.304 68.44C64.96 60.632 68.64 56.344 69.344 55.576C74.08 50.84 78.72 47.96 83.264 46.936C83.648 46.872 84 46.84 84.32 46.84C86.24 46.84 87.424 48.12 87.872 50.68C88.192 52.472 88.192 54.072 87.872 55.48ZM125.245 91.768C125.501 91.896 125.436 92.12 125.052 92.44C122.748 94.552 119.197 97.464 114.397 101.176C109.02 105.336 102.108 110.264 93.6605 115.96C87.3245 126.456 81.6605 135.384 76.6685 142.744C67.9005 155.672 59.9965 164.6 52.9565 169.528C50.9725 170.744 49.3725 171.352 48.1565 171.352C45.2765 171.352 43.7725 169.976 43.6445 167.224C43.5165 163.576 45.0525 159.192 48.2525 154.072C49.9805 151.256 54.3325 146.008 61.3085 138.328C66.8125 132.184 74.5885 125.72 84.6365 118.936C86.4925 117.656 89.2125 115.8 92.7965 113.368C96.0605 108.056 101.084 100.12 107.868 89.56C100.06 97.048 93.3725 100.92 87.8045 101.176C86.5885 101.24 85.5965 100.92 84.8285 100.216C84.0605 99.448 83.7405 98.552 83.8685 97.528C84.1245 95.16 85.6925 91.672 88.5725 87.064C90.6845 83.672 92.6045 80.984 94.3325 79C94.9725 78.232 95.7085 77.592 96.5405 77.08C97.0525 76.76 97.5965 76.696 98.1725 76.888C98.2365 77.08 98.3325 77.304 98.4605 77.56C98.7165 78.264 98.4605 79.16 97.6925 80.248C95.7725 82.872 94.3325 84.92 93.3725 86.392C90.9405 90.104 89.2445 93.304 88.2845 95.992C88.0925 96.44 88.0925 96.92 88.2845 97.432C88.4765 97.944 88.8605 98.2 89.4365 98.2C95.3245 97.944 103.932 91.16 115.26 77.848C115.58 77.464 115.932 77.272 116.317 77.272C116.957 77.272 117.276 77.592 117.276 78.232C117.276 78.488 117.18 78.744 116.988 79C112.061 86.552 105.309 97.144 96.7325 110.776C101.212 107.896 106.556 104.44 112.765 100.408C117.948 97.08 121.916 94.232 124.669 91.864C124.861 91.672 125.053 91.64 125.245 91.768ZM89.4365 118.648C88.4125 119.352 87.0045 120.312 85.2125 121.528C75.8045 127.736 68.5085 133.72 63.3245 139.48C59.8045 143.32 56.1565 147.928 52.3805 153.304C49.5645 157.272 48.1565 160.824 48.1565 163.96C48.1565 164.664 48.2525 165.272 48.4445 165.784C48.6365 166.296 49.1485 166.584 49.9805 166.648C50.8765 166.712 51.6765 166.488 52.3805 165.976C59.1645 161.496 66.5245 153.464 74.4605 141.88C78.7485 135.672 83.7405 127.928 89.4365 118.648Z" fill="#333333"/>
<path d="M245.806 24.184C245.87 24.568 245.902 24.984 245.902 25.432C245.902 29.464 241.262 36.984 231.982 47.992C229.038 50.872 224.814 55 219.31 60.376C218.606 62.68 217.902 65.688 217.198 69.4C216.622 73.752 216.046 78.072 215.47 82.36C214.574 87.992 213.07 92.376 210.958 95.512C205.454 103.704 197.134 108.216 185.998 109.048C180.494 109.432 176.142 108.472 172.942 106.168C170.51 104.376 168.526 102.296 166.99 99.928C165.006 101.336 162.158 103.416 158.446 106.168C157.934 106.616 157.262 106.616 156.43 106.168C155.726 105.784 155.694 105.4 156.334 105.016C157.422 104.184 159.022 102.904 161.134 101.176C163.246 99.384 164.846 98.104 165.934 97.336C165.294 94.2 165.646 91.384 166.99 88.888C169.038 85.048 172.43 82.584 177.166 81.496C180.494 80.728 184.462 80.664 189.07 81.304C190.542 80.408 192.558 79.064 195.118 77.272C197.422 75.48 200.782 72.664 205.198 68.824C207.63 66.776 211.086 63.768 215.566 59.8C218.638 49.688 221.326 42.616 223.63 38.584C227.854 31.288 233.806 26.072 241.486 22.936C241.742 22.808 242.286 22.648 243.118 22.456C244.398 22.072 245.198 22.36 245.518 23.32L245.806 24.184ZM241.198 27.448C238.062 27.704 234.926 29.784 231.79 33.688C227.31 39.192 223.95 45.72 221.71 53.272L221.134 55.192C223.31 53.208 226.126 50.456 229.582 46.936C232.078 44.12 234.67 40.536 237.358 36.184C240.046 31.768 241.39 28.984 241.39 27.832C241.39 27.64 241.326 27.512 241.198 27.448ZM214.894 63.832L213.262 65.272C211.854 66.36 209.966 67.992 207.598 70.168C202.35 74.712 197.422 78.712 192.814 82.168C193.198 82.36 193.774 82.616 194.542 82.936C195.566 83.64 195.982 84.216 195.79 84.664C195.342 85.752 194.382 86.008 192.91 85.432C191.95 85.24 190.638 85.016 188.974 84.76C184.75 87.768 178.446 92.152 170.062 97.912C171.214 100.856 172.942 103.096 175.246 104.632C177.358 106.04 180.11 106.744 183.502 106.744C186.638 106.744 189.678 106.2 192.622 105.112C198.51 102.936 203.054 99.704 206.254 95.416C208.686 92.152 210.51 87.96 211.726 82.84C212.558 78.552 213.39 74.296 214.222 70.072C214.222 70.84 214.446 68.76 214.894 63.832ZM185.326 84.28C182.254 84.28 180.398 84.344 179.758 84.472C173.422 85.688 170.062 89.112 169.678 94.744C173.134 92.44 178.35 88.952 185.326 84.28ZM282.197 25.144C282.197 25.272 282.165 25.496 282.101 25.816L281.813 26.104C280.533 29.496 276.053 35.288 268.373 43.48C259.925 52.504 254.677 58.104 252.629 60.28C245.589 67.512 240.437 72.472 237.173 75.16C236.021 76.696 235.285 77.688 234.965 78.136C234.965 78.136 234.965 78.168 234.965 78.232C234.901 78.296 234.837 78.36 234.773 78.424C234.325 78.936 233.525 79.928 232.373 81.4C232.181 81.656 231.925 82.008 231.605 82.456C233.653 80.984 235.893 79.448 238.325 77.848C243.445 74.52 246.037 72.824 246.101 72.76C248.853 71.224 251.605 70.264 254.357 69.88C255.893 69.816 256.757 70.008 256.949 70.456C257.205 71.16 256.853 72.248 255.893 73.72C255.701 73.976 255.029 74.648 253.877 75.736C252.725 76.76 250.773 77.88 248.021 79.096C244.437 80.632 241.013 81.496 237.749 81.688C237.557 81.752 237.013 82.136 236.117 82.84C235.093 84.952 234.677 87.032 234.869 89.08C235.061 91.576 235.797 93.656 237.077 95.32C239.893 98.968 242.581 100.792 245.141 100.792C248.789 100.792 251.189 100.504 252.341 99.928C255.989 98.136 259.637 95.672 263.285 92.536C263.541 92.344 263.829 92.344 264.149 92.536C264.533 92.728 264.565 92.952 264.245 93.208C259.381 97.624 255.861 100.536 253.685 101.944C251.253 103.48 248.725 104.248 246.101 104.248C240.853 104.248 236.597 101.432 233.333 95.8C231.925 93.368 231.253 91.064 231.317 88.888C231.381 87.416 231.637 86.072 232.085 84.856C228.373 87.544 225.621 89.784 223.829 91.576C220.885 95.352 217.365 99.832 213.269 105.016C212.565 105.848 211.957 106.008 211.445 105.496C211.189 105.112 211.061 104.728 211.061 104.344C211.061 104.152 211.157 103.928 211.349 103.672C211.541 103.416 211.637 103.224 211.637 103.096C215.605 98.04 221.493 90.584 229.301 80.728C231.541 77.784 234.901 73.4 239.381 67.576C245.205 60.152 251.157 52.216 257.237 43.768C265.365 32.44 272.693 25.432 279.221 22.744L279.989 22.648C280.757 22.392 281.205 22.552 281.333 23.128L282.101 23.704C282.101 23.832 282.133 24.12 282.197 24.568V25.144ZM278.453 27.544V27.448L277.877 26.68L276.149 27.544C272.309 29.464 267.189 34.872 260.789 43.768C255.029 51.128 248.373 59.704 240.821 69.496C244.277 66.616 250.005 60.856 258.005 52.216C265.749 43.896 271.317 37.528 274.709 33.112C276.245 31.128 277.237 29.688 277.685 28.792C277.749 28.792 277.781 28.824 277.781 28.888L278.453 27.544ZM253.397 72.568C250.325 73.208 246.197 75.16 241.013 78.424C244.405 77.912 247.637 76.792 250.709 75.064C251.477 74.616 252.373 73.784 253.397 72.568ZM287.188 65.176C287.188 65.944 286.932 67.032 286.42 68.44C285.46 69.656 284.532 70.168 283.636 69.976C282.1 69.656 281.524 68.76 281.908 67.288C281.908 67.224 282.548 66.328 283.828 64.6L284.884 63.544C285.204 63.224 285.524 63 285.844 62.872C285.972 62.616 286.164 62.616 286.42 62.872C286.74 63.128 286.996 63.896 287.188 65.176ZM285.268 93.688C280.596 97.976 277.14 100.824 274.9 102.232C272.276 103.896 269.876 104.664 267.7 104.536C265.46 104.408 263.796 103.896 262.708 103C261.62 102.04 261.076 100.76 261.076 99.16C261.076 96.6 262.164 93.848 264.34 90.904C265.556 89.112 267.572 86.328 270.388 82.552C271.028 81.656 272.276 80.056 274.132 77.752C274.516 77.304 275.252 76.568 276.34 75.544C277.236 74.648 278.068 74.936 278.836 76.408C278.964 76.792 278.676 77.432 277.972 78.328C277.716 78.712 277.204 79.384 276.436 80.344C271.124 86.68 267.444 91.992 265.396 96.28C265.14 96.728 265.012 97.272 265.012 97.912C265.012 100.344 266.292 101.56 268.852 101.56C270.708 101.56 272.244 101.208 273.46 100.504C277.62 98.136 281.236 95.64 284.308 93.016C284.564 92.824 284.852 92.824 285.172 93.016C285.556 93.208 285.588 93.432 285.268 93.688ZM341.663 16.12C341.535 20.92 337.919 27.96 330.815 37.24C326.655 42.68 317.951 51.8 304.703 64.6L297.983 71.128C296.383 73.624 294.591 76.472 292.607 79.672C288.959 86.84 286.879 92.184 286.367 95.704C285.855 99.416 287.135 101.272 290.207 101.272C292.063 101.272 293.599 100.92 294.815 100.216C298.911 97.912 302.591 95.352 305.855 92.536C306.111 92.344 306.399 92.344 306.719 92.536C307.103 92.728 307.135 92.952 306.815 93.208C301.951 97.624 298.431 100.536 296.255 101.944C293.823 103.48 291.423 104.248 289.055 104.248C285.535 104.248 283.615 102.648 283.295 99.448C282.783 93.816 285.183 86.52 290.495 77.56C294.655 70.264 300.671 60.312 308.543 47.704C317.439 35.096 327.455 23.96 338.591 14.296C339.423 13.592 340.223 13.496 340.991 14.008C341.439 14.328 341.663 15.032 341.663 16.12ZM338.879 19.384C338.879 18.488 338.399 18.52 337.439 19.48C330.335 24.856 321.791 34.712 311.807 49.048C307.327 55.576 303.647 61.272 300.767 66.136C301.407 65.496 302.335 64.568 303.551 63.352C308.031 58.936 312.479 54.552 316.895 50.2C321.823 45.144 325.951 40.44 329.279 36.088C332.607 31.736 334.591 29.08 335.231 28.12C337.279 24.92 338.495 22.008 338.879 19.384ZM362.897 16.12C362.769 20.92 359.153 27.96 352.049 37.24C347.889 42.68 339.185 51.8 325.937 64.6L319.217 71.128C317.617 73.624 315.825 76.472 313.841 79.672C310.193 86.84 308.113 92.184 307.601 95.704C307.089 99.416 308.369 101.272 311.441 101.272C313.297 101.272 314.833 100.92 316.049 100.216C320.145 97.912 323.825 95.352 327.089 92.536C327.345 92.344 327.633 92.344 327.953 92.536C328.337 92.728 328.369 92.952 328.049 93.208C323.185 97.624 319.665 100.536 317.489 101.944C315.057 103.48 312.657 104.248 310.289 104.248C306.769 104.248 304.849 102.648 304.529 99.448C304.017 93.816 306.417 86.52 311.729 77.56C315.889 70.264 321.905 60.312 329.777 47.704C338.673 35.096 348.689 23.96 359.825 14.296C360.657 13.592 361.457 13.496 362.225 14.008C362.673 14.328 362.897 15.032 362.897 16.12ZM360.113 19.384C360.113 18.488 359.633 18.52 358.673 19.48C351.569 24.856 343.025 34.712 333.041 49.048C328.561 55.576 324.881 61.272 322.001 66.136C322.641 65.496 323.569 64.568 324.785 63.352C329.265 58.936 333.713 54.552 338.129 50.2C343.057 45.144 347.185 40.44 350.513 36.088C353.841 31.736 355.825 29.08 356.465 28.12C358.513 24.92 359.729 22.008 360.113 19.384ZM360.865 92.728C359.521 94.136 358.144 95.544 356.736 96.952C353.984 99.576 351.712 101.24 349.92 101.944C348.705 102.392 346.561 102.968 343.488 103.672C341.313 105.528 338.529 106.392 335.137 106.264C331.68 106.136 329.984 104.92 330.048 102.616C330.112 100.44 331.744 99.352 334.945 99.352C334.752 99.352 336.416 99.864 339.936 100.888C341.985 99.672 343.36 97.208 344.064 93.496C344 90.424 343.968 86.584 343.968 81.976C344.097 81.272 344.257 80.12 344.448 78.52C338.752 83.128 330.913 89.464 320.929 97.528C320.864 97.592 320.672 97.56 320.352 97.432C319.969 97.304 319.745 97.176 319.681 97.048C319.745 96.408 319.841 96.024 319.969 95.896C327.008 90.072 333.152 85.112 338.4 81.016C340.192 79.416 342.273 77.592 344.641 75.544C345.024 74.264 345.856 73.08 347.136 71.992C348.416 70.84 349.696 70.264 350.977 70.264C352.001 70.2 352.641 70.84 352.897 72.184C353.088 73.336 352.64 74.2 351.552 74.776C350.528 75.352 349.216 76.12 347.616 77.08C346.976 78.104 346.656 79.608 346.656 81.592C346.656 82.744 346.816 84.6 347.136 87.16C347.456 89.656 347.616 91.448 347.616 92.536C347.616 96.312 346.752 99.224 345.025 101.272C346.752 101.016 348.256 100.568 349.536 99.928C354.336 97.56 357.92 94.904 360.288 91.96C360.48 91.704 360.705 91.704 360.961 91.96C361.152 92.216 361.12 92.472 360.865 92.728Z" fill="#E2856E"/>
</svg>
