<svg width="192" height="48" viewBox="0 0 192 48" fill="none" xmlns="http://www.w3.org/2000/svg">
<path d="M35.392 4.608L35.152 12.528C35.152 16.88 35.28 20.784 35.536 24.24C35.792 27.664 36.368 31.392 37.264 35.424C36.56 36 35.44 36.288 33.904 36.288C30.928 36.288 29.44 34.992 29.44 32.4C29.44 30.256 29.536 26.976 29.728 22.56C29.952 18.144 30.064 14.688 30.064 12.192C28.336 14.688 26.512 17.776 24.592 21.456C22.704 25.104 21.76 27.344 21.76 28.176C21.76 29.008 21.84 29.648 22 30.096C21.296 30.544 20.352 30.768 19.168 30.768C18.016 30.768 17.04 30.448 16.24 29.808C15.472 29.168 14.816 28.288 14.272 27.168C13.76 26.048 12.832 23.856 11.488 20.592C10.176 17.296 8.976 14.464 7.888 12.096C7.056 17.248 6.64 21.808 6.64 25.776C6.64 29.744 6.768 32.96 7.024 35.424C6 35.808 4.976 36 3.952 36C1.904 36 0.88 34.976 0.88 32.928C0.88 31.36 1.232 28.24 1.936 23.568C2.672 18.864 3.04 14.896 3.04 11.664C3.04 8.432 2.864 5.408 2.512 2.592C4.24 2.144 5.584 1.92 6.544 1.92C8.304 1.92 9.488 2.544 10.096 3.792C11.056 5.808 12.464 9.024 14.32 13.44C16.208 17.824 17.744 21.2 18.928 23.568C19.248 22.896 19.984 21.456 21.136 19.248C22.32 17.008 23.296 15.104 24.064 13.536C24.864 11.936 25.664 10.048 26.464 7.872C27.296 5.664 27.824 3.744 28.048 2.112C29.2 1.792 30.32 1.632 31.408 1.632C32.528 1.632 33.472 1.872 34.24 2.352C35.008 2.832 35.392 3.584 35.392 4.608ZM42.4146 28.032L42.8946 21.12C42.8946 18.016 42.4466 15.072 41.5506 12.288C42.4466 11.904 43.5506 11.712 44.8626 11.712C47.4226 11.712 48.7026 13.136 48.7026 15.984C48.7026 17.264 48.5266 19.072 48.1746 21.408C47.8226 23.744 47.6466 25.36 47.6466 26.256C47.6466 27.12 47.6626 27.76 47.6946 28.176C47.7266 28.56 47.8066 29.024 47.9346 29.568C48.1266 30.656 48.7506 31.2 49.8066 31.2C50.8946 31.2 52.0466 30.352 53.2626 28.656C54.5106 26.928 55.5026 25.024 56.2386 22.944C57.0066 20.864 57.3906 19.216 57.3906 18C57.2306 15.472 56.9586 13.568 56.5746 12.288C57.5986 11.904 58.6386 11.712 59.6946 11.712C60.7826 11.712 61.6786 12.048 62.3826 12.72C63.1186 13.392 63.4866 14.288 63.4866 15.408C63.4866 32.88 60.2866 43.36 53.8866 46.848C52.4466 47.616 50.8146 48 48.9906 48C47.1666 48 45.5666 47.52 44.1906 46.56C42.8466 45.6 42.1746 44.256 42.1746 42.528C42.1746 41.376 42.6066 40.4 43.4706 39.6C44.3346 38.832 45.3586 38.448 46.5426 38.448C46.7986 38.448 47.1186 38.48 47.5026 38.544C47.4066 38.96 47.3586 39.328 47.3586 39.648C47.3586 42.464 48.3346 43.872 50.2866 43.872C51.4706 43.872 52.5426 43.232 53.5026 41.952C54.4626 40.672 55.2306 39.104 55.8066 37.248C56.9266 33.472 57.4866 30.048 57.4866 26.976C56.5266 29.568 55.2146 31.664 53.5506 33.264C51.9186 34.832 50.1426 35.616 48.2226 35.616C44.3506 35.616 42.4146 33.088 42.4146 28.032Z" fill="#333333"/>
<path d="M97.4699 12.288C97.5979 11.648 97.6619 10.992 97.6619 10.32C97.6619 7.216 96.1419 5.664 93.1019 5.664C91.7259 5.664 90.5579 5.952 89.5979 6.528C88.7019 7.584 88.2539 8.848 88.2539 10.32C88.2539 11.28 88.6699 12.112 89.5019 12.816C90.3339 13.488 91.3579 14.016 92.5739 14.4C93.8219 14.784 95.1659 15.264 96.6059 15.84C98.0459 16.416 99.3739 17.04 100.59 17.712C101.838 18.352 102.878 19.328 103.71 20.64C104.542 21.92 104.958 23.44 104.958 25.2C104.958 28.56 103.662 31.296 101.07 33.408C98.5099 35.52 95.4219 36.576 91.8059 36.576C88.8939 36.576 86.4139 35.856 84.3659 34.416C82.3499 32.944 81.3419 30.896 81.3419 28.272C81.3419 26.928 81.7419 25.808 82.5419 24.912C83.3739 23.984 84.3499 23.52 85.4699 23.52C86.6219 23.52 87.4699 23.664 88.0139 23.952C87.7579 24.912 87.6299 25.776 87.6299 26.544C87.6299 28.272 88.1099 29.648 89.0699 30.672C90.0619 31.664 91.4219 32.16 93.1499 32.16C94.8779 32.16 96.2699 31.712 97.3259 30.816C98.3819 29.92 98.9099 28.736 98.9099 27.264C98.9099 25.76 98.3179 24.528 97.1339 23.568C95.9819 22.608 94.5739 21.84 92.9099 21.264C91.2459 20.688 89.5819 20.08 87.9179 19.44C86.2539 18.8 84.8299 17.856 83.6459 16.608C82.4939 15.328 81.9179 13.728 81.9179 11.808C81.9179 8.8 83.2139 6.304 85.8059 4.32C88.4299 2.336 91.3899 1.344 94.6859 1.344C97.1179 1.344 99.2139 1.84 100.974 2.832C102.766 3.792 103.662 5.264 103.662 7.248C103.662 8.688 103.198 9.92 102.27 10.944C101.342 11.936 100.174 12.432 98.7659 12.432C98.3819 12.432 97.9499 12.384 97.4699 12.288ZM114.823 20.88C115.943 18.512 117.607 16.352 119.815 14.4C122.055 12.416 124.311 11.424 126.583 11.424C129.783 11.424 131.383 13.12 131.383 16.512C131.383 18.24 130.583 20.096 128.983 22.08C127.415 24.032 125.655 25.584 123.703 26.736C124.599 28.304 125.703 29.504 127.015 30.336C128.359 31.136 130.119 31.776 132.295 32.256C132.295 33.504 131.991 34.496 131.383 35.232C130.807 35.936 129.975 36.288 128.887 36.288C126.711 36.288 124.583 35.248 122.503 33.168C120.423 31.056 118.855 28.704 117.799 26.112C119.847 25.088 121.607 23.872 123.079 22.464C124.583 21.056 125.335 19.648 125.335 18.24C125.335 16.832 124.903 16.128 124.039 16.128C122.375 16.128 120.519 17.648 118.471 20.688C116.455 23.728 115.287 26.256 114.967 28.272C115.031 29.2 115.351 31.584 115.927 35.424C114.935 35.808 113.847 36 112.663 36C110.199 36 108.967 34.8 108.967 32.4C108.967 31.248 109.143 28.992 109.495 25.632C109.847 22.24 110.023 19.52 110.023 17.472C110.023 10.656 109.639 5.024 108.871 0.575998C109.895 0.191998 110.951 -2.86102e-06 112.039 -2.86102e-06C113.127 -2.86102e-06 114.023 0.367997 114.727 1.104C115.463 1.808 115.831 2.784 115.831 4.032C115.831 5.28 115.655 7.856 115.303 11.76C114.983 15.664 114.823 18.704 114.823 20.88ZM135.454 12.144C136.478 11.856 137.502 11.712 138.526 11.712C139.582 11.712 140.478 12.032 141.214 12.672C141.95 13.312 142.318 14.144 142.318 15.168C142.318 16.16 142.142 17.904 141.79 20.4C141.47 22.864 141.31 24.784 141.31 26.16C141.31 29.744 141.646 32.832 142.318 35.424C141.326 35.808 140.254 36 139.102 36C137.95 36 137.038 35.744 136.366 35.232C135.694 34.688 135.358 33.92 135.358 32.928C135.358 31.904 135.55 30.24 135.934 27.936C136.318 25.632 136.51 23.728 136.51 22.224C136.51 18.224 136.158 14.864 135.454 12.144ZM136.078 1.296C137.198 0.783998 138.302 0.527999 139.39 0.527999C140.478 0.527999 141.278 0.815999 141.79 1.392C142.334 1.936 142.606 2.752 142.606 3.84C142.606 4.928 142.238 5.888 141.502 6.72C140.798 7.552 139.87 7.968 138.718 7.968C136.35 7.968 135.166 6.736 135.166 4.272C135.166 3.184 135.47 2.192 136.078 1.296ZM148.024 0.575998C149.048 0.191998 150.104 -2.86102e-06 151.192 -2.86102e-06C152.28 -2.86102e-06 153.176 0.367997 153.88 1.104C154.616 1.808 154.984 2.784 154.984 4.032C154.984 5.248 154.808 7.712 154.456 11.424C154.136 15.104 153.976 18 153.976 20.112C153.976 25.328 154.344 30.432 155.08 35.424C154.056 35.808 152.968 36 151.816 36C149.352 36 148.12 34.8 148.12 32.4C148.12 31.248 148.296 28.992 148.648 25.632C149 22.24 149.176 19.52 149.176 17.472C149.176 10.656 148.792 5.024 148.024 0.575998ZM160.915 0.575998C161.939 0.191998 162.995 -2.86102e-06 164.083 -2.86102e-06C165.171 -2.86102e-06 166.067 0.367997 166.771 1.104C167.507 1.808 167.875 2.784 167.875 4.032C167.875 5.248 167.699 7.712 167.347 11.424C167.027 15.104 166.867 18 166.867 20.112C166.867 25.328 167.235 30.432 167.971 35.424C166.947 35.808 165.859 36 164.707 36C162.243 36 161.011 34.8 161.011 32.4C161.011 31.248 161.187 28.992 161.539 25.632C161.891 22.24 162.067 19.52 162.067 17.472C162.067 10.656 161.683 5.024 160.915 0.575998ZM177.549 27.264C177.453 27.712 177.405 28.08 177.405 28.368C177.405 29.68 177.789 30.688 178.557 31.392C179.357 32.096 180.413 32.448 181.725 32.448C183.069 32.448 184.173 32.208 185.037 31.728C185.933 31.216 186.381 30.464 186.381 29.472C186.381 28.48 185.901 27.696 184.941 27.12C184.013 26.512 182.877 26.032 181.533 25.68C180.221 25.328 178.893 24.944 177.549 24.528C176.205 24.08 175.053 23.392 174.093 22.464C173.165 21.536 172.701 20.368 172.701 18.96C172.701 16.752 173.869 14.896 176.205 13.392C178.541 11.888 180.989 11.136 183.549 11.136C186.365 11.136 188.509 11.712 189.981 12.864C190.845 13.536 191.277 14.432 191.277 15.552C191.277 16.64 190.845 17.536 189.981 18.24C189.149 18.912 188.125 19.248 186.909 19.248C186.653 19.248 186.333 19.216 185.949 19.152C186.045 18.736 186.093 18.368 186.093 18.048C186.093 17.12 185.741 16.416 185.037 15.936C184.333 15.456 183.373 15.216 182.157 15.216C180.973 15.216 179.885 15.456 178.893 15.936C178.509 16.448 178.317 17.104 178.317 17.904C178.317 18.704 178.781 19.36 179.709 19.872C180.637 20.352 181.757 20.784 183.069 21.168C184.413 21.52 185.757 21.936 187.101 22.416C188.445 22.864 189.581 23.584 190.509 24.576C191.437 25.536 191.901 26.752 191.901 28.224C191.901 30.624 190.701 32.624 188.301 34.224C185.933 35.792 183.485 36.576 180.957 36.576C178.429 36.576 176.333 36.128 174.669 35.232C173.037 34.304 172.221 32.912 172.221 31.056C172.221 29.904 172.637 28.976 173.469 28.272C174.333 27.536 175.373 27.168 176.589 27.168C176.845 27.168 177.165 27.2 177.549 27.264Z" fill="#E2856E"/>
</svg>
